<svg xmlns="http://www.w3.org/2000/svg" xmlns:xlink="http://www.w3.org/1999/xlink" viewBox="0 0 494.04628 340.37903"><defs><linearGradient id="a" x1="128.26941" y1="142.21409" x2="352.56071" y2="202.52176" gradientUnits="userSpaceOnUse"><stop offset="0" stop-color="#fff"/><stop offset="1"/></linearGradient><linearGradient id="b" x1="141.4194" y1="122.01174" x2="-2.70694" y2="96.49668" xlink:href="#a"/><linearGradient id="c" x1="364.26792" y1="126.81989" x2="243.59948" y2="115.46308" xlink:href="#a"/><linearGradient id="d" x1="247.12243" y1="139.09839" x2="138.5694" y2="155.79893" xlink:href="#a"/></defs><title>billboard-wide</title><g style="isolation:isolate"><line x1="164.50933" y1="218.28123" x2="187.36193" y2="218.28123" style="fill:#667686"/><line x1="300.14653" y1="218.28123" x2="323.00003" y2="218.28123" style="fill:#667686"/><line x1="431.36333" y1="218.28123" x2="454.21492" y2="218.28123" style="fill:#667686"/><rect x="36.61144" y="218.28123" width="22.85249" height="122.0978" style="fill:#667686"/><polygon points="59.649 226.088 43.063 231.942 36.611 340.379 36.611 218.281 59.464 218.281 59.649 226.088" style="fill:#374a59"/><rect x="159.34923" y="217.86322" width="22.852" height="122.09772" style="fill:#667686"/><polygon points="182.387 225.67 165.8 231.524 159.349 339.961 159.349 217.863 182.201 217.863 182.387 225.67" style="fill:#374a59"/><rect x="288.72073" y="218.28123" width="22.8516" height="122.0978" style="fill:#667686"/><polygon points="311.758 226.088 295.172 231.942 288.721 340.379 288.721 218.281 311.572 218.281 311.758 226.088" style="fill:#374a59"/><rect x="420.30473" y="218.28123" width="22.8516" height="122.0978" style="fill:#667686"/><polygon points="443.342 226.088 426.756 231.942 420.305 340.379 420.305 218.281 443.156 218.281 443.342 226.088" style="fill:#374a59"/><line x1="164.50933" y1="218.28123" x2="187.36193" y2="218.28123" style="fill:#374a59"/><line x1="300.14653" y1="218.28123" x2="323.00003" y2="218.28123" style="fill:#374a59"/><line x1="431.36333" y1="218.28123" x2="454.21492" y2="218.28123" style="fill:#374a59"/><path d="M478.91022,215.23536c-.4063,4.5895-5.7129,8.34448-11.7949,8.34448H24.81694c-6.0815,0-11.3418-3.75794-11.6894-8.34895L.01814,42.092c-.3476-4.59169,4.3438-8.32338,10.4253-8.29275l473.25778,2.397c6.082.03033,10.7266,3.81035,10.3203,8.39992Z" style="fill:#667686"/><path d="M488.09972,36.93821a4.5172,4.5172,0,0,1,1.5039,3.72579l-15.1075,170.63907c-.289,3.25568-4.17568,6.00319-8.4882,6.00319H23.71244c-4.2963,0-8.1337-2.73859-8.3798-5.98246L2.22274,38.18529a4.30467,4.30467,0,0,1,.1865-1.61154A6.69742,6.69742,0,0,0,.01814,42.092l13.1094,173.1389c.3476,4.591,5.6079,8.34895,11.6894,8.34895H467.11532c6.082,0,11.3886-3.755,11.7949-8.34448L494.02152,44.5962C494.32044,41.20348,491.85752,38.25842,488.09972,36.93821Z" style="fill:#374a59"/><path d="M467.418,205.18472c-.166,4.59691-5.2773,8.36959-11.3594,8.38l-420.18309.79473c-6.0815.01029-11.1382-3.74168-11.2363-8.34153L21.40244,54.73835c-.0982-4.59872,4.7973-8.33556,10.8789-8.30417l429.73439,2.21462c6.082.03139,10.9218,3.8192,10.7558,8.41685Z" style="fill:#fdefcc"/><g style="mix-blend-mode:multiply"><path d="M32.28134,46.43418c-6.0816-.03139-10.9771,3.70545-10.8789,8.30417l3.2368,151.27952c.0981,4.59986,5.1548,8.35182,11.2363,8.34153l101.5762-.192-.7539-167.19516Z" style="fill:url(#a)"/><polygon points="136.698 46.972 137.452 214.167 245.231 213.963 245.231 47.532 136.698 46.972" style="fill:url(#b)"/><path d="M462.01572,48.64879l-103.7969-.53471.748,165.6352,97.0918-.18461c6.0821-.01036,11.1934-3.783,11.3594-8.38l5.3535-148.11907C472.93752,52.468,468.09772,48.68018,462.01572,48.64879Z" style="fill:url(#c)"/><polygon points="245.231 47.532 245.231 213.963 358.967 213.749 358.219 48.114 245.231 47.532" style="fill:url(#d)"/></g><polygon points="112.694 15.848 102.394 31.3 43.36 31.3 34.247 15.848 43.36 0 102.394 0 112.694 15.848" style="fill:#716c72"/><polygon points="112.694 15.848 102.394 31.3 43.36 31.3 34.247 15.848 43.36 0 102.394 0 112.694 15.848" style="fill:#667686"/><polygon points="37.005 15.848 44.717 28.922 101.123 28.922 109.838 15.848 37.005 15.848" style="fill:#fdefcc"/><rect x="45.04304" y="29.5786" width="2.8731" height="6.773" style="fill:#667686"/><rect x="98.23344" y="29.5786" width="2.87259" height="6.773" style="fill:#667686"/><polygon points="276.344 15.848 266.043 31.3 207.01 31.3 197.898 15.848 207.01 0 266.043 0 276.344 15.848" style="fill:#716c72"/><polygon points="276.344 15.848 266.043 31.3 207.01 31.3 197.898 15.848 207.01 0 266.043 0 276.344 15.848" style="fill:#667686"/><polygon points="200.656 15.848 208.367 28.922 264.774 28.922 273.488 15.848 200.656 15.848" style="fill:#fdefcc"/><rect x="208.69344" y="29.5786" width="2.873" height="6.773" style="fill:#667686"/><rect x="261.88293" y="29.5786" width="2.873" height="6.773" style="fill:#667686"/><polygon points="459.899 15.848 449.598 31.3 390.565 31.3 381.451 15.848 390.565 0 449.598 0 459.899 15.848" style="fill:#716c72"/><polygon points="459.899 15.848 449.598 31.3 390.565 31.3 381.451 15.848 390.565 0 449.598 0 459.899 15.848" style="fill:#667686"/><polygon points="384.209 15.848 391.92 28.922 448.326 28.922 457.043 15.848 384.209 15.848" style="fill:#fdefcc"/><rect x="392.24613" y="29.5786" width="2.8731" height="6.773" style="fill:#667686"/><rect x="445.43752" y="29.5786" width="2.8711" height="6.773" style="fill:#667686"/></g></svg>