<svg xmlns="http://www.w3.org/2000/svg" xmlns:xlink="http://www.w3.org/1999/xlink" viewBox="0 0 494.04628 439.16359"><defs><linearGradient id="a" x1="132.69302" y1="174.55544" x2="376.69435" y2="240.16276" gradientUnits="userSpaceOnUse"><stop offset="0" stop-color="#fff"/><stop offset="1"/></linearGradient><linearGradient id="b" x1="137.98451" y1="152.67473" x2="-16.08342" y2="125.39968" xlink:href="#a"/><linearGradient id="c" x1="362.28364" y1="158.02459" x2="236.96598" y2="146.23021" xlink:href="#a"/><linearGradient id="d" x1="243.86504" y1="170.80325" x2="128.86842" y2="188.49511" xlink:href="#a"/></defs><title>billboard</title><g style="isolation:isolate"><line x1="164.50933" y1="277.72409" x2="187.36193" y2="277.72409" style="fill:#667686"/><line x1="300.14653" y1="277.72409" x2="323.00003" y2="277.72409" style="fill:#667686"/><line x1="431.36333" y1="277.72409" x2="454.21492" y2="277.72409" style="fill:#667686"/><rect x="36.61144" y="277.72409" width="22.85249" height="161.4395" style="fill:#667686"/><polygon points="59.649 288.046 43.063 295.787 36.611 439.164 36.611 277.724 59.464 277.724 59.649 288.046" style="fill:#374a59"/><rect x="159.34923" y="277.17139" width="22.852" height="161.4394" style="fill:#667686"/><polygon points="182.387 287.494 165.8 295.234 159.349 438.611 159.349 277.171 182.201 277.171 182.387 287.494" style="fill:#374a59"/><rect x="288.72073" y="277.72409" width="22.8516" height="161.4395" style="fill:#667686"/><polygon points="311.758 288.046 295.172 295.787 288.721 439.164 288.721 277.724 311.572 277.724 311.758 288.046" style="fill:#374a59"/><rect x="420.30473" y="277.72409" width="22.8516" height="161.4395" style="fill:#667686"/><polygon points="443.342 288.046 426.756 295.787 420.305 439.164 420.305 277.724 443.156 277.724 443.342 288.046" style="fill:#374a59"/><line x1="164.50933" y1="277.72409" x2="187.36193" y2="277.72409" style="fill:#374a59"/><line x1="300.14653" y1="277.72409" x2="323.00003" y2="277.72409" style="fill:#374a59"/><line x1="431.36333" y1="277.72409" x2="454.21492" y2="277.72409" style="fill:#374a59"/><path d="M478.91022,273.69679a12.02265,12.02265,0,0,1-11.7949,11.0332H24.81694a11.88491,11.88491,0,0,1-11.6894-11.0391L.01814,44.7641a10.26526,10.26526,0,0,1,10.4253-10.9648l473.25778,3.1694a10.31194,10.31194,0,0,1,10.3203,11.1065Z" style="fill:#667686"/><path d="M488.09972,37.9497a7.06814,7.06814,0,0,1,1.5039,4.9263l-15.1075,225.62149a8.74492,8.74492,0,0,1-8.4882,7.93751H23.71244a8.60943,8.60943,0,0,1-8.3798-7.9101L2.22274,39.5986a7.43309,7.43309,0,0,1,.1865-2.1308,10.34465,10.34465,0,0,0-2.3911,7.2963l13.1094,228.92679A11.88491,11.88491,0,0,0,24.81694,284.73H467.11532a12.02265,12.02265,0,0,0,11.7949-11.0332L494.02152,48.0752A10.30121,10.30121,0,0,0,488.09972,37.9497Z" style="fill:#374a59"/><path d="M467.418,260.40769a11.49569,11.49569,0,0,1-11.3594,11.0801l-420.18309,1.0508a11.27585,11.27585,0,0,1-11.2363-11.0293l-3.2368-200.024a10.78589,10.78589,0,0,1,10.8789-10.9799l429.73439,2.9282a10.819,10.819,0,0,1,10.7558,11.12889Z" style="fill:#fdefcc"/><g style="mix-blend-mode:multiply"><path d="M32.28134,50.5054a10.78589,10.78589,0,0,0-10.8789,10.9799l3.2368,200.024a11.27585,11.27585,0,0,0,11.2363,11.0293l101.5762-.2539-.7539-221.06789Z" style="fill:url(#a)"/><polygon points="136.698 51.217 137.452 272.285 245.231 272.015 245.231 51.956 136.698 51.217" style="fill:url(#b)"/><path d="M462.01572,53.4336l-103.7969-.707.748,219.00529,97.0918-.2441a11.49569,11.49569,0,0,0,11.3594-11.0801l5.3535-195.84521A10.819,10.819,0,0,0,462.01572,53.4336Z" style="fill:url(#c)"/><polygon points="245.231 51.956 245.231 272.015 358.967 271.732 358.219 52.727 245.231 51.956" style="fill:url(#d)"/></g><polygon points="112.694 15.848 102.394 31.3 43.36 31.3 34.247 15.848 43.36 0 102.394 0 112.694 15.848" style="fill:#716c72"/><polygon points="112.694 15.848 102.394 31.3 43.36 31.3 34.247 15.848 43.36 0 102.394 0 112.694 15.848" style="fill:#667686"/><polygon points="37.005 15.848 44.717 28.922 101.123 28.922 109.838 15.848 37.005 15.848" style="fill:#fdefcc"/><rect x="45.04304" y="29.5786" width="2.8731" height="6.773" style="fill:#667686"/><rect x="98.23344" y="29.5786" width="2.87259" height="6.773" style="fill:#667686"/><polygon points="276.344 15.848 266.043 31.3 207.01 31.3 197.898 15.848 207.01 0 266.043 0 276.344 15.848" style="fill:#716c72"/><polygon points="276.344 15.848 266.043 31.3 207.01 31.3 197.898 15.848 207.01 0 266.043 0 276.344 15.848" style="fill:#667686"/><polygon points="200.656 15.848 208.367 28.922 264.774 28.922 273.488 15.848 200.656 15.848" style="fill:#fdefcc"/><rect x="208.69344" y="29.5786" width="2.873" height="6.773" style="fill:#667686"/><rect x="261.88293" y="29.5786" width="2.873" height="6.773" style="fill:#667686"/><polygon points="459.899 15.848 449.598 31.3 390.565 31.3 381.451 15.848 390.565 0 449.598 0 459.899 15.848" style="fill:#716c72"/><polygon points="459.899 15.848 449.598 31.3 390.565 31.3 381.451 15.848 390.565 0 449.598 0 459.899 15.848" style="fill:#667686"/><polygon points="384.209 15.848 391.92 28.922 448.326 28.922 457.043 15.848 384.209 15.848" style="fill:#fdefcc"/><rect x="392.24613" y="29.5786" width="2.8731" height="6.773" style="fill:#667686"/><rect x="445.43752" y="29.5786" width="2.8711" height="6.773" style="fill:#667686"/></g></svg>