<svg xmlns="http://www.w3.org/2000/svg" xmlns:xlink="http://www.w3.org/1999/xlink" viewBox="0 0 494.04628 306.57998"><defs><clipPath id="a"><rect x="1.09664" y="9.38493" width="517.97901" height="66.17969" style="fill:none"/></clipPath><linearGradient id="b" x1="128.20422" y1="106.41504" x2="352.49552" y2="166.72271" gradientUnits="userSpaceOnUse"><stop offset="0" stop-color="#fff"/><stop offset="1"/></linearGradient><linearGradient id="c" x1="141.35421" y1="86.21268" x2="-2.77213" y2="60.69763" xlink:href="#b"/><linearGradient id="d" x1="364.20273" y1="91.02084" x2="243.53429" y2="79.66403" xlink:href="#b"/><linearGradient id="e" x1="247.05723" y1="103.29934" x2="138.50421" y2="119.99987" xlink:href="#b"/></defs><title>billboard-split</title><g style="isolation:isolate"><line x1="164.48761" y1="184.48218" x2="187.34021" y2="184.48218" style="fill:#667686"/><line x1="300.1248" y1="184.48218" x2="322.9783" y2="184.48218" style="fill:#667686"/><line x1="431.3416" y1="184.48218" x2="454.1932" y2="184.48218" style="fill:#667686"/><rect x="36.58972" y="184.48218" width="22.85249" height="122.0978" style="fill:#667686"/><polygon points="59.627 192.289 43.041 198.143 36.59 306.58 36.59 184.482 59.442 184.482 59.627 192.289" style="fill:#374a59"/><rect x="159.32751" y="184.06417" width="22.852" height="122.09772" style="fill:#667686"/><polygon points="182.365 191.871 165.779 197.725 159.328 306.162 159.328 184.064 182.18 184.064 182.365 191.871" style="fill:#374a59"/><rect x="288.699" y="184.48218" width="22.8516" height="122.0978" style="fill:#667686"/><polygon points="311.736 192.289 295.15 198.143 288.699 306.58 288.699 184.482 311.551 184.482 311.736 192.289" style="fill:#374a59"/><rect x="420.283" y="184.48218" width="22.8516" height="122.0978" style="fill:#667686"/><polygon points="443.32 192.289 426.734 198.143 420.283 306.58 420.283 184.482 443.135 184.482 443.32 192.289" style="fill:#374a59"/><line x1="164.48761" y1="184.48218" x2="187.34021" y2="184.48218" style="fill:#374a59"/><line x1="300.1248" y1="184.48218" x2="322.9783" y2="184.48218" style="fill:#374a59"/><line x1="431.3416" y1="184.48218" x2="454.1932" y2="184.48218" style="fill:#374a59"/><path d="M478.91022,181.4363c-.4063,4.5895-5.7129,8.34448-11.7949,8.34448H24.81694c-6.0815,0-11.3418-3.75794-11.6894-8.34895L.01814,8.29294C-.32946,3.70125,4.36194-.03044,10.44344.00019l473.25778,2.397c6.082.03033,10.7266,3.81035,10.3203,8.39992Z" style="fill:#667686"/><path d="M488.09974,3.13916a4.5172,4.5172,0,0,1,1.5039,3.72579L474.49614,177.504c-.289,3.25568-4.17568,6.00319-8.4882,6.00319H23.71246c-4.2963,0-8.1337-2.73859-8.3798-5.98246L2.22275,4.38624a4.30467,4.30467,0,0,1,.1865-1.61154A6.69742,6.69742,0,0,0,.01815,8.29294l13.1094,173.1389c.3476,4.591,5.6079,8.34895,11.6894,8.34895H467.11534c6.082,0,11.3886-3.755,11.7949-8.34448l15.1113-170.63916C494.32046,7.40443,491.85754,4.45937,488.09974,3.13916Z" style="fill:#374a59"/><path d="M467.35283,169.38567c-.166,4.59691-5.2773,8.36959-11.3594,8.38l-420.18309.79473c-6.0815.01029-11.1382-3.74168-11.2363-8.34153L21.33725,18.9393c-.0982-4.59872,4.7973-8.33556,10.8789-8.30417l429.73439,2.21462c6.082.03139,10.9218,3.8192,10.7558,8.41685Z" style="fill:#fdefcc"/><g style="clip-path:url(#a)"><path d="M467.46686,169.44c-.166,4.59691-5.2773,8.36959-11.3594,8.38l-420.18309.79473c-6.0815.01029-11.1382-3.74168-11.2363-8.34153L21.45127,18.99366c-.0982-4.59872,4.7973-8.33556,10.8789-8.30417L462.06456,12.9041c6.082.03139,10.9218,3.8192,10.7558,8.41685Z" style="fill:#e5cf9c"/></g><g style="mix-blend-mode:multiply"><path d="M32.21614,10.63512c-6.0816-.03139-10.9771,3.70545-10.8789,8.30417L24.574,170.21882c.0981,4.59986,5.1548,8.35182,11.2363,8.34153l101.5762-.192-.7539-167.19516Z" style="fill:url(#b)"/><polygon points="136.633 11.173 137.387 178.368 245.165 178.164 245.165 11.733 136.633 11.173" style="fill:url(#c)"/><path d="M461.95053,12.84974,358.15364,12.315l.748,165.6352,97.0918-.18461c6.0821-.01036,11.1934-3.783,11.3594-8.38l5.3535-148.11907C472.87233,16.66894,468.03253,12.88113,461.95053,12.84974Z" style="fill:url(#d)"/><polygon points="245.165 11.733 245.165 178.164 358.902 177.95 358.154 12.315 245.165 11.733" style="fill:url(#e)"/></g></g></svg>