<svg xmlns="http://www.w3.org/2000/svg" xmlns:xlink="http://www.w3.org/1999/xlink" viewBox="0 0 494.04628 306.57998"><defs><linearGradient id="a" x1="128.26941" y1="108.41504" x2="352.56071" y2="168.72271" gradientUnits="userSpaceOnUse"><stop offset="0" stop-color="#fff"/><stop offset="1"/></linearGradient><linearGradient id="b" x1="141.4194" y1="88.21268" x2="-2.70694" y2="62.69763" xlink:href="#a"/><linearGradient id="c" x1="364.26792" y1="93.02084" x2="243.59948" y2="81.66403" xlink:href="#a"/><linearGradient id="d" x1="247.12243" y1="105.29934" x2="138.5694" y2="121.99987" xlink:href="#a"/></defs><title>billboard-wide-clean</title><g style="isolation:isolate"><line x1="164.50933" y1="184.48218" x2="187.36193" y2="184.48218" style="fill:#667686"/><line x1="300.14653" y1="184.48218" x2="323.00003" y2="184.48218" style="fill:#667686"/><line x1="431.36333" y1="184.48218" x2="454.21492" y2="184.48218" style="fill:#667686"/><rect x="36.61144" y="184.48218" width="22.85249" height="122.0978" style="fill:#667686"/><polygon points="59.649 192.289 43.063 198.143 36.611 306.58 36.611 184.482 59.464 184.482 59.649 192.289" style="fill:#374a59"/><rect x="159.34923" y="184.06417" width="22.852" height="122.09772" style="fill:#667686"/><polygon points="182.387 191.871 165.8 197.725 159.349 306.162 159.349 184.064 182.201 184.064 182.387 191.871" style="fill:#374a59"/><rect x="288.72073" y="184.48218" width="22.8516" height="122.0978" style="fill:#667686"/><polygon points="311.758 192.289 295.172 198.143 288.721 306.58 288.721 184.482 311.572 184.482 311.758 192.289" style="fill:#374a59"/><rect x="420.30473" y="184.48218" width="22.8516" height="122.0978" style="fill:#667686"/><polygon points="443.342 192.289 426.756 198.143 420.305 306.58 420.305 184.482 443.156 184.482 443.342 192.289" style="fill:#374a59"/><line x1="164.50933" y1="184.48218" x2="187.36193" y2="184.48218" style="fill:#374a59"/><line x1="300.14653" y1="184.48218" x2="323.00003" y2="184.48218" style="fill:#374a59"/><line x1="431.36333" y1="184.48218" x2="454.21492" y2="184.48218" style="fill:#374a59"/><path d="M478.91022,181.4363c-.4063,4.5895-5.7129,8.34448-11.7949,8.34448H24.81694c-6.0815,0-11.3418-3.75794-11.6894-8.34895L.01814,8.29294C-.32946,3.70125,4.36194-.03044,10.44344.00019l473.25778,2.397c6.082.03033,10.7266,3.81035,10.3203,8.39992Z" style="fill:#667686"/><path d="M488.09972,3.13916a4.5172,4.5172,0,0,1,1.5039,3.72579L474.49612,177.504c-.289,3.25568-4.17568,6.00319-8.4882,6.00319H23.71244c-4.2963,0-8.1337-2.73859-8.3798-5.98246L2.22274,4.38624a4.30467,4.30467,0,0,1,.1865-1.61154A6.69742,6.69742,0,0,0,.01814,8.29294l13.1094,173.1389c.3476,4.591,5.6079,8.34895,11.6894,8.34895H467.11532c6.082,0,11.3886-3.755,11.7949-8.34448l15.1113-170.63916C494.32044,7.40443,491.85752,4.45937,488.09972,3.13916Z" style="fill:#374a59"/><path d="M467.418,171.38567c-.166,4.59691-5.2773,8.36959-11.3594,8.38l-420.18309.79473c-6.0815.01029-11.1382-3.74168-11.2363-8.34153L21.40244,20.9393c-.0982-4.59872,4.7973-8.33556,10.8789-8.30417l429.73439,2.21462c6.082.03139,10.9218,3.8192,10.7558,8.41685Z" style="fill:#fdefcc"/><g style="mix-blend-mode:multiply"><path d="M32.28134,12.63512c-6.0816-.03139-10.9771,3.70545-10.8789,8.30417l3.2368,151.27952c.0981,4.59986,5.1548,8.35182,11.2363,8.34153l101.5762-.192-.7539-167.19516Z" style="fill:url(#a)"/><polygon points="136.698 13.173 137.452 180.368 245.231 180.164 245.231 13.733 136.698 13.173" style="fill:url(#b)"/><path d="M462.01572,14.84974,358.21883,14.315l.748,165.6352,97.0918-.18461c6.0821-.01036,11.1934-3.783,11.3594-8.38l5.3535-148.11907C472.93752,18.66894,468.09772,14.88113,462.01572,14.84974Z" style="fill:url(#c)"/><polygon points="245.231 13.733 245.231 180.164 358.967 179.95 358.219 14.315 245.231 13.733" style="fill:url(#d)"/></g></g></svg>