<svg xmlns="http://www.w3.org/2000/svg" viewBox="0 0 105.85538 183.16432"><title>checkered-flag</title><rect x="6.471" y="8.38515" width="98.78738" height="64.68465" transform="translate(-0.11837 0.16286) rotate(-0.16686)" style="fill:#333;stroke:#231f20;stroke-miterlimit:10"/><rect x="89.01602" y="8.26474" width="16.17102" height="16.16922" transform="translate(-0.04645 0.27829) rotate(-0.16417)" style="fill:#fff"/><rect x="56.67343" y="8.35962" width="16.17205" height="16.17066" transform="translate(-0.0473 0.18738) rotate(-0.16573)" style="fill:#fff"/><rect x="24.33119" y="8.4561" width="16.17099" height="16.17039" transform="translate(-0.05074 0.09982) rotate(-0.17629)" style="fill:#fff"/><rect x="72.89227" y="24.48194" width="16.16997" height="16.17204" transform="translate(-0.09559 0.23868) rotate(-0.16878)" style="fill:#fff"/><rect x="40.5492" y="24.57757" width="16.17097" height="16.1723" transform="translate(-0.09695 0.14482) rotate(-0.17044)" style="fill:#fff"/><rect x="8.20903" y="24.67416" width="16.17069" height="16.17012" transform="translate(-0.10148 0.05067) rotate(-0.17762)" style="fill:#fff"/><rect x="89.11061" y="40.60703" width="16.16913" height="16.17195" transform="translate(-0.14616 0.29286) rotate(-0.17251)" style="fill:#fff"/><rect x="56.76773" y="40.70174" width="16.17153" height="16.17137" transform="translate(-0.13943 0.1859) rotate(-0.16406)" style="fill:#fff"/><rect x="24.42721" y="40.79651" width="16.16944" height="16.17159" transform="translate(-0.14386 0.09599) rotate(-0.16878)" style="fill:#fff"/><rect x="72.98713" y="56.82657" width="16.17166" height="16.17077" transform="translate(-0.19934 0.24975) rotate(-0.17629)" style="fill:#fff"/><rect x="40.64391" y="56.92021" width="16.17153" height="16.17137" transform="translate(-0.18593 0.1398) rotate(-0.16406)" style="fill:#fff"/><rect x="8.30201" y="57.01527" width="16.17137" height="16.17232" transform="translate(-0.18217 0.04613) rotate(-0.16038)" style="fill:#fff"/><path d="M.76017,178.825.25,4.36547a4.10215,4.10215,0,1,1,8.20427-.02456L8.9647,178.80244a4.10228,4.10228,0,0,1-8.20453.02254Z" style="fill:#fff;stroke:#231f20;stroke-miterlimit:10;stroke-width:0.5px"/></svg>