<svg xmlns="http://www.w3.org/2000/svg" viewBox="0 0 132.30985 248.91747"><title>checkered-flag-2</title><path d="M.19418,243.59432a.85083.85083,0,0,1-.193-.58809c1.473-38.65966,2.79641-77.28286,2.987-115.96647Q3.13558,97.385,2.64665,67.74188q-.22986-14.38015-.5906-28.75216C1.81778,29.814.76644,20.25481,1.57386,11.099a.4879.4879,0,0,1,.91354-.16352.52285.52285,0,0,1,.10465-.17929c2.72393-3.29206,10.95468-4.70149,12.1522.22362a.6236.6236,0,0,1,.88472-.04441c9.51255-14.3893,29.4603-12.565,43.32782-5.988C68.3101,9.38771,76.401,16.17769,85.82382,20.41177A35.99293,35.99293,0,0,0,117.76246,19.045c.87926-.46577,1.53467.42752,1.39312,1.19921.37983-.1785.91952.12021.70983.61646-6.36173,15.46777-3.17747,32.07805,1.82842,47.40458,2.42552,7.4364,5.21733,14.74635,7.35732,22.27259,1.19625,4.19824,5.27827,14.01129,2.02859,18.0236-2.6247,3.227-9.583,2.86914-13.31756,2.818a62.5098,62.5098,0,0,1-16.45187-2.76415c-11.63935-3.37784-22.52551-8.865-34.14288-12.3015-6.81406-2.02416-13.94257-3.304-21.06149-2.65511-10.44185.943-19.70907,6.074-27.98222,12.21348a.99327.99327,0,0,1-.58137.20142q.16911,11.89471.34487,23.79793c.55491,37.44534,1.30109,74.95833-1.71573,112.33283a.78074.78074,0,0,1-.4939.70858,7.60727,7.60727,0,0,1-7.039,5.98186,8.86461,8.86461,0,0,1-8.38045-4.78829A.66516.66516,0,0,1,.19418,243.59432Zm14.46666-.82038a.88813.88813,0,0,1-.3469-.78151c2.52624-38.37126,2.222-76.60645,1.64978-115.04059q-.42828-29.135-.85653-58.27036c-.27929-18.67324-1.21272-37.51276-.51346-56.18134a.396.396,0,0,1-.37549-.19585,5.51005,5.51005,0,0,0-4.82787-2.7385c-2.31159.08054-3.80507,1.63894-5.85506,2.37654a.871.871,0,0,1-.91241-.24941C4.084,21.14585,3.65168,31.23943,3.93251,40.77954q.4374,14.87418.68995,29.75787.47236,27.84376.30179,55.69053c-.19139,38.95895-.97562,78.01844-3.218,116.91933.02.0252.04188.03531.0468.05886a7.32659,7.32659,0,0,0,6.92838,3.70469C11.26386,246.60121,13.22634,244.82089,14.66084,242.77394ZM32.00293,95.24724c-.48014-5.111-.85791-10.24847-1.16681-15.38576A41.95828,41.95828,0,0,0,17.33263,85.9856c-.03366.02676-.06387.02332-.08907.04336q.12012,8.80276.26222,17.61564A73.12042,73.12042,0,0,1,32.00293,95.24724ZM30.71924,77.93576q-.35143-6.3737-.59369-12.76547A30.93432,30.93432,0,0,0,17.942,72.79891a.76.76,0,0,1-.89364.18871l.16,10.73485A44.57856,44.57856,0,0,1,30.71924,77.93576Zm-.67033-14.70952q-.19945-5.79409-.37055-11.56971a45.83759,45.83759,0,0,0-12.77,7.27106c.01721,3.8725.04952,7.74666.107,11.60078-.00213.15284.0042.29882.01046.44486A32.18494,32.18494,0,0,1,30.04892,63.22624ZM46.51839,91.518a.73.73,0,0,1-.07145-.24522c-.39182-4.34361-.66782-8.69692-.87322-13.0651a57.47978,57.47978,0,0,0-12.49688,1.12152c.25372,5.0851.46877,10.17347.54616,15.26144A47.76445,47.76445,0,0,1,46.51839,91.518Zm6.81013-.08746a62.78048,62.78048,0,0,1,10.09865,1.59571q-.515-6.44968-.92542-13.00992a104.40044,104.40044,0,0,0-14.7611-1.76037c.16549,4.2489.346,8.49951.50307,12.75513a1.24428,1.24428,0,0,1-.05819.3759A41.47836,41.47836,0,0,1,53.32852,91.43052ZM45.49377,76.29384q-.27053-6.47924-.3565-12.968a42.08688,42.08688,0,0,0-12.91165,1.20438c.25088,4.30454.51022,8.60236.746,12.90526A61.5073,61.5073,0,0,1,45.49377,76.29384ZM29.62832,49.815c-.02905-.95186-.05819-1.90366-.07887-2.86217-.08042-2.91588-.12891-5.84347-.14719-8.76763a64.13165,64.13165,0,0,0-12.37908,4.44718.89671.89671,0,0,1-.22.05141c.04352,4.64805.06342,9.30109.08511,13.939A46.14674,46.14674,0,0,1,29.62832,49.815ZM45.11945,61.40387c-.04668-4.15122-.0479-8.29733-.02744-12.4332-1.01549-.01642-2.04109-.011-3.07358.05482A42.58054,42.58054,0,0,0,31.57362,51.0007c.13983,3.87119.33148,7.756.54671,11.63571A46.452,46.452,0,0,1,45.11945,61.40387ZM76.533,97.16036c-.24-1.18238-.29161-2.47338-.45809-3.49444q-.87545-5.40084-1.43532-10.8192a1.12306,1.12306,0,0,1-.01477-.1394c-3.28085-.81026-6.61053-1.59549-10.006-2.27349q.289,6.21733.66853,12.44506a.93089.93089,0,0,1-.1662.58534C68.984,94.471,72.77542,95.76792,76.533,97.16036ZM62.37344,77.98993q-.35781-5.91538-.588-11.87755A88.74449,88.74449,0,0,0,47.23171,63.473c.115,4.289.2686,8.57487.43731,12.86236A100.1798,100.1798,0,0,1,62.37344,77.98993ZM29.38306,36.14067c-.00037-3.88589.04456-7.76653.17348-11.64536.04759-1.35611.08181-2.729.11776-4.11717A77.70837,77.70837,0,0,0,17.4499,26.48756a.97422.97422,0,0,1-.93842.046c.14574,4.69031.22089,9.39549.26582,14.09736A64.24711,64.24711,0,0,1,29.38306,36.14067ZM45.09517,47.33406q.02864-5.48122.0994-10.99592a63.03278,63.03278,0,0,0-13.92949,1.40945c.03741,3.82884.12192,7.64781.24329,11.47875A45.8639,45.8639,0,0,1,45.09517,47.33406Zm34.684,51.00745c-.00165.01511.00335.0386.00157.05369,2.09588.80518,4.17488,1.62366,6.23877,2.44049,1.03951.40924,2.079.81848,3.127,1.221a143.56138,143.56138,0,0,1-.92854-15.9322c-3.92339-.94477-7.76092-1.97161-11.44943-2.8972a.81108.81108,0,0,0-.18619-.04423c.14227,1.30133.2912,2.611.45688,3.90743.44167,3.37015,1.66549,7.32671,1.298,10.74995a1.61649,1.61649,0,0,1,.19785.07609A.74589.74589,0,0,1,79.77917,98.34151ZM61.71621,63.9704q-.20693-5.82954-.24445-11.67012a56.66232,56.66232,0,0,0-14.463-3.23337c.00122,4.1461.06293,8.299.165,12.43359A81.357,81.357,0,0,1,61.71621,63.9704ZM29.725,18.52521a76.8013,76.8013,0,0,1,1.78564-15.921A24.489,24.489,0,0,0,16.05624,12.88882a.92156.92156,0,0,1-.17165.164c.2603,3.95376.435,7.92074.571,11.89092A66.58413,66.58413,0,0,1,29.725,18.52521ZM74.43956,80.64384c-.35345-3.67372-.59779-7.36561-.74313-11.05381-3.09409-.97257-6.30229-1.95047-9.588-2.85309q.17173,5.83683.42909,11.66051c1.24987.24208,2.498.49911,3.72751.7847C70.33169,79.63981,72.38645,80.13427,74.43956,80.64384Zm36.80437,27.99556c-1.99755-6.29378-3.783-12.7699-5.28113-19.35081a114.88783,114.88783,0,0,1-15.77895-2.69507c.075,5.30946.3566,10.61964.952,15.92733a1.29837,1.29837,0,0,1-.026.29537C97.62546,105.31114,104.353,107.62384,111.24393,108.63939ZM59.89958,49.78786c.525.15938,1.03808.35556,1.56121.53q-.00046-5.82871.16682-11.65373A64.88617,64.88617,0,0,0,47.207,36.3994c-.09654,3.1252-.16945,6.24542-.19705,9.37087-.00832.54207.007,1.0793-.00143,1.62143A49.5672,49.5672,0,0,1,59.89958,49.78786ZM45.23572,34.30042c.107-5.56412.29954-11.1414.67338-16.69807a37.56892,37.56892,0,0,0-14.3377,2.105c-.08453,1.34421-.16061,2.68184-.20655,4.02284-.11908,3.99467-.14593,7.98449-.12068,11.98794A65.05233,65.05233,0,0,1,45.23572,34.30042ZM88.20217,84.04975c.0133-3.40244.119-6.80964.27836-10.21833-4.25564-.9826-8.44166-2.24043-12.60563-3.55682-.0889-.02551-.18453-.05934-.27337-.08478.11316,2.629.2667,5.23959.48051,7.85711.08932,1.02748.19374,2.05676.29149,3.07766C80.31524,82.10973,84.24686,83.11657,88.20217,84.04975ZM73.61681,67.5386q-.0921-2.91336-.0937-5.81654c-.00037-1.60633.00945-3.23456.0277-4.86938-1.17544-.42482-2.35089-.8495-3.52108-1.31962-2.04213-.80666-4.0776-1.60494-6.13329-2.35956.00892,3.81035.07167,7.61916.1579,11.42311.14088.039.26665.07632.40081.10686C67.521,65.58876,70.56976,66.55609,73.61681,67.5386Zm-.03011-12.60944c.08009-3.85379.24931-7.75086.54768-11.64089-1.10812-.47835-2.20953-.94824-3.30255-1.42479-2.23975-.95154-4.495-1.76722-6.76239-2.47716-.10949,3.575-.18877,7.15347-.19932,10.73208l.01706,1.0576C67.13835,52.38064,70.34731,53.68757,73.58671,54.92916Zm31.88091,32.0616q-1.21237-5.56546-2.124-11.219c-1.0306-.01808-2.01244-.06126-2.94724-.11438a69.62982,69.62982,0,0,1-10.05712-1.42266q-.19638,5.14086-.16948,10.269c1.98275.45564,3.96895.88107,5.97541,1.263A90.64965,90.64965,0,0,0,105.46762,86.99076ZM60.99975,36.38949c.22972.06442.45778.144.70274.21019q.239-6.8227.80679-13.57724a40.87275,40.87275,0,0,0-14.57976-5.22782c-.22427,5.52013-.47877,11.03683-.6578,16.56214A62.81189,62.81189,0,0,1,60.99975,36.38949Zm27.5788,35.51026q.16011-3.11411.36568-6.2231c.1103-1.57079.20557-3.1433.3075-4.70744a86.06944,86.06944,0,0,1-13.82447-3.46648c-.0608,3.55-.04435,7.09344.07961,10.63395C79.83183,69.51733,84.16867,70.86119,88.57855,71.89975ZM46.016,16.06185c.30615-4.22584.72467-8.431,1.29252-12.604a36.68438,36.68438,0,0,0-14.8221-1.02538c.11933,5.12336-.4028,10.30349-.78554,15.469A41.65572,41.65572,0,0,1,46.016,16.06185Zm79.54966,92.49026c1.50463-.78458,3.82135-4.32955,3.94144-5.78458a11.71785,11.71785,0,0,0-.48209-2.74748,121.75869,121.75869,0,0,0-3.31867-12.54861A47.62,47.62,0,0,1,108.1025,89.4408q2.18179,9.84117,5.20693,19.46475a44.74954,44.74954,0,0,0,7.68058.19545C122.2374,109.02909,124.46789,109.12292,125.56568,108.55211ZM103.02862,73.83884c-.60771-3.99345-1.09778-8.01171-1.46538-12.03116a63.58981,63.58981,0,0,1-10.55141-.57655q-.35609,5.53578-.60313,11.05332c.926.19737,1.84361.40147,2.773.56878A64.172,64.172,0,0,0,103.02862,73.83884ZM87.26147,59.1052c.68944.12455,1.38247.21892,2.07371.32837.22155-3.4169.42793-6.83553.641-10.24579A105.43615,105.43615,0,0,1,76.3004,44.21617c-.37872,3.789-.67521,7.5951-.80734,11.43533A74.28908,74.28908,0,0,0,87.26147,59.1052ZM74.30279,41.41039c.30717-3.43.72846-6.85476,1.29721-10.23205-.4155-.24632-.80753-.4975-1.193-.74039-3.21683-2.04208-6.4417-4.21525-9.77286-6.194-.16049,4.35711-.34454,8.71915-.49157,13.093A106.3492,106.3492,0,0,1,74.30279,41.41039ZM61.0592,20.11088c.53468.27522,1.09106.56052,1.63075.85923.338-3.63314.74126-7.23584,1.23347-10.813A78.30544,78.30544,0,0,0,48.31823,3.726c-.05419,4.1627-.17718,8.32517-.33032,12.48427A37.84743,37.84743,0,0,1,61.0592,20.11088Zm64.34949,66.41635c-1.56687-4.906-3.30844-9.7554-4.94747-14.63144-3.83442,3.03535-9.64789,3.84081-14.902,3.89931q.87462,5.71043,2.05483,11.35647A102.72036,102.72036,0,0,0,125.40869,86.52723ZM90.085,47.56331q.29839-4.72772.66729-9.47024a63.49537,63.49537,0,0,1-13.02413-5.65459c-.43951,3.31553-.8705,6.62441-1.23441,9.94856,2.89675,1.29431,5.802,2.58189,8.78147,3.68672A44.11671,44.11671,0,0,0,90.085,47.56331Zm30.15311,23.67213c-.822-2.44976-1.62049-4.90446-2.34671-7.3892q-.64578-2.18484-1.19569-4.40464a58.27663,58.27663,0,0,1-12.82749,2.2771c.139,1.79815.32347,3.60149.52287,5.40652.24192,2.23819.55257,4.47668.87167,6.70844.836-.01943,1.67028-.02375,2.51147-.08834C112.07551,73.45578,116.05511,71.8292,120.23814,71.23544ZM101.45377,60.21937c-.25088-3.16477-.433-6.32944-.516-9.49044a39.96229,39.96229,0,0,1-9.12319-1.09428c-.23814,3.36148-.48294,6.71446-.69753,10.071A68.93324,68.93324,0,0,0,101.45377,60.21937ZM75.98919,28.97385a91.93778,91.93778,0,0,1,2.49037-10.096c-2.31573-1.358-4.58259-2.80987-6.86628-4.24839-2.0558-1.29011-4.27775-2.59924-6.58877-3.86488-.05644,3.77992-.17322,7.553-.30511,11.32432C68.3658,24.18774,72.1404,26.6377,75.98919,28.97385Zm24.92068,19.78606c-.033-3.06347-.00555-6.12005.12768-9.16457a31.782,31.782,0,0,1-8.51248-1.017c-.17365,3.13171-.37921,6.275-.5999,9.41665A39.1187,39.1187,0,0,0,100.90987,48.75991ZM90.90363,36.29751c.31-3.85816.67219-7.7027,1.1097-11.53855a48.6138,48.6138,0,0,1-12.59362-5.33781c-.42693,3.60769-.89738,7.195-1.38958,10.77223A64.6185,64.6185,0,0,0,90.90363,36.29751Zm25.57489,22.232a86.56045,86.56045,0,0,1-1.97805-11.22537,27.991,27.991,0,0,1-11.2343,3.33089q.15723,4.75675.4908,9.51062A89.95707,89.95707,0,0,0,116.47852,58.52949ZM114.39629,46.206a53.57291,53.57291,0,0,1,.49335-13.71242A16.24633,16.24633,0,0,1,103.13612,39.437q-.02109,4.61012.09058,9.19709A48.96038,48.96038,0,0,0,114.39629,46.206Zm-12.0457-20.53557a37.05042,37.05042,0,0,1-6.40478-.17994c-.98168-.11192-1.94793-.291-2.88907-.49014-.07365,3.931-.23115,7.86-.434,11.78381a24.74905,24.74905,0,0,0,8.53473.82069Q101.49993,31.58568,102.35059,25.67048ZM114.903,30.83527a.40554.40554,0,0,1,.3277-.12325,40.0789,40.0789,0,0,1,3.44784-9.77257.36.36,0,0,1-.08414.06691,38.798,38.798,0,0,1-15.29339,4.5813c-.06521,3.92424-.1287,7.83344-.15182,11.72433A22.96426,22.96426,0,0,0,114.903,30.83527Z" style="fill:#1d1d1b"/><path d="M17.24357,86.029q.12012,8.80276.26222,17.61564a73.12042,73.12042,0,0,1,14.49714-8.39735c-.48014-5.111-.85791-10.24847-1.16681-15.38576A41.95828,41.95828,0,0,0,17.33263,85.9856C17.299,86.01236,17.26877,86.00891,17.24357,86.029Z" style="fill:#f6f6f6"/><path d="M17.04837,72.98762l.16,10.73485a44.57856,44.57856,0,0,1,13.5109-5.78671q-.35143-6.3737-.59369-12.76547A30.93432,30.93432,0,0,0,17.942,72.79891.76.76,0,0,1,17.04837,72.98762Z" style="fill:#1d1d1b"/><path d="M17.01534,70.52837c-.00213.15284.0042.29882.01046.44486a32.18494,32.18494,0,0,1,13.02312-7.747q-.19945-5.79409-.37055-11.56971a45.83759,45.83759,0,0,0-12.77,7.27106C16.92552,62.80009,16.95783,66.67424,17.01534,70.52837Z" style="fill:#f6f6f6"/><path d="M33.07683,79.32918c.25372,5.0851.46877,10.17347.54616,15.26144A47.76445,47.76445,0,0,1,46.51839,91.518a.73.73,0,0,1-.07145-.24522c-.39182-4.34361-.66782-8.69692-.87322-13.0651A57.47978,57.47978,0,0,0,33.07683,79.32918Z" style="fill:#1d1d1b"/><path d="M48.24371,91.01107a1.24428,1.24428,0,0,1-.05819.3759,41.47836,41.47836,0,0,1,5.143.04354,62.78048,62.78048,0,0,1,10.09865,1.59571q-.515-6.44968-.92542-13.00992a104.40044,104.40044,0,0,0-14.7611-1.76037C47.90614,82.50485,48.08667,86.75546,48.24371,91.01107Z" style="fill:#f6f6f6"/><path d="M32.22562,64.53021c.25088,4.30454.51022,8.60236.746,12.90526a61.5073,61.5073,0,0,1,12.52216-1.14162q-.27053-6.47924-.3565-12.968A42.08688,42.08688,0,0,0,32.22562,64.53021Z" style="fill:#f6f6f6"/><path d="M16.80316,42.68379c.04352,4.64805.06342,9.30109.08511,13.939a46.14674,46.14674,0,0,1,12.74-6.80782c-.02905-.95186-.05819-1.90366-.07887-2.86217-.08042-2.91588-.12891-5.84347-.14719-8.76763a64.13165,64.13165,0,0,0-12.37908,4.44718A.89671.89671,0,0,1,16.80316,42.68379Z" style="fill:#1d1d1b"/><path d="M5.64449,27.64974a.39193.39193,0,0,0,.77388-.01107C6.9682,25.03177,6.28945,21.7952,5.56,19.2718c-.11957-.42671-.7648-.202-.71059.19429.16559,1.3652.37808,2.72044.48153,4.09379A35.56216,35.56216,0,0,0,5.64449,27.64974Z" style="fill:#1d1d1b"/><path d="M7.22592,28.74047c-.17137.63059.77085,1.02111.96742.37035a13.03869,13.03869,0,0,0,.13342-7.1368.31111.31111,0,0,0-.61462.09051A17.39118,17.39118,0,0,1,7.22592,28.74047Z" style="fill:#1d1d1b"/><path d="M31.57362,51.0007c.13983,3.87119.33148,7.756.54671,11.63571a46.452,46.452,0,0,1,12.99912-1.23254c-.04668-4.15122-.0479-8.29733-.02744-12.4332-1.01549-.01642-2.04109-.011-3.07358.05482A42.58054,42.58054,0,0,0,31.57362,51.0007Z" style="fill:#1d1d1b"/><path d="M65.28741,92.8789a.93089.93089,0,0,1-.1662.58534C68.984,94.471,72.77542,95.76792,76.533,97.16036c-.24-1.18238-.29161-2.47338-.45809-3.49444q-.87545-5.40084-1.43532-10.8192a1.12306,1.12306,0,0,1-.01477-.1394c-3.28085-.81026-6.61053-1.59549-10.006-2.27349Q64.90787,86.65117,65.28741,92.8789Z" style="fill:#1d1d1b"/><path d="M47.23171,63.473c.115,4.289.2686,8.57487.43731,12.86236a100.1798,100.1798,0,0,1,14.70442,1.65455q-.35781-5.91538-.588-11.87755A88.74449,88.74449,0,0,0,47.23171,63.473Z" style="fill:#1d1d1b"/><path d="M16.51149,26.53352c.14574,4.69031.22089,9.39549.26582,14.09736a64.24711,64.24711,0,0,1,12.60575-4.49021c-.00037-3.88589.04456-7.76653.17348-11.64536.04759-1.35611.08181-2.729.11776-4.11717A77.70837,77.70837,0,0,0,17.4499,26.48756.97422.97422,0,0,1,16.51149,26.53352Z" style="fill:#f6f6f6"/><path d="M31.26508,37.74759c.03741,3.82884.12192,7.64781.24329,11.47875a45.8639,45.8639,0,0,1,13.5868-1.89228q.02864-5.48122.0994-10.99592A63.03278,63.03278,0,0,0,31.26508,37.74759Z" style="fill:#f6f6f6"/><path d="M78.33715,97.84045a1.61649,1.61649,0,0,1,.19785.07609.74589.74589,0,0,1,1.24417.425c-.00165.01511.00335.0386.00157.05369,2.09588.80518,4.17488,1.62366,6.23877,2.44049,1.03951.40924,2.079.81848,3.127,1.221a143.56138,143.56138,0,0,1-.92854-15.9322c-3.92339-.94477-7.76092-1.97161-11.44943-2.8972a.81108.81108,0,0,0-.18619-.04423c.14227,1.30133.2912,2.611.45688,3.90743C77.48086,90.46065,78.70469,94.41721,78.33715,97.84045Z" style="fill:#f6f6f6"/><path d="M47.00872,49.06691c.00122,4.1461.06293,8.299.165,12.43359a81.357,81.357,0,0,1,14.54251,2.4699q-.20693-5.82954-.24445-11.67012A56.66232,56.66232,0,0,0,47.00872,49.06691Z" style="fill:#f6f6f6"/><path d="M15.8846,13.05278c.2603,3.95376.435,7.92074.571,11.89092A66.58413,66.58413,0,0,1,29.725,18.52521a76.8013,76.8013,0,0,1,1.78564-15.921A24.489,24.489,0,0,0,16.05624,12.88882.92156.92156,0,0,1,15.8846,13.05278Z" style="fill:#1d1d1b"/><path d="M64.53754,78.39744c1.24987.24208,2.498.49911,3.72751.7847,2.06664.45767,4.1214.95213,6.17451,1.46169-.35345-3.67372-.59779-7.36561-.74313-11.05381-3.09409-.97257-6.30229-1.95047-9.588-2.85309Q64.28019,72.57376,64.53754,78.39744Z" style="fill:#f6f6f6"/><path d="M91.13586,102.52085a1.29837,1.29837,0,0,1-.026.29537c6.51561,2.49491,13.24317,4.80761,20.13407,5.82317-1.99755-6.29378-3.783-12.7699-5.28113-19.35081a114.88783,114.88783,0,0,1-15.77895-2.69507C90.25889,91.903,90.54045,97.21316,91.13586,102.52085Z" style="fill:#1d1d1b"/><path d="M47.01,45.77027c-.00832.54207.007,1.0793-.00143,1.62143a49.5672,49.5672,0,0,1,12.891,2.39615c.525.15938,1.03808.35556,1.56121.53q-.00046-5.82871.16682-11.65373A64.88617,64.88617,0,0,0,47.207,36.3994C47.11047,39.52461,47.03756,42.64482,47.01,45.77027Z" style="fill:#1d1d1b"/><path d="M31.36485,23.73015c-.11908,3.99467-.14593,7.98449-.12068,11.98794a65.05233,65.05233,0,0,1,13.99156-1.41767c.107-5.56412.29954-11.1414.67338-16.69807a37.56892,37.56892,0,0,0-14.3377,2.105C31.48688,21.05152,31.41079,22.38915,31.36485,23.73015Z" style="fill:#1d1d1b"/><path d="M76.082,78.04693c.08932,1.02748.19374,2.05676.29149,3.07766,3.9417.98514,7.87332,1.992,11.82864,2.92516.0133-3.40244.119-6.80964.27836-10.21833-4.25564-.9826-8.44166-2.24043-12.60563-3.55682-.0889-.02551-.18453-.05934-.27337-.08478C75.71469,72.81877,75.86823,75.42941,76.082,78.04693Z" style="fill:#1d1d1b"/><path d="M64.05435,64.59661c.14088.039.26665.07632.40081.10686,3.06583.8853,6.11461,1.85263,9.16166,2.83513q-.0921-2.91336-.0937-5.81654c-.00037-1.60633.00945-3.23456.0277-4.86938-1.17544-.42482-2.35089-.8495-3.52108-1.31962-2.04213-.80666-4.0776-1.60494-6.13329-2.35956C63.90537,56.98385,63.96812,60.79267,64.05435,64.59661Z" style="fill:#1d1d1b"/><path d="M63.87012,50.1184l.01706,1.0576c3.25116,1.20464,6.46012,2.51157,9.69952,3.75315.08009-3.85379.24931-7.75086.54768-11.64089-1.10812-.47835-2.20953-.94824-3.30255-1.42479-2.23975-.95154-4.495-1.76722-6.76239-2.47716C63.96,42.96133,63.88067,46.53979,63.87012,50.1184Z" style="fill:#f6f6f6"/><path d="M90.16975,84.50366c1.98275.45564,3.96895.88107,5.97541,1.263a90.64965,90.64965,0,0,0,9.32246,1.22405q-1.21237-5.56546-2.124-11.219c-1.0306-.01808-2.01244-.06126-2.94724-.11438a69.62982,69.62982,0,0,1-10.05712-1.42266Q90.14285,79.37554,90.16975,84.50366Z" style="fill:#f6f6f6"/><path d="M47.92952,17.79462c-.22427,5.52013-.47877,11.03683-.6578,16.56214a62.81189,62.81189,0,0,1,13.728,2.03274c.22972.06442.45778.144.70274.21019q.239-6.8227.80679-13.57724A40.87275,40.87275,0,0,0,47.92952,17.79462Z" style="fill:#f6f6f6"/><path d="M75.42727,57.50273c-.0608,3.55-.04435,7.09344.07961,10.63395,4.325,1.38065,8.66179,2.72452,13.07167,3.76307q.16011-3.11411.36568-6.2231c.1103-1.57079.20557-3.1433.3075-4.70744A86.06944,86.06944,0,0,1,75.42727,57.50273Z" style="fill:#f6f6f6"/><path d="M32.48644,2.43251c.11933,5.12336-.4028,10.30349-.78554,15.469A41.65572,41.65572,0,0,1,46.016,16.06185c.30615-4.22584.72467-8.431,1.29252-12.604A36.68438,36.68438,0,0,0,32.48644,2.43251Z" style="fill:#f6f6f6"/><path d="M113.30943,108.90556a44.74954,44.74954,0,0,0,7.68058.19545c1.2474-.07191,3.47789.02191,4.57568-.5489,1.50463-.78458,3.82135-4.32955,3.94144-5.78458a11.71785,11.71785,0,0,0-.48209-2.74748,121.75869,121.75869,0,0,0-3.31867-12.54861A47.62,47.62,0,0,1,108.1025,89.4408Q110.2843,99.282,113.30943,108.90556Z" style="fill:#f6f6f6"/><path d="M90.4087,72.28446c.926.19737,1.84361.40147,2.773.56878a64.172,64.172,0,0,0,9.84693.98561c-.60771-3.99345-1.09778-8.01171-1.46538-12.03116a63.58981,63.58981,0,0,1-10.55141-.57655Q90.65574,66.76691,90.4087,72.28446Z" style="fill:#1d1d1b"/><path d="M76.3004,44.21617c-.37872,3.789-.67521,7.5951-.80734,11.43533A74.28908,74.28908,0,0,0,87.26147,59.1052c.68944.12455,1.38247.21892,2.07371.32837.22155-3.4169.42793-6.83553.641-10.24579A105.43615,105.43615,0,0,1,76.3004,44.21617Z" style="fill:#1d1d1b"/><path d="M64.63418,24.24393c-.16049,4.35711-.34454,8.71915-.49157,13.093a106.3492,106.3492,0,0,1,10.16017,4.07344c.30717-3.43.72846-6.85476,1.29721-10.23205-.4155-.24632-.80753-.4975-1.193-.74039C71.19021,28.39586,67.96534,26.22269,64.63418,24.24393Z" style="fill:#1d1d1b"/><path d="M48.31823,3.726c-.05419,4.1627-.17718,8.32517-.33032,12.48427A37.84743,37.84743,0,0,1,61.0592,20.11088c.53468.27522,1.09106.56052,1.63075.85923.338-3.63314.74126-7.23584,1.23347-10.813A78.30544,78.30544,0,0,0,48.31823,3.726Z" style="fill:#1d1d1b"/><path d="M105.5592,75.7951q.87462,5.71043,2.05483,11.35647a102.72036,102.72036,0,0,0,17.79466-.62434c-1.56687-4.906-3.30844-9.7554-4.94747-14.63144C116.6268,74.93114,110.81333,75.7366,105.5592,75.7951Z" style="fill:#1d1d1b"/><path d="M76.49377,42.387c2.89675,1.29431,5.802,2.58189,8.78147,3.68672A44.11671,44.11671,0,0,0,90.085,47.56331q.29839-4.72772.66729-9.47024a63.49537,63.49537,0,0,1-13.02413-5.65459C77.28867,35.754,76.85768,39.06289,76.49377,42.387Z" style="fill:#f6f6f6"/><path d="M105.26278,73.83367c.836-.01943,1.67028-.02375,2.51147-.08834,4.30127-.28955,8.28086-1.91612,12.46389-2.50988-.822-2.44976-1.62049-4.90446-2.34671-7.3892q-.64578-2.18484-1.19569-4.40464a58.27663,58.27663,0,0,1-12.82749,2.2771c.139,1.79815.32347,3.60149.52287,5.40652C104.633,69.36342,104.94368,71.6019,105.26278,73.83367Z" style="fill:#f6f6f6"/><path d="M91.81457,49.63465c-.23814,3.36148-.48294,6.71446-.69753,10.071a68.93324,68.93324,0,0,0,10.33674.5137c-.25088-3.16477-.433-6.32944-.516-9.49044A39.96229,39.96229,0,0,1,91.81457,49.63465Z" style="fill:#f6f6f6"/><path d="M65.0245,10.76457c-.05644,3.77992-.17322,7.553-.30511,11.32432,3.64641,2.09885,7.421,4.54881,11.2698,6.885a91.93778,91.93778,0,0,1,2.49037-10.096c-2.31573-1.358-4.58259-2.80987-6.86628-4.24839C69.55747,13.33934,67.33553,12.03021,65.0245,10.76457Z" style="fill:#f6f6f6"/><path d="M92.52508,38.57835c-.17365,3.13171-.37921,6.275-.5999,9.41665a39.1187,39.1187,0,0,0,8.98469.76491c-.033-3.06347-.00555-6.12005.12768-9.16457A31.782,31.782,0,0,1,92.52508,38.57835Z" style="fill:#1d1d1b"/><path d="M79.41971,19.42114c-.42693,3.60769-.89738,7.195-1.38958,10.77223a64.6185,64.6185,0,0,0,12.8735,6.10414c.31-3.85816.67219-7.7027,1.1097-11.53855A48.6138,48.6138,0,0,1,79.41971,19.42114Z" style="fill:#1d1d1b"/><path d="M103.26617,50.635q.15723,4.75675.4908,9.51062a89.95707,89.95707,0,0,0,12.72155-1.61614,86.56045,86.56045,0,0,1-1.97805-11.22537A27.991,27.991,0,0,1,103.26617,50.635Z" style="fill:#1d1d1b"/><path d="M103.13612,39.437q-.02109,4.61012.09058,9.19709a48.96038,48.96038,0,0,0,11.16959-2.428,53.57291,53.57291,0,0,1,.49335-13.71242A16.24633,16.24633,0,0,1,103.13612,39.437Z" style="fill:#f6f6f6"/><path d="M92.62271,36.7842a24.74905,24.74905,0,0,0,8.53473.82069q.34249-6.01922,1.19315-11.93441a37.05042,37.05042,0,0,1-6.40478-.17994c-.98168-.11192-1.94793-.291-2.88907-.49014C92.98309,28.93135,92.82559,32.86037,92.62271,36.7842Z" style="fill:#f6f6f6"/><path d="M103.301,25.58767c-.06521,3.92424-.1287,7.83344-.15182,11.72433a22.96426,22.96426,0,0,0,11.7538-6.47673.40554.40554,0,0,1,.3277-.12325,40.0789,40.0789,0,0,1,3.44784-9.77257.36.36,0,0,1-.08414.06691A38.798,38.798,0,0,1,103.301,25.58767Z" style="fill:#1d1d1b"/></svg>