<svg xmlns="http://www.w3.org/2000/svg" viewBox="0 0 149.57352 244.12116"><title>flag-red-right</title><path d="M74.78652,244.12116c41.19209,0,74.787-7.0037,74.787-15.5922,0-8.5891-33.5949-15.5927-74.787-15.5927C33.59492,212.93626,0,219.93986,0,228.529,0,237.11746,33.59492,244.12116,74.78652,244.12116Z" style="fill:#e6e7e8;fill-rule:evenodd"/><path d="M37.12082,230.40206c4.9477,0,8.9827-.8412,8.9827-1.8731,0-1.0325-4.035-1.8732-8.9827-1.8732s-8.9823.8407-8.9823,1.8732C28.13852,229.56086,32.173,230.40206,37.12082,230.40206Z" style="fill:#888;fill-rule:evenodd"/><path d="M27.07542,237.71c11.6354,0,21.1255-4.4857,21.1255-9.9864,0-5.5003-9.4901-9.9865-21.1255-9.9865s-21.12632,4.4862-21.12632,9.9865C5.9491,233.22426,15.44,237.71,27.07542,237.71Z" style="fill:#3e3639;fill-rule:evenodd"/><polygon points="21.87 23.689 38.156 23.689 38.156 228.925 38.156 231.535 38.084 231.601 38.073 231.61 37.985 231.684 37.958 231.706 37.895 231.757 37.829 231.81 37.805 231.829 37.71 231.9 37.512 232.042 37.41 232.111 37.408 232.112 37.308 232.178 37.257 232.21 37.201 232.246 37.102 232.307 37.093 232.312 36.981 232.376 36.942 232.4 36.867 232.442 36.778 232.493 36.751 232.506 36.634 232.567 36.608 232.581 36.513 232.63 36.437 232.67 36.392 232.69 36.268 232.75 36.257 232.756 36.141 232.809 36.077 232.838 36.014 232.868 35.89 232.922 35.884 232.924 35.75 232.98 35.699 233.001 35.616 233.035 35.505 233.079 35.48 233.088 35.342 233.141 35.307 233.155 35.202 233.192 35.105 233.228 35.061 233.244 34.917 233.293 34.899 233.299 34.771 233.342 34.69 233.367 34.623 233.387 34.476 233.434 34.475 233.434 34.324 233.479 34.259 233.498 34.172 233.523 34.038 233.56 34.018 233.565 33.862 233.606 33.815 233.618 33.704 233.646 33.588 233.675 33.547 233.686 33.384 233.723 33.357 233.729 33.222 233.758 33.123 233.781 33.059 233.794 32.894 233.828 32.888 233.83 32.727 233.861 32.648 233.876 32.56 233.892 32.405 233.918 32.391 233.921 32.22 233.951 32.161 233.96 32.049 233.979 31.913 233.997 31.877 234.003 31.702 234.028 31.663 234.033 31.524 234.051 31.41 234.065 31.348 234.073 31.17 234.093 31.156 234.095 30.991 234.113 30.898 234.121 30.811 234.129 30.638 234.144 30.631 234.146 30.447 234.16 30.376 234.165 30.264 234.173 30.111 234.183 30.078 234.184 29.892 234.196 29.844 234.197 29.576 234.208 29.52 234.211 29.331 234.216 29.307 234.216 29.141 234.22 29.034 234.222 28.951 234.223 28.761 234.223 28.638 234.223 28.515 234.222 28.487 234.222 28.392 234.222 28.269 234.219 28.214 234.216 28.149 234.215 28.027 234.211 27.945 234.208 27.906 234.208 27.785 234.202 27.676 234.197 27.666 234.197 27.546 234.192 27.425 234.184 27.409 234.183 27.307 234.176 27.188 234.168 27.145 234.165 27.069 234.159 26.952 234.149 26.882 234.144 26.834 234.141 26.718 234.131 26.623 234.121 26.6 234.119 26.485 234.108 26.369 234.095 26.365 234.095 26.256 234.081 26.14 234.068 26.026 234.055 25.913 234.04 25.858 234.033 25.801 234.025 25.687 234.009 25.607 233.997 25.576 233.993 25.464 233.976 25.36 233.96 25.354 233.959 25.244 233.941 25.133 233.921 25.114 233.918 25.025 233.902 24.914 233.884 24.873 233.876 24.806 233.862 24.699 233.841 24.632 233.83 24.592 233.821 24.485 233.798 24.38 233.777 24.276 233.754 24.172 233.73 24.068 233.706 23.964 233.681 23.933 233.675 23.862 233.657 23.759 233.632 23.706 233.618 23.658 233.606 23.558 233.579 23.457 233.553 23.359 233.525 23.263 233.498 23.261 233.496 23.161 233.467 23.065 233.439 22.969 233.41 22.873 233.379 22.497 233.256 22.417 233.228 22.407 233.223 22.315 233.191 22.224 233.157 22.133 233.124 22.046 233.09 21.957 233.056 21.87 233.02 21.87 228.8 21.87 23.689" style="fill:#a37d73;fill-rule:evenodd"/><path d="M21.87,23.68866h16.2855v1.4379a13.324,13.324,0,0,1-16.2855-.0014Z" style="fill:#170603;fill-rule:evenodd"/><polygon points="30.013 23.689 21.871 23.689 21.871 228.925 21.871 231.535 21.944 231.601 21.947 231.602 22.024 231.669 22.069 231.706 22.104 231.734 22.184 231.799 22.198 231.81 22.269 231.864 22.355 231.927 22.443 231.991 22.531 232.053 22.619 232.112 22.623 232.114 22.715 232.176 22.77 232.21 22.812 232.235 22.908 232.295 22.925 232.307 23.008 232.354 23.085 232.4 23.108 232.413 23.211 232.47 23.249 232.493 23.315 232.526 23.417 232.581 23.42 232.582 23.53 232.639 23.59 232.67 23.638 232.693 23.748 232.745 23.77 232.756 23.862 232.798 23.95 232.838 23.975 232.85 24.093 232.903 24.137 232.922 24.21 232.952 24.327 233.001 24.331 233.002 24.451 233.051 24.522 233.079 24.572 233.099 24.696 233.146 24.721 233.155 24.822 233.192 24.922 233.228 24.95 233.236 25.078 233.282 25.128 233.299 25.208 233.326 25.338 233.367 25.338 233.368 25.472 233.41 25.551 233.434 25.607 233.45 25.742 233.49 25.768 233.498 25.878 233.528 25.989 233.56 26.017 233.568 26.157 233.605 26.212 233.618 26.299 233.64 26.439 233.675 26.44 233.675 26.583 233.71 26.669 233.729 26.728 233.742 26.874 233.774 26.904 233.781 27.021 233.806 27.14 233.83 27.169 233.836 27.319 233.864 27.377 233.876 27.47 233.892 27.622 233.918 27.774 233.945 27.866 233.96 27.926 233.969 28.081 233.993 28.113 233.997 28.238 234.016 28.364 234.033 28.393 234.037 28.551 234.056 28.711 234.076 28.871 234.095 28.871 234.095 29.032 234.112 29.192 234.128 29.355 234.143 29.389 234.144 29.518 234.155 29.651 234.165 29.683 234.168 29.847 234.179 29.916 234.183 30.013 234.188 30.013 228.861 30.013 23.689" style="fill:#bd9585;fill-rule:evenodd"/><path d="M30.013,23.68866h-8.1416v1.4379a13.26547,13.26547,0,0,0,8.1402,2.777Z" style="fill:#53362b;fill-rule:evenodd"/><circle cx="30.01325" cy="13.32586" r="13.32392" style="fill:#a37d73"/><path d="M23.33342,24.85436a13.324,13.324,0,0,1,13.3602-23.057Z" style="fill:#bd9585;fill-rule:evenodd"/><path d="M43.33692,13.32586a13.32345,13.32345,0,1,1-26.6469,0c0,9.4938,12.1399,10.3628,13.2679,10.3628C34.41872,23.68866,43.33692,21.95306,43.33692,13.32586Z" style="fill:#53362b;fill-rule:evenodd"/><path d="M16.69,13.32586a13.323,13.323,0,0,0,13.323,13.3244v-2.9616C25.53622,23.67686,16.69,20.96256,16.69,13.32586Z" style="fill:#6f3e31;fill-rule:evenodd"/><path d="M21.87142,26.64886a19.4252,19.4252,0,0,0,8.144,2.0601,15.04375,15.04375,0,0,0,8.1401-2.0601h92.67059l-12.2415,38.8686,12.2415,38.8701H38.15272a19.24,19.24,0,0,1-8.1411,2.0601,21.68539,21.68539,0,0,1-8.1402-2.0601Z" style="fill:#e7353b;fill-rule:evenodd"/><path d="M30.013,28.709h.0024a15.04375,15.04375,0,0,0,8.1401-2.0601v77.7387h-.0028a19.23539,19.23539,0,0,1-8.1397,2.0601Z" style="fill:#e50013;fill-rule:evenodd"/><polygon points="102.408 26.649 130.826 26.649 130.826 104.388 65.894 104.388 102.408 26.649" style="fill:#e50013;fill-rule:evenodd"/></svg>