<svg xmlns="http://www.w3.org/2000/svg" viewBox="0 0 107.10833 183.66432"><title>flag-checker-left</title><rect x="18.65132" y="-8.41622" width="64.68465" height="98.78738" transform="translate(9.86784 91.85156) rotate(-89.83314)" style="fill:#333;stroke:#231f20;stroke-miterlimit:10;stroke-width:3px"/><rect x="1.67219" y="8.51384" width="16.16922" height="16.17102" transform="translate(-6.87044 26.30856) rotate(-89.83583)" style="fill:#fff"/><rect x="34.01355" y="8.60892" width="16.17066" height="16.17205" transform="translate(25.28223 58.74535) rotate(-89.83427)" style="fill:#fff"/><rect x="66.35645" y="8.7058" width="16.17039" height="16.17099" transform="translate(57.42138 91.18092) rotate(-89.82371)" style="fill:#fff"/><rect x="17.79505" y="24.73298" width="16.17204" height="16.16997" transform="matrix(0.00295, -1, 1, 0.00295, -7.01299, 58.60225)" style="fill:#fff"/><rect x="50.13749" y="24.82824" width="16.1723" height="16.17097" transform="translate(25.13687 91.0392) rotate(-89.82956)" style="fill:#fff"/><rect x="82.47889" y="24.92388" width="16.17012" height="16.17069" transform="translate(57.27413 123.47042) rotate(-89.82238)" style="fill:#fff"/><rect x="1.57719" y="40.85844" width="16.17195" height="16.16913" transform="translate(-39.30871 58.45876) rotate(-89.82749)" style="fill:#fff"/><rect x="33.91914" y="40.95166" width="16.17137" height="16.17153" transform="translate(-7.15267 90.90168) rotate(-89.83594)" style="fill:#fff"/><rect x="66.26061" y="41.04758" width="16.17159" height="16.16944" transform="translate(24.99531 123.33365) rotate(-89.83122)" style="fill:#fff"/><rect x="17.69999" y="57.07612" width="16.17077" height="16.17166" transform="translate(-39.4556 90.74672) rotate(-89.82371)" style="fill:#fff"/><rect x="50.04297" y="57.17013" width="16.17137" height="16.17153" transform="translate(-7.29341 123.19746) rotate(-89.83594)" style="fill:#fff"/><rect x="82.38448" y="57.26574" width="16.17232" height="16.17137" transform="translate(24.86622 155.63878) rotate(-89.83962)" style="fill:#fff"/><path d="M106.09816,179.075l.51016-174.45951A4.10215,4.10215,0,1,0,98.404,4.59091l-.51042,174.46153a4.10228,4.10228,0,0,0,8.20453.02254Z" style="fill:#fff;stroke:#231f20;stroke-miterlimit:10"/></svg>