<svg xmlns="http://www.w3.org/2000/svg" viewBox="0 0 149.5722 244.12116"><title>flag-green-right</title><path d="M74.7857,244.12116c41.1915,0,74.7865-7.0037,74.7865-15.5922,0-8.5891-33.595-15.5927-74.7865-15.5927C33.595,212.93626,0,219.93986,0,228.529,0,237.11746,33.595,244.12116,74.7857,244.12116Z" style="fill:#e6e7e8;fill-rule:evenodd"/><path d="M37.1213,230.40206c4.9478,0,8.9823-.8412,8.9823-1.8731,0-1.0325-4.0345-1.8732-8.9823-1.8732-4.9482,0-8.9827.8407-8.9827,1.8732C28.1386,229.56086,32.1731,230.40206,37.1213,230.40206Z" style="fill:#888;fill-rule:evenodd"/><path d="M27.076,237.71c11.6354,0,21.125-4.4857,21.125-9.9864,0-5.5003-9.4896-9.9865-21.125-9.9865s-21.1268,4.4862-21.1268,9.9865C5.9492,233.22426,15.4406,237.71,27.076,237.71Z" style="fill:#3e3639;fill-rule:evenodd"/><polygon points="21.87 23.689 38.156 23.689 38.156 228.925 38.156 231.535 38.084 231.601 38.073 231.61 37.986 231.684 37.96 231.706 37.896 231.757 37.829 231.81 37.805 231.829 37.71 231.9 37.512 232.042 37.412 232.111 37.41 232.112 37.308 232.178 37.257 232.21 37.201 232.246 37.104 232.307 37.093 232.312 36.982 232.376 36.944 232.4 36.867 232.442 36.778 232.493 36.751 232.506 36.635 232.567 36.61 232.581 36.515 232.63 36.437 232.67 36.394 232.69 36.268 232.75 36.258 232.756 36.143 232.809 36.077 232.838 36.014 232.868 35.89 232.922 35.885 232.924 35.751 232.98 35.701 233.001 35.618 233.035 35.506 233.079 35.48 233.088 35.343 233.141 35.307 233.155 35.204 233.192 35.105 233.228 35.061 233.244 34.917 233.293 34.9 233.299 34.771 233.342 34.69 233.367 34.623 233.387 34.476 233.434 34.475 233.434 34.324 233.479 34.259 233.498 34.173 233.523 34.04 233.56 34.018 233.565 33.862 233.606 33.815 233.618 33.706 233.646 33.588 233.675 33.547 233.686 33.385 233.723 33.359 233.729 33.224 233.758 33.124 233.781 33.061 233.794 32.894 233.828 32.889 233.83 32.729 233.861 32.65 233.876 32.56 233.892 32.407 233.918 32.392 233.921 32.221 233.951 32.161 233.96 32.049 233.979 31.914 233.997 31.877 234.003 31.702 234.028 31.663 234.033 31.526 234.051 31.411 234.065 31.349 234.073 31.171 234.093 31.156 234.095 30.992 234.113 30.898 234.121 30.811 234.129 30.639 234.144 30.631 234.146 30.447 234.16 30.376 234.165 30.266 234.173 30.112 234.183 30.08 234.184 29.894 234.196 29.845 234.197 29.576 234.208 29.52 234.211 29.332 234.216 29.307 234.216 29.143 234.22 29.036 234.222 28.951 234.223 28.761 234.223 28.638 234.223 28.516 234.222 28.488 234.222 28.394 234.222 28.269 234.219 28.215 234.216 28.149 234.215 28.028 234.211 27.945 234.208 27.906 234.208 27.785 234.202 27.676 234.197 27.666 234.197 27.546 234.192 27.425 234.184 27.409 234.183 27.308 234.176 27.189 234.168 27.145 234.165 27.07 234.159 26.952 234.149 26.884 234.144 26.834 234.141 26.719 234.131 26.623 234.121 26.602 234.119 26.486 234.108 26.369 234.095 26.366 234.095 26.256 234.081 26.14 234.068 26.028 234.055 25.913 234.04 25.858 234.033 25.801 234.025 25.687 234.009 25.607 233.997 25.576 233.993 25.466 233.976 25.36 233.96 25.355 233.959 25.244 233.941 25.133 233.921 25.116 233.918 25.025 233.902 24.916 233.884 24.874 233.876 24.808 233.862 24.701 233.841 24.634 233.83 24.594 233.821 24.487 233.798 24.381 233.777 24.276 233.754 24.172 233.73 24.068 233.706 23.965 233.681 23.933 233.675 23.862 233.657 23.759 233.632 23.706 233.618 23.659 233.606 23.558 233.579 23.459 233.553 23.359 233.525 23.263 233.498 23.261 233.496 23.162 233.467 23.065 233.439 22.969 233.41 22.873 233.379 22.498 233.256 22.418 233.228 22.407 233.223 22.315 233.191 22.225 233.157 22.135 233.124 22.047 233.09 21.959 233.056 21.87 233.02 21.87 228.8 21.87 23.689" style="fill:#a37d73;fill-rule:evenodd"/><path d="M21.8701,23.68866H38.1556v1.4379a13.324,13.324,0,0,1-16.2855-.0014Z" style="fill:#170603;fill-rule:evenodd"/><polygon points="30.014 23.689 21.871 23.689 21.871 228.925 21.871 231.535 21.945 231.601 21.948 231.602 22.025 231.669 22.069 231.706 22.105 231.734 22.185 231.799 22.2 231.81 22.269 231.864 22.355 231.927 22.443 231.991 22.532 232.053 22.619 232.112 22.623 232.114 22.715 232.176 22.77 232.21 22.813 232.235 22.909 232.295 22.925 232.307 23.008 232.354 23.085 232.4 23.109 232.413 23.211 232.47 23.25 232.493 23.315 232.526 23.419 232.581 23.42 232.582 23.53 232.639 23.591 232.67 23.638 232.693 23.75 232.745 23.77 232.756 23.862 232.798 23.952 232.838 23.977 232.85 24.093 232.903 24.139 232.922 24.211 232.952 24.328 233.001 24.331 233.002 24.451 233.051 24.522 233.079 24.573 233.099 24.696 233.146 24.721 233.155 24.824 233.192 24.922 233.228 24.95 233.236 25.078 233.282 25.129 233.299 25.209 233.326 25.338 233.367 25.339 233.368 25.472 233.41 25.551 233.434 25.607 233.45 25.744 233.49 25.77 233.498 25.88 233.528 25.989 233.56 26.017 233.568 26.158 233.605 26.214 233.618 26.299 233.64 26.44 233.675 26.442 233.675 26.583 233.71 26.67 233.729 26.729 233.742 26.874 233.774 26.904 233.781 27.021 233.806 27.14 233.83 27.169 233.836 27.319 233.864 27.379 233.876 27.471 233.892 27.622 233.918 27.774 233.945 27.866 233.96 27.927 233.969 28.081 233.993 28.114 233.997 28.239 234.016 28.366 234.033 28.395 234.037 28.553 234.056 28.713 234.076 28.871 234.095 28.871 234.095 29.032 234.112 29.192 234.128 29.356 234.143 29.389 234.144 29.519 234.155 29.653 234.165 29.683 234.168 29.847 234.179 29.917 234.183 30.014 234.188 30.014 228.861 30.014 23.689" style="fill:#bd9585;fill-rule:evenodd"/><path d="M30.0145,23.68866h-8.143v1.4379a13.27364,13.27364,0,0,0,8.1416,2.777Z" style="fill:#53362b;fill-rule:evenodd"/><circle cx="30.0145" cy="13.32586" r="13.3244" style="fill:#a37d73"/><path d="M23.3349,24.85436a13.32379,13.32379,0,0,1,13.3592-23.057Z" style="fill:#bd9585;fill-rule:evenodd"/><path d="M43.3389,13.32586a13.3244,13.3244,0,1,1-26.6488,0c0,9.4938,12.1399,10.3628,13.2698,10.3628C34.41881,23.68866,43.3389,21.95306,43.3389,13.32586Z" style="fill:#53362b;fill-rule:evenodd"/><path d="M16.6901,13.32586a13.32422,13.32422,0,0,0,13.3244,13.3244v-2.9616C25.5363,23.67686,16.6901,20.96256,16.6901,13.32586Z" style="fill:#6f3e31;fill-rule:evenodd"/><path d="M21.8715,26.64886a19.43246,19.43246,0,0,0,8.1444,2.0601,15.03925,15.03925,0,0,0,8.1397-2.0601h92.6706l-12.2416,38.8686,12.2416,38.8701H38.1533a19.23793,19.23793,0,0,1-8.1402,2.0601,21.70115,21.70115,0,0,1-8.1416-2.0601Z" style="fill:#009844;fill-rule:evenodd"/><path d="M30.0145,28.709h.0014a15.03925,15.03925,0,0,0,8.1397-2.0601v77.7387h-.0023a19.23182,19.23182,0,0,1-8.1388,2.0601Z" style="fill:#007a3c;fill-rule:evenodd"/><polygon points="102.409 26.649 130.826 26.649 118.585 65.517 130.826 104.388 65.895 104.388 102.409 26.649" style="fill:#007a3c;fill-rule:evenodd"/></svg>