<svg xmlns="http://www.w3.org/2000/svg" viewBox="0 0 149.5735 244.12116"><title>flag-red-left</title><path d="M74.787,244.12116C33.59491,244.12116,0,237.11746,0,228.529c0-8.5891,33.59491-15.5927,74.787-15.5927,41.1916,0,74.7865,7.0036,74.7865,15.5927C149.5735,237.11746,115.9786,244.12116,74.787,244.12116Z" style="fill:#e6e7e8;fill-rule:evenodd"/><path d="M112.4527,230.40206c-4.9477,0-8.9827-.8412-8.9827-1.8731,0-1.0325,4.035-1.8732,8.9827-1.8732s8.9823.8407,8.9823,1.8732C121.435,229.56086,117.4005,230.40206,112.4527,230.40206Z" style="fill:#888;fill-rule:evenodd"/><path d="M122.4981,237.71c-11.6354,0-21.1255-4.4857-21.1255-9.9864,0-5.5003,9.4901-9.9865,21.1255-9.9865s21.1263,4.4862,21.1263,9.9865C143.6244,233.22426,134.1335,237.71,122.4981,237.71Z" style="fill:#3e3639;fill-rule:evenodd"/><polygon points="127.704 23.689 111.418 23.689 111.418 228.925 111.418 231.535 111.49 231.601 111.501 231.61 111.589 231.684 111.615 231.706 111.678 231.757 111.745 231.81 111.769 231.829 111.864 231.9 112.061 232.042 112.163 232.111 112.165 232.112 112.266 232.178 112.317 232.21 112.373 232.246 112.471 232.307 112.481 232.312 112.593 232.376 112.632 232.4 112.706 232.442 112.796 232.493 112.823 232.506 112.94 232.567 112.965 232.581 113.06 232.63 113.136 232.67 113.181 232.69 113.306 232.75 113.317 232.756 113.432 232.809 113.497 232.838 113.56 232.868 113.683 232.922 113.69 232.924 113.824 232.98 113.875 233.001 113.957 233.035 114.068 233.079 114.094 233.088 114.231 233.141 114.267 233.155 114.371 233.192 114.469 233.228 114.513 233.244 114.657 233.293 114.674 233.299 114.803 233.342 114.884 233.367 114.95 233.387 115.097 233.434 115.099 233.434 115.25 233.479 115.315 233.498 115.402 233.523 115.535 233.56 115.555 233.565 115.712 233.606 115.758 233.618 115.869 233.646 115.985 233.675 116.027 233.686 116.19 233.723 116.216 233.729 116.351 233.758 116.45 233.781 116.514 233.794 116.679 233.828 116.686 233.83 116.847 233.861 116.925 233.876 117.013 233.892 117.168 233.918 117.183 233.921 117.354 233.951 117.412 233.96 117.525 233.979 117.661 233.997 117.697 234.003 117.872 234.028 117.911 234.033 118.05 234.051 118.163 234.065 118.226 234.073 118.403 234.093 118.418 234.095 118.582 234.113 118.676 234.121 118.762 234.129 118.936 234.144 118.943 234.146 119.127 234.16 119.197 234.165 119.31 234.173 119.462 234.183 119.496 234.184 119.681 234.196 119.729 234.197 119.997 234.208 120.053 234.211 120.243 234.216 120.267 234.216 120.432 234.22 120.539 234.222 120.622 234.223 120.813 234.223 120.936 234.223 121.059 234.222 121.087 234.222 121.182 234.222 121.304 234.219 121.359 234.216 121.425 234.215 121.546 234.211 121.629 234.208 121.667 234.208 121.789 234.202 121.897 234.197 121.908 234.197 122.028 234.192 122.148 234.184 122.164 234.183 122.267 234.176 122.386 234.168 122.428 234.165 122.505 234.159 122.622 234.149 122.692 234.144 122.74 234.141 122.856 234.131 122.951 234.121 122.973 234.119 123.088 234.108 123.204 234.095 123.208 234.095 123.318 234.081 123.434 234.068 123.547 234.055 123.661 234.04 123.716 234.033 123.773 234.025 123.887 234.009 123.967 233.997 123.997 233.993 124.109 233.976 124.213 233.96 124.22 233.959 124.33 233.941 124.44 233.921 124.459 233.918 124.549 233.902 124.66 233.884 124.701 233.876 124.768 233.862 124.874 233.841 124.941 233.83 124.981 233.821 125.088 233.798 125.194 233.777 125.298 233.754 125.402 233.73 125.506 233.706 125.61 233.681 125.641 233.675 125.712 233.657 125.814 233.632 125.868 233.618 125.916 233.606 126.016 233.579 126.116 233.553 126.215 233.525 126.311 233.498 126.312 233.496 126.413 233.467 126.509 233.439 126.605 233.41 126.701 233.379 127.076 233.256 127.156 233.228 127.167 233.223 127.259 233.191 127.35 233.157 127.44 233.124 127.527 233.09 127.617 233.056 127.704 233.02 127.704 228.8 127.704 23.689" style="fill:#a37d73;fill-rule:evenodd"/><path d="M127.7035,23.68866H111.418v1.4379a13.324,13.324,0,0,0,16.2855-.0014Z" style="fill:#170603;fill-rule:evenodd"/><polygon points="119.561 23.689 127.702 23.689 127.702 228.925 127.702 231.535 127.63 231.601 127.626 231.602 127.55 231.669 127.505 231.706 127.47 231.734 127.39 231.799 127.375 231.81 127.304 231.864 127.219 231.927 127.131 231.991 127.043 232.053 126.955 232.112 126.95 232.114 126.859 232.176 126.803 232.21 126.762 232.235 126.666 232.295 126.649 232.307 126.566 232.354 126.488 232.4 126.466 232.413 126.363 232.47 126.324 232.493 126.259 232.526 126.156 232.581 126.153 232.582 126.044 232.639 125.984 232.67 125.936 232.693 125.825 232.745 125.804 232.756 125.712 232.798 125.624 232.838 125.598 232.85 125.48 232.903 125.437 232.922 125.363 232.952 125.247 233.001 125.243 233.002 125.123 233.051 125.052 233.079 125.001 233.099 124.877 233.146 124.853 233.155 124.752 233.192 124.651 233.228 124.623 233.236 124.495 233.282 124.446 233.299 124.366 233.326 124.236 233.367 124.235 233.368 124.101 233.41 124.023 233.434 123.967 233.45 123.831 233.49 123.805 233.498 123.695 233.528 123.585 233.56 123.557 233.568 123.417 233.605 123.362 233.618 123.275 233.64 123.135 233.675 123.133 233.675 122.991 233.71 122.905 233.729 122.845 233.742 122.7 233.774 122.67 233.781 122.553 233.806 122.434 233.83 122.404 233.836 122.255 233.864 122.196 233.876 122.104 233.892 121.952 233.918 121.8 233.945 121.708 233.96 121.648 233.969 121.493 233.993 121.461 233.997 121.335 234.016 121.209 234.033 121.18 234.037 121.023 234.056 120.862 234.076 120.702 234.095 120.702 234.095 120.542 234.112 120.382 234.128 120.219 234.143 120.184 234.144 120.056 234.155 119.923 234.165 119.891 234.168 119.726 234.179 119.658 234.183 119.561 234.188 119.561 228.861 119.561 23.689" style="fill:#bd9585;fill-rule:evenodd"/><path d="M119.5605,23.68866h8.1416v1.4379a13.26547,13.26547,0,0,1-8.1402,2.777Z" style="fill:#53362b;fill-rule:evenodd"/><circle cx="119.56028" cy="13.32586" r="13.32392" style="fill:#a37d73"/><path d="M126.2401,24.85436a13.324,13.324,0,0,0-13.3602-23.057Z" style="fill:#bd9585;fill-rule:evenodd"/><path d="M106.2366,13.32586a13.32345,13.32345,0,1,0,26.6469,0c0,9.4938-12.1399,10.3628-13.2679,10.3628C115.1548,23.68866,106.2366,21.95306,106.2366,13.32586Z" style="fill:#53362b;fill-rule:evenodd"/><path d="M132.8835,13.32586a13.323,13.323,0,0,1-13.323,13.3244v-2.9616C124.0373,23.67686,132.8835,20.96256,132.8835,13.32586Z" style="fill:#6f3e31;fill-rule:evenodd"/><path d="M127.7021,26.64886a19.4252,19.4252,0,0,1-8.144,2.0601,15.04375,15.04375,0,0,1-8.1401-2.0601H18.74741l12.2415,38.8686-12.2415,38.8701h92.6734a19.24,19.24,0,0,0,8.1411,2.0601,21.68539,21.68539,0,0,0,8.1402-2.0601Z" style="fill:#e7353b;fill-rule:evenodd"/><path d="M119.5605,28.709h-.0024a15.04375,15.04375,0,0,1-8.1401-2.0601v77.7387h.0028a19.23539,19.23539,0,0,0,8.1397,2.0601Z" style="fill:#e50013;fill-rule:evenodd"/><polygon points="47.165 26.649 18.747 26.649 18.747 104.388 83.68 104.388 47.165 26.649" style="fill:#e50013;fill-rule:evenodd"/></svg>