<svg xmlns="http://www.w3.org/2000/svg" viewBox="0 0 107.10833 183.66432"><title>flag-checker-right</title><rect x="6.721" y="8.63515" width="98.78738" height="64.68465" transform="translate(-0.1191 0.16359) rotate(-0.16686)" style="fill:#333;stroke:#231f20;stroke-miterlimit:10;stroke-width:3px"/><rect x="89.26602" y="8.51474" width="16.17102" height="16.16922" transform="translate(-0.04716 0.279) rotate(-0.16417)" style="fill:#fff"/><rect x="56.92343" y="8.60962" width="16.17205" height="16.17066" transform="translate(-0.04802 0.18811) rotate(-0.16573)" style="fill:#fff"/><rect x="24.58119" y="8.7061" width="16.17099" height="16.17039" transform="translate(-0.05151 0.10059) rotate(-0.17629)" style="fill:#fff"/><rect x="73.14227" y="24.73194" width="16.16997" height="16.17204" transform="translate(-0.09632 0.23942) rotate(-0.16878)" style="fill:#fff"/><rect x="40.7992" y="24.82757" width="16.17097" height="16.1723" transform="translate(-0.09769 0.14557) rotate(-0.17044)" style="fill:#fff"/><rect x="8.45903" y="24.92416" width="16.17069" height="16.17012" transform="translate(-0.10225 0.05145) rotate(-0.17762)" style="fill:#fff"/><rect x="89.36061" y="40.85703" width="16.16913" height="16.17195" transform="translate(-0.14692 0.29361) rotate(-0.17251)" style="fill:#fff"/><rect x="57.01773" y="40.95174" width="16.17153" height="16.17137" transform="translate(-0.14014 0.18661) rotate(-0.16406)" style="fill:#fff"/><rect x="24.67721" y="41.04651" width="16.16944" height="16.17159" transform="translate(-0.14459 0.09672) rotate(-0.16878)" style="fill:#fff"/><rect x="73.23713" y="57.07657" width="16.17166" height="16.17077" transform="translate(-0.2001 0.25052) rotate(-0.17629)" style="fill:#fff"/><rect x="40.89391" y="57.17021" width="16.17153" height="16.17137" transform="translate(-0.18665 0.14051) rotate(-0.16406)" style="fill:#fff"/><rect x="8.55201" y="57.26527" width="16.17137" height="16.17232" transform="translate(-0.18287 0.04683) rotate(-0.16038)" style="fill:#fff"/><path d="M1.01017,179.075.5,4.61547a4.10215,4.10215,0,1,1,8.20427-.02456L9.2147,179.05244a4.10228,4.10228,0,0,1-8.20453.02254Z" style="fill:#fff;stroke:#231f20;stroke-miterlimit:10"/></svg>