<svg xmlns="http://www.w3.org/2000/svg" xmlns:xlink="http://www.w3.org/1999/xlink" viewBox="0 0 1599.16129 257"><defs><linearGradient id="a" x1="400.01001" y1="311.99995" x2="400.01001" y2="66.00017" gradientUnits="userSpaceOnUse"><stop offset="0" stop-color="#17031a"/><stop offset="1" stop-color="#333"/></linearGradient><linearGradient id="b" x1="41.54856" y1="164" x2="41.54856" y2="75" gradientUnits="userSpaceOnUse"><stop offset="0" stop-color="#333"/><stop offset="0.55495" stop-color="#b3b3b3"/><stop offset="1" stop-color="#333"/></linearGradient><linearGradient id="c" x1="128.8909" x2="128.8909" xlink:href="#b"/><linearGradient id="d" x1="216.34689" x2="216.34689" xlink:href="#b"/><linearGradient id="e" x1="303.86644" x2="303.86644" xlink:href="#b"/><linearGradient id="f" x1="391.42234" x2="391.42234" xlink:href="#b"/><linearGradient id="g" x1="478.94239" x2="478.94239" xlink:href="#b"/><linearGradient id="h" x1="566.39844" x2="566.39844" xlink:href="#b"/><linearGradient id="i" x1="653.91794" x2="653.91794" xlink:href="#b"/><linearGradient id="j" x1="741.37939" x2="741.37939" xlink:href="#b"/><linearGradient id="k" x1="793.59714" x2="793.59714" xlink:href="#b"/><linearGradient id="l" x1="1199.1713" y1="311.99995" x2="1199.1713" y2="66.00017" xlink:href="#a"/><linearGradient id="m" x1="840.70985" x2="840.70985" xlink:href="#b"/><linearGradient id="n" x1="928.05218" x2="928.05218" xlink:href="#b"/><linearGradient id="o" x1="1015.50818" x2="1015.50818" xlink:href="#b"/><linearGradient id="p" x1="1103.02773" x2="1103.02773" xlink:href="#b"/><linearGradient id="q" x1="1190.58363" x2="1190.58363" xlink:href="#b"/><linearGradient id="r" x1="1278.10367" x2="1278.10367" xlink:href="#b"/><linearGradient id="s" x1="1365.55972" x2="1365.55972" xlink:href="#b"/><linearGradient id="t" x1="1453.07923" x2="1453.07923" xlink:href="#b"/><linearGradient id="u" x1="1540.54068" x2="1540.54068" xlink:href="#b"/><linearGradient id="v" x1="1592.75843" x2="1592.75843" xlink:href="#b"/></defs><title>foreground-wide</title><path d="M800,127v-6.9248l-4.54792-6.8301s-17.9892-46.1758.3282-63.5322c0,0-14.8955,4.5928-15.6416,27.7803-1.8213-19.4786-7-54.5537-20.9932-62.4932,0,0,18.9717,56.3271,5.5606,75.6494,0,0,4.25192-37.9883-18.6446-59.9297,0,0,19.9531,49.7774,1.6358,69.4268,0,0-8.5039-25.8721-2.6172-38.3164,0,0-12.4287,7.2041-13.083,25.2168,0,0-7.1963-40.6084-21.2608-46.1758,0,0,16.0264,50.4326-4.58,71.0644,0,0-17.99028-30.7832-3.9249-54.3623,0,0-24.5322,17.0293-17.663,54.6895,0,0-20.9336-61.8945,11.1211-96.2803,0,0-42.6993,19.8369-36.3028,92.0459-1.9053-16.4238-8.2724-60.4336-22.5742-69.4492,0,0,14.3926,68.4443-6.2148,88.42089Z" style="fill:#006e31"/><path d="M800,127V106.165c-3.29392-12.6484-9.25592-42.7353,0-68.62889V25.77341c-11.99122,12.0489-27.45212,36.7491-23.42192,82.252-1.9052-16.4258-8.2715-60.4317-22.5732-69.4463,0,0,14.3926,68.4443-6.21488,88.42089Z" style="fill:#006e31"/><path d="M70.1602,127H5V66.8672a24.33928,24.33928,0,0,1,5.6289-5.0371c-5.88867,12.4443,2.6172,38.3164,2.6172,38.3164,18.3164-19.6494-1.6367-69.4268-1.6367-69.4268,22.8965,21.9414,18.6445,59.9297,18.6445,59.9297C43.6641,71.3271,24.6934,15,24.6934,15c13.9941,7.93951,19.1738,43.01561,20.9941,62.4941.7441-23.1875,15.6406-27.7812,15.6406-27.7812-18.3164,17.3564-.3261,63.5322-.3261,63.5322Z" style="fill:#006e31"/><path d="M176.6992,127H5v-2.6465c17.1504-22.7344,3.90039-85.7744,3.90039-85.7744,14.30081,9.0146,20.666,53.0205,22.57231,69.4463-6.3946-72.2061,36.3046-92.043,36.3046-92.043-32.0546,34.3858-11.121,96.2803-11.121,96.2803-6.8692-37.6602,17.6621-54.6895,17.6621-54.6895-14.0645,23.5791,3.9257,54.3623,3.9257,54.3623,20.6055-20.6318,4.5801-71.0644,4.5801-71.0644,14.0645,5.5674,21.2598,46.1758,21.2598,46.1758.6543-18.0127,13.084-25.2168,13.084-25.2168-5.8887,12.4443,2.6172,38.3164,2.6172,38.3164,18.3164-19.6494-1.6368-69.4268-1.6368-69.4268,22.8965,21.9414,18.6446,59.9297,18.6446,59.9297C150.2031,71.3271,131.2324,15,131.2324,15c13.9942,7.93951,19.1739,43.01561,20.9942,62.4941.7461-23.1875,15.6406-27.7812,15.6406-27.7812-18.3164,17.3564-.3262,63.5322-.3262,63.5322Z" style="fill:#006e31"/><path d="M284.73239,113.2451s-17.9902-46.1758.3262-63.5322c0,0-20.2793,6.2226-14.7188,40.9365,0,0-2.289-64.5146-21.916-75.6494,0,0,18.9727,56.3271,5.5625,75.6494,0,0,4.252-37.9883-18.6445-59.9297,0,0,19.9531,49.7774,1.6348,69.4268,0,0-8.5039-25.8721-2.6153-38.3164,0,0-12.4316,7.2041-13.084,25.2168,0,0-7.1972-40.6084-21.2617-46.1758,0,0,16.02741,50.4326-4.5781,71.0644,0,0-17.9902-30.7832-3.9277-54.3623,0,0-24.5313,17.0293-17.6621,54.6895,0,0-20.9336-61.8945,11.1211-96.2803,0,0-45.1387,20.959-35.6524,98.2461,0,0-5.5605-64.5156-23.2246-75.6494,0,0,14.3926,68.4443-6.2148,88.42089H293.89059Z" style="fill:#006e31"/><path d="M664.94238,113.2451s-17.9903-46.1758.3271-63.5322c0,0-20.2793,6.2226-14.7187,40.9365,0,0-2.2901-64.5146-21.916-75.6494,0,0,18.9716,56.3271,5.5605,75.6494,0,0,4.252-37.9883-18.6435-59.9297,0,0,19.9521,49.7774,1.6357,69.4268,0,0-8.5049-25.8721-2.6172-38.3164,0,0-12.4297,7.2041-13.084,25.2168,0,0-7.19628-40.6084-21.2607-46.1758,0,0,16.0273,50.4326-4.5791,71.0644,0,0-17.9902-30.7832-3.9258-54.3623,0,0-24.5312,17.0293-17.6631,54.6895,0,0-20.93359-61.8945,11.1211-96.2803,0,0-45.13869,20.959-35.6533,98.2461,0,0-5.5596-64.5156-23.2227-75.6494,0,0,14.3916,68.4443-6.2158,88.42089h174.0147Z" style="fill:#006e31"/><path d="M625.65628,113.2451s-17.98928-46.1758.3271-63.5322c0,0-20.2793,6.2226-14.7188,40.9365,0,0-2.29-64.5146-21.916-75.6494,0,0,18.9717,56.3271,5.5606,75.6494,0,0,4.2529-37.9883-18.6436-59.9297,0,0,19.9522,49.7774,1.6358,69.4268,0,0-8.5049-25.8721-2.6172-38.3164,0,0-12.4297,7.2041-13.083,25.2168,0,0-7.1973-40.6084-21.2617-46.1758,0,0,16.0273,50.4326-4.5791,71.0644,0,0-17.9903-30.7832-3.9258-54.3623,0,0-24.5313,17.0293-17.6631,54.6895,0,0-20.9326-61.8945,11.1221-96.2803,0,0-45.1397,20.959-35.6543,98.2461,0,0-5.5596-64.5156-23.2227-75.6494,0,0,14.3916,68.4443-6.2158,88.42089h174.0146Z" style="fill:#006e31"/><path d="M491.81739,113.2451s-17.9903-46.1758.3271-63.5322c0,0-20.2793,6.2226-14.7197,40.9365,0,0-2.2891-64.5146-21.915-75.6494,0,0,18.9716,56.3271,5.5605,75.6494,0,0,4.252-37.9883-18.6445-59.9297,0,0,19.9531,49.7774,1.6357,69.4268,0,0-8.5039-25.8721-2.6172-38.3164,0,0-12.4287,7.2041-13.083,25.2168,0,0-7.19629-40.6084-21.2607-46.1758,0,0,16.02641,50.4326-4.5791,71.0644,0,0-17.9902-30.7832-3.9258-54.3623,0,0-24.5312,17.0293-17.6621,54.6895,0,0-20.93559-61.8945,11.1211-96.2803,0,0-45.1406,20.959-35.6543,98.2461,0,0-5.5606-64.5156-23.2227-75.6494,0,0,14.3926,68.4443-6.2148,88.42089h174.0127Z" style="fill:#006e31"/><path d="M417.24019,113.2451s-17.99019-46.1758.3272-63.5322c0,0-20.2803,6.2226-14.7197,40.9365,0,0-2.2891-64.5146-21.9141-75.6494,0,0,18.9707,56.3271,5.5605,75.6494,0,0,4.252-37.9883-18.6445-59.9297,0,0,19.9512,49.7774,1.6367,69.4268,0,0-8.5058-25.8721-2.6191-38.3164,0,0-12.4277,7.2041-13.082,25.2168,0,0-7.1973-40.6084-21.2618-46.1758,0,0,16.0274,50.4326-4.58,71.0644,0,0-17.9903-30.7832-3.9239-54.3623,0,0-24.5312,17.0293-17.664,54.6895,0,0-20.9336-61.8945,11.123-96.2803,0,0-45.1406,20.959-35.6562,98.2461,0,0-5.5586-64.5156-23.2207-75.6494,0,0,14.3906,68.4443-6.2149,88.42089h174.0117Z" style="fill:#006e31"/><path d="M9.54736,98.2451s17.98924-46.1758-.32763-63.5322c0,0,20.27977,6.2226,14.71927,40.9365,0,0,2.29-64.5146,21.9155-75.6494,0,0-18.9717,56.32711-5.5606,75.6494,0,0-4.2524-37.9883,18.6441-59.9297,0,0-19.9526,49.7774-1.6358,69.4268,0,0,8.5044-25.8721,2.6172-38.3164,0,0,12.4292,7.2041,13.0835,25.2168,0,0,7.1963-40.6084,21.2608-46.1758,0,0-16.0269,50.4326,4.5796,71.0644,0,0,17.9902-30.7832,3.9253-54.3623,0,0,24.5317,17.0293,17.663,54.6895,0,0,20.9336-61.8945-11.1215-96.2803,0,0,45.1391,20.959,35.6538,98.2461,0,0,5.56-64.5156,23.2231-75.6494,0,0-14.3921,68.4443,6.2149,88.42089H.38818Z" style="fill:#008031"/><path d="M0,11.66411c20.3101,35.1113,3.23926,85.5986,3.23926,85.5986C5.98291,82.2197,3.71191,70.4775,0,61.7891V112H57.2095c-20.607-19.9766-6.2149-88.42089-6.2149-88.42089-14.3012,9.0146-20.6679,53.0205-22.5732,69.4463C33.0454,40.82131,12.0122,15.99121,0,6.24321Z" style="fill:#008031"/><path d="M734.83978,112H800V51.86721a24.33933,24.33933,0,0,0-5.62892-5.0371c5.8887,12.4443-2.6172,38.3164-2.6172,38.3164-18.3164-19.6494,1.6367-69.4268,1.6367-69.4268-22.8965,21.9414-18.6445,59.9297-18.6445,59.9297C761.33588,56.32711,780.30658,0,780.30658,0c-13.9941,7.93951-19.1738,43.01561-20.9941,62.4941-.7441-23.1875-15.6406-27.7812-15.6406-27.7812,18.3164,17.3564.32612,63.5322.32612,63.5322Z" style="fill:#008031"/><path d="M628.30078,112H800v-2.6465c-17.15042-22.7344-3.90042-85.7744-3.90042-85.7744-14.3008,9.0146-20.666,53.0205-22.5723,69.4463,6.3946-72.2061-36.3046-92.043-36.3046-92.043,32.0546,34.3858,11.1211,96.2803,11.1211,96.2803,6.8691-37.6602-17.6622-54.6895-17.6622-54.6895,14.0645,23.5791-3.9257,54.3623-3.9257,54.3623-20.6055-20.6318-4.5801-71.0644-4.5801-71.0644-14.0645,5.5674-21.25978,46.1758-21.25978,46.1758-.65432-18.0127-13.084-25.2168-13.084-25.2168,5.88868,12.4443-2.61722,38.3164-2.61722,38.3164-18.3164-19.6494,1.6368-69.4268,1.6368-69.4268C663.95508,37.66111,668.207,75.6494,668.207,75.6494,654.79688,56.32711,673.76758,0,673.76758,0c-13.9942,7.93951-19.1738,43.01561-20.9942,62.4941-.7461-23.1875-15.6406-27.7812-15.6406-27.7812,18.3164,17.3564.32622,63.5322.32622,63.5322Z" style="fill:#008031"/><path d="M520.26759,98.2451s17.9902-46.1758-.3262-63.5322c0,0,20.2793,6.2226,14.7188,40.9365,0,0,2.289-64.5146,21.916-75.6494,0,0-18.9727,56.32711-5.5625,75.6494,0,0-4.252-37.9883,18.6445-59.9297,0,0-19.9531,49.7774-1.6348,69.4268,0,0,8.5039-25.8721,2.6153-38.3164,0,0,12.4316,7.2041,13.084,25.2168,0,0,7.1972-40.6084,21.2617-46.1758,0,0-16.02738,50.4326,4.5781,71.0644,0,0,17.9902-30.7832,3.9277-54.3623,0,0,24.5313,17.0293,17.6621,54.6895,0,0,20.9336-61.8945-11.121-96.2803,0,0,45.1386,20.959,35.6523,98.2461,0,0,5.5605-64.5156,23.2246-75.6494,0,0-14.3926,68.4443,6.21482,88.42089H511.10939Z" style="fill:#008031"/><path d="M140.0576,98.2451s17.9898-46.1758-.3271-63.5322c0,0,20.2793,6.2226,14.7187,40.9365,0,0,2.2901-64.5146,21.916-75.6494,0,0-18.9721,56.32711-5.561,75.6494,0,0-4.252-37.9883,18.644-59.9297,0,0-19.9526,49.7774-1.6357,69.4268,0,0,8.5049-25.8721,2.6172-38.3164,0,0,12.4292,7.2041,13.0835,25.2168,0,0,7.1963-40.6084,21.2612-46.1758,0,0-16.0273,50.4326,4.5791,71.0644,0,0,17.9903-30.7832,3.9258-54.3623,0,0,24.5312,17.0293,17.6626,54.6895,0,0,20.9336-61.8945-11.1211-96.2803,0,0,45.13921,20.959,35.6533,98.2461,0,0,5.5601-64.5156,23.2232-75.6494,0,0-14.3921,68.4443,6.2153,88.42089H130.8984Z" style="fill:#008031"/><path d="M179.3433,98.2451s17.9897-46.1758-.3272-63.5322c0,0,20.2793,6.2226,14.7193,40.9365,0,0,2.2895-64.5146,21.9155-75.6494,0,0-18.9717,56.32711-5.5606,75.6494,0,0-4.2524-37.9883,18.6441-59.9297,0,0-19.9527,49.7774-1.6358,69.4268,0,0,8.50441-25.8721,2.6167-38.3164,0,0,12.42971,7.2041,13.0835,25.2168,0,0,7.1968-40.6084,21.2613-46.1758,0,0-16.0274,50.4326,4.5795,71.0644,0,0,17.9903-30.7832,3.9253-54.3623,0,0,24.5318,17.0293,17.66311,54.6895,0,0,20.93309-61.8945-11.12161-96.2803,0,0,45.1397,20.959,35.6539,98.2461,0,0,5.56-64.5156,23.2231-75.6494,0,0-14.3921,68.4443,6.2153,88.42089H170.1846Z" style="fill:#008031"/><path d="M313.18259,98.2451s17.9898-46.1758-.3271-63.5322c0,0,20.2793,6.2226,14.7192,40.9365,0,0,2.2896-64.5146,21.9155-75.6494,0,0-18.9716,56.32711-5.5605,75.6494,0,0-4.2525-37.9883,18.644-59.9297,0,0-19.9526,49.7774-1.63569,69.4268,0,0,8.50439-25.8721,2.61719-38.3164,0,0,12.4292,7.2041,13.083,25.2168,0,0,7.19681-40.6084,21.2612-46.1758,0,0-16.0268,50.4326,4.5791,71.0644,0,0,17.9903-30.7832,3.9258-54.3623,0,0,24.5312,17.0293,17.6621,54.6895,0,0,20.93561-61.8945-11.1211-96.2803,0,0,45.1406,20.959,35.6543,98.2461,0,0,5.5606-64.5156,23.2227-75.6494,0,0-14.3926,68.4443,6.2148,88.42089H304.02389Z" style="fill:#008031"/><path d="M387.75979,98.2451s17.99021-46.1758-.3272-63.5322c0,0,20.2803,6.2226,14.7197,40.9365,0,0,2.2891-64.5146,21.9141-75.6494,0,0-18.9707,56.32711-5.5605,75.6494,0,0-4.252-37.9883,18.6445-59.9297,0,0-19.9512,49.7774-1.6367,69.4268,0,0,8.5058-25.8721,2.6191-38.3164,0,0,12.4277,7.2041,13.082,25.2168,0,0,7.1973-40.6084,21.2618-46.1758,0,0-16.0274,50.4326,4.58,71.0644,0,0,17.9903-30.7832,3.9239-54.3623,0,0,24.5312,17.0293,17.664,54.6895,0,0,20.9336-61.8945-11.123-96.2803,0,0,45.1406,20.959,35.6562,98.2461,0,0,5.5586-64.5156,23.2207-75.6494,0,0-14.3906,68.4443,6.2149,88.42089H378.60109Z" style="fill:#008031"/><path d="M42.8027,78.7549a6.78363,6.78363,0,1,1,.0005,9.5996A6.77375,6.77375,0,0,1,42.8027,78.7549Z" style="fill:#e5d09c"/><path d="M60.6533,60.3145a6.78363,6.78363,0,1,1,0,9.5996A6.774,6.774,0,0,1,60.6533,60.3145Z" style="fill:#e5d09c"/><path d="M52.1069,60.5986a6.78363,6.78363,0,1,1-9.5879.001A6.794,6.794,0,0,1,52.1069,60.5986Z" style="fill:#e5d09c"/><path d="M70.5249,78.4707a6.78381,6.78381,0,1,1-9.5884,0A6.794,6.794,0,0,1,70.5249,78.4707Z" style="fill:#e5d09c"/><ellipse cx="43.69958" cy="74.53563" rx="6.77955" ry="6.78715" style="fill:#e5d09c"/><ellipse cx="69.34457" cy="74.13355" rx="6.77955" ry="6.7876" style="fill:#e5d09c"/><ellipse cx="56.3213" cy="61.49635" rx="6.7793" ry="6.7876" style="fill:#e5d09c"/><ellipse cx="56.7229" cy="87.17265" rx="6.7793" ry="6.7876" style="fill:#e5d09c"/><ellipse cx="56.3213" cy="73.99925" rx="9.188" ry="9.1987" style="fill:#ff9200"/><path d="M524.22459,62.7549a6.78381,6.78381,0,1,1,0,9.5996A6.77375,6.77375,0,0,1,524.22459,62.7549Z" style="fill:#e5d09c"/><path d="M542.07619,44.31451a6.78381,6.78381,0,1,1,0,9.5996A6.77465,6.77465,0,0,1,542.07619,44.31451Z" style="fill:#e5d09c"/><path d="M533.52929,44.59861a6.78381,6.78381,0,1,1-9.5879.001A6.79239,6.79239,0,0,1,533.52929,44.59861Z" style="fill:#e5d09c"/><path d="M551.94729,62.4707a6.78381,6.78381,0,1,1-9.5879,0A6.79585,6.79585,0,0,1,551.94729,62.4707Z" style="fill:#e5d09c"/><ellipse cx="525.12159" cy="58.53563" rx="6.7783" ry="6.78715" style="fill:#e5d09c"/><ellipse cx="550.76709" cy="58.13356" rx="6.7783" ry="6.7876" style="fill:#e5d09c"/><ellipse cx="537.74361" cy="45.49635" rx="6.77835" ry="6.7876" style="fill:#e5d09c"/><ellipse cx="538.14499" cy="71.17265" rx="6.7783" ry="6.7876" style="fill:#e5d09c"/><ellipse cx="537.74361" cy="57.99925" rx="9.18845" ry="9.1987" style="fill:#ff9200"/><path d="M306.70509,71.5566a6.784,6.784,0,1,1,.001,9.5996A6.77435,6.77435,0,0,1,306.70509,71.5566Z" style="fill:#e5d09c"/><path d="M324.55659,53.11621a6.78363,6.78363,0,1,1,0,9.5996A6.77406,6.77406,0,0,1,324.55659,53.11621Z" style="fill:#e5d09c"/><path d="M316.01029,53.40041a6.78381,6.78381,0,1,1-9.5879.001A6.7933,6.7933,0,0,1,316.01029,53.40041Z" style="fill:#e5d09c"/><path d="M334.42769,71.2725a6.78381,6.78381,0,1,1-9.5879,0A6.794,6.794,0,0,1,334.42769,71.2725Z" style="fill:#e5d09c"/><ellipse cx="307.60249" cy="67.3374" rx="6.7788" ry="6.7871" style="fill:#e5d09c"/><ellipse cx="333.24759" cy="66.9353" rx="6.7788" ry="6.7876" style="fill:#e5d09c"/><ellipse cx="320.22409" cy="54.29811" rx="6.7788" ry="6.7876" style="fill:#e5d09c"/><ellipse cx="320.626" cy="79.97435" rx="6.7788" ry="6.7876" style="fill:#e5d09c"/><ellipse cx="320.22422" cy="66.80103" rx="9.18825" ry="9.19875" style="fill:#ff9200"/><path d="M146.04,57.13381a6.78226,6.78226,0,0,0-4.4404-6.3643,6.77712,6.77712,0,0,0-9.0781-8.81151,6.76937,6.76937,0,0,0-12.6406.19631,6.77719,6.77719,0,0,0-8.8003,9.0889,6.7824,6.7824,0,0,0,.1963,12.6552A6.776,6.776,0,0,0,120.354,72.71a6.76942,6.76942,0,0,0,12.6411-.1954,6.77731,6.77731,0,0,0,8.8008-9.0888A6.78636,6.78636,0,0,0,146.04,57.13381Zm-19.8027,9.0644a9.19871,9.19871,0,1,1,9.188-9.1992A9.19339,9.19339,0,0,1,126.2373,66.1982Z" style="fill:#ff3e32"/><ellipse cx="126.2373" cy="56.99925" rx="9.188" ry="9.1987" style="fill:#ff9200"/><path d="M646.25778,70.1865a4.99072,4.99072,0,0,0-3.2676-4.6836,4.98755,4.98755,0,0,0-6.6816-6.4853,4.98183,4.98183,0,0,0-9.3027.1445,4.98749,4.98749,0,0,0-6.4766,6.6895,4.99186,4.99186,0,0,0,.1445,9.3134,4.98625,4.98625,0,0,0,6.6797,6.4854,4.98164,4.98164,0,0,0,9.3028-.1436,4.98879,4.98879,0,0,0,6.4785-6.6894A4.99386,4.99386,0,0,0,646.25778,70.1865Zm-14.5742,6.6719a6.77,6.77,0,1,1,6.7617-6.7705A6.76612,6.76612,0,0,1,631.68358,76.8584Z" style="fill:#ff3e32"/><ellipse cx="631.68358" cy="70.08815" rx="6.7617" ry="6.77" style="fill:#ff9200"/><path d="M436.69139,57.23631a3.32882,3.32882,0,0,0-2.1777-3.122,3.32475,3.32475,0,0,0-4.4532-4.32131,3.31963,3.31963,0,0,0-6.1992.09661,3.32341,3.32341,0,0,0-4.3164,4.4571,3.32774,3.32774,0,0,0,.0957,6.207,3.32469,3.32469,0,0,0,4.4532,4.3223,3.31961,3.31961,0,0,0,6.19921-.0967,3.32333,3.32333,0,0,0,4.31639-4.457A3.32779,3.32779,0,0,0,436.69139,57.23631Zm-9.7129,4.4453a4.5117,4.5117,0,1,1,4.5059-4.5117A4.50858,4.50858,0,0,1,426.97849,61.6816Z" style="fill:#ff247e"/><ellipse cx="426.97851" cy="57.16991" rx="4.50585" ry="4.5117" style="fill:#ff9200"/><path d="M744.32228,80.1338a6.78329,6.78329,0,0,0-4.4414-6.3643,6.77675,6.77675,0,0,0-9.0782-8.8115,6.76792,6.76792,0,0,0-12.6386.1963,6.77695,6.77695,0,0,0-8.8008,9.0889,6.783,6.783,0,0,0,.1953,12.6552,6.77617,6.77617,0,0,0,9.0762,8.8116,6.77044,6.77044,0,0,0,12.6425-.1954,6.77727,6.77727,0,0,0,8.8008-9.0888A6.787,6.787,0,0,0,744.32228,80.1338Zm-19.8028,9.0644A9.19871,9.19871,0,1,1,733.707,79.999,9.193,9.193,0,0,1,724.51948,89.1982Z" style="fill:#feebca"/><ellipse cx="724.51949" cy="79.99925" rx="9.1875" ry="9.1987" style="fill:#ff9200"/><path d="M212.59909,75.7549a6.78363,6.78363,0,1,1,.0005,9.5996A6.77376,6.77376,0,0,1,212.59909,75.7549Z" style="fill:#e5d09c"/><path d="M230.44969,57.31451a6.78363,6.78363,0,1,1,0,9.5996A6.774,6.774,0,0,1,230.44969,57.31451Z" style="fill:#e5d09c"/><path d="M221.90329,57.59861a6.78381,6.78381,0,1,1-9.5884.001A6.794,6.794,0,0,1,221.90329,57.59861Z" style="fill:#e5d09c"/><path d="M240.32079,75.4707a6.78363,6.78363,0,1,1-9.5879,0A6.79312,6.79312,0,0,1,240.32079,75.4707Z" style="fill:#e5d09c"/><ellipse cx="213.49572" cy="71.53563" rx="6.77955" ry="6.78715" style="fill:#e5d09c"/><ellipse cx="239.14072" cy="71.13355" rx="6.77955" ry="6.7876" style="fill:#e5d09c"/><ellipse cx="226.11745" cy="58.49635" rx="6.7793" ry="6.7876" style="fill:#e5d09c"/><ellipse cx="226.519" cy="84.17265" rx="6.7793" ry="6.7876" style="fill:#e5d09c"/><ellipse cx="226.11744" cy="70.99925" rx="9.188" ry="9.1987" style="fill:#ff9200"/><circle cx="388.04602" cy="72.8506" r="2.9812" transform="translate(62.01066 295.53394) rotate(-44.96599)" style="fill:#e5d09c"/><circle cx="395.8911" cy="64.7461" r="2.98138" transform="translate(70.0329 298.70819) rotate(-44.9661)" style="fill:#e5d09c"/><circle cx="387.92114" cy="64.8711" r="2.9812" transform="translate(67.89774 293.51077) rotate(-45.03737)" style="fill:#e5d09c"/><circle cx="396.01597" cy="72.7256" r="2.98138" transform="translate(64.70083 301.52233) rotate(-45.03387)" style="fill:#e5d09c"/><circle cx="386.33324" cy="68.88645" r="2.9795" style="fill:#e5d09c"/><circle cx="397.60437" cy="68.71" r="2.97975" style="fill:#e5d09c"/><circle cx="391.88052" cy="63.15623" r="2.97975" style="fill:#e5d09c"/><ellipse cx="392.05697" cy="74.4404" rx="2.97925" ry="2.9834" style="fill:#e5d09c"/><ellipse cx="391.88049" cy="68.65138" rx="4.0383" ry="4.04295" style="fill:#ff9200"/><circle cx="79.49717" cy="48.19921" r="2.98123" transform="translate(-10.81065 70.27774) rotate(-44.96671)" style="fill:#e5d09c"/><circle cx="87.3425" cy="40.09476" r="2.9812" transform="translate(-2.79023 73.44731) rotate(-44.96399)" style="fill:#e5d09c"/><circle cx="79.37255" cy="40.21976" r="2.98137" transform="translate(-5.17621 67.95309) rotate(-45.03261)" style="fill:#e5d09c"/><circle cx="87.46717" cy="48.07421" r="2.98137" transform="translate(-8.35852 75.98606) rotate(-45.03397)" style="fill:#e5d09c"/><circle cx="77.78457" cy="44.23515" r="2.97975" style="fill:#e5d09c"/><circle cx="89.05558" cy="44.0586" r="2.97975" style="fill:#e5d09c"/><circle cx="83.33175" cy="38.50491" r="2.9795" style="fill:#e5d09c"/><ellipse cx="83.50818" cy="49.78911" rx="2.97925" ry="2.9834" style="fill:#e5d09c"/><ellipse cx="83.33165" cy="44" rx="4.0383" ry="4.043" style="fill:#ff9200"/><circle cx="580.40724" cy="67.94725" r="2.98102" transform="translate(121.70222 429.99573) rotate(-44.96059)" style="fill:#e5d09c"/><circle cx="588.25194" cy="59.84275" r="2.98173" transform="translate(129.81148 433.27794) rotate(-44.97418)" style="fill:#e5d09c"/><circle cx="580.28224" cy="59.96775" r="2.98102" transform="translate(127.81032 428.19699) rotate(-45.03941)" style="fill:#e5d09c"/><circle cx="588.37694" cy="67.82225" r="2.98173" transform="translate(124.53994 436.11903) rotate(-45.02582)" style="fill:#e5d09c"/><circle cx="578.69384" cy="63.98315" r="2.9795" style="fill:#e5d09c"/><circle cx="589.96581" cy="63.8066" r="2.98045" style="fill:#e5d09c"/><circle cx="584.24169" cy="58.25291" r="2.9795" style="fill:#e5d09c"/><ellipse cx="584.41799" cy="69.5371" rx="2.9785" ry="2.9834" style="fill:#e5d09c"/><circle cx="584.24219" cy="63.74803" r="4.0391" style="fill:#ff9200"/><rect x="0.02002" y="111" width="799.97998" height="146" style="fill:url(#a)"/><rect x="1.66748" y="111" width="83.41112" height="20" style="fill:#ccc"/><rect x="0.02002" y="111" width="81.05518" height="20" style="fill:#999"/><rect x="0.02002" y="111" width="83.05708" height="20" style="fill:url(#b)"/><rect x="89.187" y="111" width="83.4111" height="20" style="fill:#ccc"/><rect x="85.1836" y="111" width="83.4111" height="20" style="fill:#999"/><rect x="87.1851" y="111" width="83.4116" height="20" style="fill:url(#c)"/><rect x="176.6431" y="111" width="83.4111" height="20" style="fill:#ccc"/><rect x="172.6392" y="111" width="83.4116" height="20" style="fill:#999"/><rect x="174.6411" y="111" width="83.4116" height="20" style="fill:url(#d)"/><rect x="264.16259" y="111" width="83.4111" height="20" style="fill:#ccc"/><rect x="260.15919" y="111" width="83.4111" height="20" style="fill:#999"/><rect x="262.16059" y="111" width="83.4117" height="20" style="fill:url(#e)"/><rect x="351.71879" y="111" width="83.4111" height="20" style="fill:#ccc"/><rect x="347.71529" y="111" width="83.41071" height="20" style="fill:#999"/><rect x="349.71679" y="111" width="83.4111" height="20" style="fill:url(#f)"/><rect x="439.23929" y="111" width="83.4101" height="20" style="fill:#ccc"/><rect x="435.23539" y="111" width="83.4101" height="20" style="fill:#999"/><rect x="437.23729" y="111" width="83.4102" height="20" style="fill:url(#g)"/><rect x="526.69429" y="111" width="83.4121" height="20" style="fill:#ccc"/><rect x="522.69039" y="111" width="83.4121" height="20" style="fill:#999"/><rect x="524.69239" y="111" width="83.4121" height="20" style="fill:url(#h)"/><rect x="614.21388" y="111" width="83.41212" height="20" style="fill:#ccc"/><rect x="610.21" y="111" width="83.41208" height="20" style="fill:#999"/><rect x="612.21188" y="111" width="83.41212" height="20" style="fill:url(#i)"/><rect x="701.67578" y="111" width="83.4111" height="20" style="fill:#ccc"/><rect x="697.67188" y="111" width="83.41112" height="20" style="fill:#999"/><rect x="699.67378" y="111" width="83.41122" height="20" style="fill:url(#j)"/><rect x="789.19628" y="111" width="10.80372" height="20" style="fill:#ccc"/><rect x="785.19238" y="111" width="14.80762" height="20" style="fill:#999"/><rect x="787.19428" y="111" width="12.80572" height="20" style="fill:url(#k)"/><path d="M1599.16129,127v-6.9248l-4.54792-6.8301s-17.9892-46.1758.3282-63.5322c0,0-14.8955,4.5928-15.6416,27.7803-1.8213-19.4786-7-54.5537-20.9932-62.4932,0,0,18.9717,56.3271,5.5606,75.6494,0,0,4.25192-37.9883-18.6446-59.9297,0,0,19.9531,49.7774,1.6358,69.4268,0,0-8.5039-25.8721-2.6172-38.3164,0,0-12.4287,7.2041-13.083,25.2168,0,0-7.1963-40.6084-21.2608-46.1758,0,0,16.0264,50.4326-4.58,71.0644,0,0-17.99028-30.7832-3.9249-54.3623,0,0-24.5322,17.0293-17.663,54.6895,0,0-20.9336-61.8945,11.1211-96.2803,0,0-42.6993,19.8369-36.3028,92.0459-1.9053-16.4238-8.2724-60.4336-22.5742-69.4492,0,0,14.3926,68.4443-6.2148,88.42089Z" style="fill:#006e31"/><path d="M1599.16129,127V106.165c-3.29392-12.6484-9.25592-42.7353,0-68.62889V25.77341c-11.99122,12.0489-27.45212,36.7491-23.42192,82.252-1.9052-16.4258-8.2715-60.4317-22.5732-69.4463,0,0,14.3926,68.4443-6.21488,88.42089Z" style="fill:#006e31"/><path d="M869.32149,127h-65.1602V66.8672a24.33928,24.33928,0,0,1,5.6289-5.0371c-5.88867,12.4443,2.6172,38.3164,2.6172,38.3164,18.3164-19.6494-1.6367-69.4268-1.6367-69.4268,22.8965,21.9414,18.6445,59.9297,18.6445,59.9297C842.82539,71.3271,823.85469,15,823.85469,15c13.9941,7.93951,19.1738,43.01561,20.9941,62.4941.7441-23.1875,15.6406-27.7812,15.6406-27.7812-18.3164,17.3564-.3261,63.5322-.3261,63.5322Z" style="fill:#006e31"/><path d="M975.86048,127H804.16129v-2.6465c17.1504-22.7344,3.90039-85.7744,3.90039-85.7744,14.30081,9.0146,20.666,53.0205,22.57231,69.4463-6.3946-72.2061,36.3046-92.043,36.3046-92.043-32.0546,34.3858-11.121,96.2803-11.121,96.2803-6.8692-37.6602,17.6621-54.6895,17.6621-54.6895-14.0645,23.5791,3.9257,54.3623,3.9257,54.3623,20.6055-20.6318,4.5801-71.0644,4.5801-71.0644,14.0645,5.5674,21.2598,46.1758,21.2598,46.1758.6543-18.0127,13.084-25.2168,13.084-25.2168-5.8887,12.4443,2.6172,38.3164,2.6172,38.3164,18.3164-19.6494-1.6368-69.4268-1.6368-69.4268,22.8965,21.9414,18.6446,59.9297,18.6446,59.9297C949.36438,71.3271,930.39368,15,930.39368,15c13.9942,7.93951,19.1739,43.01561,20.9942,62.4941.7461-23.1875,15.6406-27.7812,15.6406-27.7812-18.3164,17.3564-.3262,63.5322-.3262,63.5322Z" style="fill:#006e31"/><path d="M1083.89368,113.2451s-17.9902-46.1758.3262-63.5322c0,0-20.2793,6.2226-14.7188,40.9365,0,0-2.289-64.5146-21.916-75.6494,0,0,18.9727,56.3271,5.5625,75.6494,0,0,4.252-37.9883-18.6445-59.9297,0,0,19.9531,49.7774,1.6348,69.4268,0,0-8.5039-25.8721-2.6153-38.3164,0,0-12.4316,7.2041-13.084,25.2168,0,0-7.1972-40.6084-21.2617-46.1758,0,0,16.02741,50.4326-4.5781,71.0644,0,0-17.9902-30.7832-3.9277-54.3623,0,0-24.5313,17.0293-17.6621,54.6895,0,0-20.9336-61.8945,11.1211-96.2803,0,0-45.1387,20.959-35.6524,98.2461,0,0-5.5605-64.5156-23.2246-75.6494,0,0,14.3926,68.4443-6.2148,88.42089h174.01359Z" style="fill:#006e31"/><path d="M1464.10367,113.2451s-17.9903-46.1758.3271-63.5322c0,0-20.2793,6.2226-14.7187,40.9365,0,0-2.2901-64.5146-21.916-75.6494,0,0,18.9716,56.3271,5.5605,75.6494,0,0,4.252-37.9883-18.6435-59.9297,0,0,19.9521,49.7774,1.6357,69.4268,0,0-8.5049-25.8721-2.6172-38.3164,0,0-12.4297,7.2041-13.084,25.2168,0,0-7.19628-40.6084-21.2607-46.1758,0,0,16.0273,50.4326-4.5791,71.0644,0,0-17.9902-30.7832-3.9258-54.3623,0,0-24.5312,17.0293-17.6631,54.6895,0,0-20.93359-61.8945,11.1211-96.2803,0,0-45.13869,20.959-35.6533,98.2461,0,0-5.5596-64.5156-23.2227-75.6494,0,0,14.3916,68.4443-6.2158,88.42089h174.0147Z" style="fill:#006e31"/><path d="M1424.81757,113.2451s-17.98928-46.1758.3271-63.5322c0,0-20.2793,6.2226-14.7188,40.9365,0,0-2.29-64.5146-21.916-75.6494,0,0,18.9717,56.3271,5.5606,75.6494,0,0,4.2529-37.9883-18.6436-59.9297,0,0,19.9522,49.7774,1.6358,69.4268,0,0-8.5049-25.8721-2.6172-38.3164,0,0-12.4297,7.2041-13.083,25.2168,0,0-7.1973-40.6084-21.2617-46.1758,0,0,16.0273,50.4326-4.5791,71.0644,0,0-17.9903-30.7832-3.9258-54.3623,0,0-24.5313,17.0293-17.6631,54.6895,0,0-20.9326-61.8945,11.1221-96.2803,0,0-45.1397,20.959-35.6543,98.2461,0,0-5.5596-64.5156-23.2227-75.6494,0,0,14.3916,68.4443-6.2158,88.42089h174.0146Z" style="fill:#006e31"/><path d="M1290.97867,113.2451s-17.9903-46.1758.3271-63.5322c0,0-20.2793,6.2226-14.7197,40.9365,0,0-2.2891-64.5146-21.915-75.6494,0,0,18.9716,56.3271,5.5605,75.6494,0,0,4.252-37.9883-18.6445-59.9297,0,0,19.9531,49.7774,1.6357,69.4268,0,0-8.5039-25.8721-2.6172-38.3164,0,0-12.4287,7.2041-13.083,25.2168,0,0-7.19629-40.6084-21.2607-46.1758,0,0,16.02641,50.4326-4.5791,71.0644,0,0-17.9902-30.7832-3.9258-54.3623,0,0-24.5312,17.0293-17.6621,54.6895,0,0-20.93559-61.8945,11.1211-96.2803,0,0-45.1406,20.959-35.6543,98.2461,0,0-5.5606-64.5156-23.2227-75.6494,0,0,14.3926,68.4443-6.2148,88.42089h174.01269Z" style="fill:#006e31"/><path d="M1216.40147,113.2451s-17.99019-46.1758.3272-63.5322c0,0-20.2803,6.2226-14.7197,40.9365,0,0-2.2891-64.5146-21.9141-75.6494,0,0,18.9707,56.3271,5.5605,75.6494,0,0,4.252-37.9883-18.6445-59.9297,0,0,19.9512,49.7774,1.6367,69.4268,0,0-8.5058-25.8721-2.6191-38.3164,0,0-12.4277,7.2041-13.082,25.2168,0,0-7.1973-40.6084-21.2618-46.1758,0,0,16.0274,50.4326-4.58,71.0644,0,0-17.9903-30.7832-3.9239-54.3623,0,0-24.5312,17.0293-17.664,54.6895,0,0-20.9336-61.8945,11.123-96.2803,0,0-45.1406,20.959-35.6562,98.2461,0,0-5.5586-64.5156-23.2207-75.6494,0,0,14.3906,68.4443-6.2149,88.42089h174.01169Z" style="fill:#006e31"/><path d="M808.70865,98.2451s17.98924-46.1758-.32763-63.5322c0,0,20.27977,6.2226,14.71927,40.9365,0,0,2.29-64.5146,21.9155-75.6494,0,0-18.9717,56.32711-5.5606,75.6494,0,0-4.2524-37.9883,18.6441-59.9297,0,0-19.9526,49.7774-1.6358,69.4268,0,0,8.5044-25.8721,2.6172-38.3164,0,0,12.4292,7.2041,13.0835,25.2168,0,0,7.1963-40.6084,21.2608-46.1758,0,0-16.0269,50.4326,4.5796,71.0644,0,0,17.9902-30.7832,3.9253-54.3623,0,0,24.5317,17.0293,17.663,54.6895,0,0,20.9336-61.8945-11.1215-96.2803,0,0,45.1391,20.959,35.6538,98.2461,0,0,5.56-64.5156,23.2231-75.6494,0,0-14.3921,68.4443,6.2149,88.42089H799.54947Z" style="fill:#008031"/><path d="M799.16129,11.66411c20.3101,35.1113,3.23926,85.5986,3.23926,85.5986,2.74365-15.043.47265-26.7852-3.23926-35.4736V112h57.2095c-20.607-19.9766-6.2149-88.42089-6.2149-88.42089-14.3012,9.0146-20.6679,53.0205-22.5732,69.4463,4.624-52.2041-16.4092-77.0342-28.4214-86.7822Z" style="fill:#008031"/><path d="M1534.00107,112h65.16022V51.86721a24.33933,24.33933,0,0,0-5.62892-5.0371c5.8887,12.4443-2.6172,38.3164-2.6172,38.3164-18.3164-19.6494,1.6367-69.4268,1.6367-69.4268-22.8965,21.9414-18.6445,59.9297-18.6445,59.9297C1560.49717,56.32711,1579.46787,0,1579.46787,0c-13.9941,7.93951-19.1738,43.01561-20.9941,62.4941-.7441-23.1875-15.6406-27.7812-15.6406-27.7812,18.3164,17.3564.32612,63.5322.32612,63.5322Z" style="fill:#008031"/><path d="M1427.46207,112h171.69922v-2.6465c-17.15042-22.7344-3.90042-85.7744-3.90042-85.7744-14.3008,9.0146-20.666,53.0205-22.5723,69.4463,6.3946-72.2061-36.3046-92.043-36.3046-92.043,32.0546,34.3858,11.1211,96.2803,11.1211,96.2803,6.8691-37.6602-17.6622-54.6895-17.6622-54.6895,14.0645,23.5791-3.9257,54.3623-3.9257,54.3623-20.6055-20.6318-4.5801-71.0644-4.5801-71.0644-14.0645,5.5674-21.25978,46.1758-21.25978,46.1758-.65432-18.0127-13.084-25.2168-13.084-25.2168,5.88868,12.4443-2.61722,38.3164-2.61722,38.3164-18.3164-19.6494,1.6368-69.4268,1.6368-69.4268-22.8965,21.9414-18.64458,59.9297-18.64458,59.9297C1453.95817,56.32711,1472.92887,0,1472.92887,0c-13.9942,7.93951-19.1738,43.01561-20.9942,62.4941-.7461-23.1875-15.6406-27.7812-15.6406-27.7812,18.3164,17.3564.32622,63.5322.32622,63.5322Z" style="fill:#008031"/><path d="M1319.42887,98.2451s17.9902-46.1758-.3262-63.5322c0,0,20.2793,6.2226,14.7188,40.9365,0,0,2.289-64.5146,21.916-75.6494,0,0-18.9727,56.32711-5.5625,75.6494,0,0-4.252-37.9883,18.6445-59.9297,0,0-19.9531,49.7774-1.6348,69.4268,0,0,8.5039-25.8721,2.6153-38.3164,0,0,12.4316,7.2041,13.084,25.2168,0,0,7.1972-40.6084,21.2617-46.1758,0,0-16.02739,50.4326,4.5781,71.0644,0,0,17.9902-30.7832,3.9277-54.3623,0,0,24.5313,17.0293,17.6621,54.6895,0,0,20.9336-61.8945-11.121-96.2803,0,0,45.1386,20.959,35.6523,98.2461,0,0,5.5605-64.5156,23.2246-75.6494,0,0-14.3926,68.4443,6.21482,88.42089H1310.27067Z" style="fill:#008031"/><path d="M939.21888,98.2451s17.9898-46.1758-.3271-63.5322c0,0,20.2793,6.2226,14.7187,40.9365,0,0,2.2901-64.5146,21.916-75.6494,0,0-18.9721,56.32711-5.561,75.6494,0,0-4.252-37.9883,18.644-59.9297,0,0-19.9526,49.7774-1.6357,69.4268,0,0,8.5049-25.8721,2.6172-38.3164,0,0,12.4292,7.2041,13.0835,25.2168,0,0,7.1963-40.6084,21.2612-46.1758,0,0-16.0273,50.4326,4.5791,71.0644,0,0,17.9903-30.7832,3.9258-54.3623,0,0,24.5312,17.0293,17.6626,54.6895,0,0,20.9336-61.8945-11.1211-96.2803,0,0,45.13921,20.959,35.6533,98.2461,0,0,5.5601-64.5156,23.2232-75.6494,0,0-14.3921,68.4443,6.2153,88.42089H930.05968Z" style="fill:#008031"/><path d="M978.50458,98.2451s17.9897-46.1758-.3272-63.5322c0,0,20.2793,6.2226,14.7193,40.9365,0,0,2.2895-64.5146,21.9155-75.6494,0,0-18.9717,56.32711-5.5606,75.6494,0,0-4.2524-37.9883,18.6441-59.9297,0,0-19.9527,49.7774-1.6358,69.4268,0,0,8.50441-25.8721,2.6167-38.3164,0,0,12.42971,7.2041,13.0835,25.2168,0,0,7.1968-40.6084,21.2613-46.1758,0,0-16.0274,50.4326,4.5795,71.0644,0,0,17.9903-30.7832,3.9253-54.3623,0,0,24.5318,17.0293,17.66311,54.6895,0,0,20.93309-61.8945-11.12161-96.2803,0,0,45.1397,20.959,35.6539,98.2461,0,0,5.56-64.5156,23.2231-75.6494,0,0-14.3921,68.4443,6.2153,88.42089H969.34588Z" style="fill:#008031"/><path d="M1112.34388,98.2451s17.9898-46.1758-.3271-63.5322c0,0,20.2793,6.2226,14.7192,40.9365,0,0,2.2896-64.5146,21.9155-75.6494,0,0-18.9716,56.32711-5.5605,75.6494,0,0-4.2525-37.9883,18.644-59.9297,0,0-19.9526,49.7774-1.63569,69.4268,0,0,8.50439-25.8721,2.61719-38.3164,0,0,12.4292,7.2041,13.083,25.2168,0,0,7.19681-40.6084,21.2612-46.1758,0,0-16.0268,50.4326,4.5791,71.0644,0,0,17.9903-30.7832,3.9258-54.3623,0,0,24.5312,17.0293,17.6621,54.6895,0,0,20.93561-61.8945-11.1211-96.2803,0,0,45.1406,20.959,35.6543,98.2461,0,0,5.5606-64.5156,23.2227-75.6494,0,0-14.3926,68.4443,6.2148,88.42089h-174.0132Z" style="fill:#008031"/><path d="M1186.92108,98.2451s17.99021-46.1758-.3272-63.5322c0,0,20.2803,6.2226,14.7197,40.9365,0,0,2.2891-64.5146,21.9141-75.6494,0,0-18.9707,56.32711-5.5605,75.6494,0,0-4.252-37.9883,18.6445-59.9297,0,0-19.9512,49.7774-1.6367,69.4268,0,0,8.5058-25.8721,2.6191-38.3164,0,0,12.4277,7.2041,13.082,25.2168,0,0,7.1973-40.6084,21.2618-46.1758,0,0-16.0274,50.4326,4.58,71.0644,0,0,17.9903-30.7832,3.9239-54.3623,0,0,24.5312,17.0293,17.664,54.6895,0,0,20.9336-61.8945-11.123-96.2803,0,0,45.1406,20.959,35.6562,98.2461,0,0,5.5586-64.5156,23.2207-75.6494,0,0-14.3906,68.4443,6.2149,88.42089h-174.0122Z" style="fill:#008031"/><path d="M841.964,78.7549a6.78363,6.78363,0,1,1,.0005,9.5996A6.77375,6.77375,0,0,1,841.964,78.7549Z" style="fill:#e5d09c"/><path d="M859.81459,60.3145a6.78363,6.78363,0,1,1,0,9.5996A6.774,6.774,0,0,1,859.81459,60.3145Z" style="fill:#e5d09c"/><path d="M851.26819,60.5986a6.78363,6.78363,0,1,1-9.5879.001A6.794,6.794,0,0,1,851.26819,60.5986Z" style="fill:#e5d09c"/><path d="M869.68619,78.4707a6.78381,6.78381,0,1,1-9.5884,0A6.794,6.794,0,0,1,869.68619,78.4707Z" style="fill:#e5d09c"/><ellipse cx="842.86086" cy="74.53563" rx="6.77955" ry="6.78715" style="fill:#e5d09c"/><ellipse cx="868.50586" cy="74.13355" rx="6.77955" ry="6.7876" style="fill:#e5d09c"/><ellipse cx="855.48259" cy="61.49635" rx="6.7793" ry="6.7876" style="fill:#e5d09c"/><ellipse cx="855.88419" cy="87.17265" rx="6.7793" ry="6.7876" style="fill:#e5d09c"/><ellipse cx="855.48259" cy="73.99925" rx="9.188" ry="9.1987" style="fill:#ff9200"/><path d="M1323.38587,62.7549a6.78381,6.78381,0,1,1,0,9.5996A6.77375,6.77375,0,0,1,1323.38587,62.7549Z" style="fill:#e5d09c"/><path d="M1341.23747,44.31451a6.78381,6.78381,0,1,1,0,9.5996A6.77465,6.77465,0,0,1,1341.23747,44.31451Z" style="fill:#e5d09c"/><path d="M1332.69057,44.59861a6.78381,6.78381,0,1,1-9.5879.001A6.7924,6.7924,0,0,1,1332.69057,44.59861Z" style="fill:#e5d09c"/><path d="M1351.10857,62.4707a6.78381,6.78381,0,1,1-9.5879,0A6.79585,6.79585,0,0,1,1351.10857,62.4707Z" style="fill:#e5d09c"/><ellipse cx="1324.28287" cy="58.53563" rx="6.7783" ry="6.78715" style="fill:#e5d09c"/><ellipse cx="1349.92837" cy="58.13356" rx="6.7783" ry="6.7876" style="fill:#e5d09c"/><ellipse cx="1336.9049" cy="45.49635" rx="6.77835" ry="6.7876" style="fill:#e5d09c"/><ellipse cx="1337.30627" cy="71.17265" rx="6.7783" ry="6.7876" style="fill:#e5d09c"/><ellipse cx="1336.9049" cy="57.99925" rx="9.18845" ry="9.1987" style="fill:#ff9200"/><path d="M1105.86638,71.5566a6.784,6.784,0,1,1,.001,9.5996A6.77435,6.77435,0,0,1,1105.86638,71.5566Z" style="fill:#e5d09c"/><path d="M1123.71788,53.11621a6.78363,6.78363,0,1,1,0,9.5996A6.77406,6.77406,0,0,1,1123.71788,53.11621Z" style="fill:#e5d09c"/><path d="M1115.17158,53.40041a6.78381,6.78381,0,1,1-9.5879.001A6.7933,6.7933,0,0,1,1115.17158,53.40041Z" style="fill:#e5d09c"/><path d="M1133.589,71.2725a6.78381,6.78381,0,1,1-9.5879,0A6.794,6.794,0,0,1,1133.589,71.2725Z" style="fill:#e5d09c"/><ellipse cx="1106.76378" cy="67.3374" rx="6.7788" ry="6.7871" style="fill:#e5d09c"/><ellipse cx="1132.40888" cy="66.9353" rx="6.7788" ry="6.7876" style="fill:#e5d09c"/><ellipse cx="1119.38538" cy="54.29811" rx="6.7788" ry="6.7876" style="fill:#e5d09c"/><ellipse cx="1119.78728" cy="79.97435" rx="6.7788" ry="6.7876" style="fill:#e5d09c"/><ellipse cx="1119.3855" cy="66.80103" rx="9.18825" ry="9.19875" style="fill:#ff9200"/><path d="M945.20129,57.13381a6.78226,6.78226,0,0,0-4.4404-6.3643,6.77712,6.77712,0,0,0-9.0781-8.81151,6.76937,6.76937,0,0,0-12.6406.19631,6.77719,6.77719,0,0,0-8.8003,9.0889,6.7824,6.7824,0,0,0,.1963,12.6552,6.776,6.776,0,0,0,9.0771,8.8116,6.76942,6.76942,0,0,0,12.6411-.1954,6.77731,6.77731,0,0,0,8.8008-9.0888A6.78636,6.78636,0,0,0,945.20129,57.13381Zm-19.8027,9.0644a9.19871,9.19871,0,1,1,9.188-9.1992A9.19339,9.19339,0,0,1,925.39858,66.1982Z" style="fill:#ff3e32"/><ellipse cx="925.39858" cy="56.99925" rx="9.188" ry="9.1987" style="fill:#ff9200"/><path d="M1445.41907,70.1865a4.99072,4.99072,0,0,0-3.2676-4.6836,4.98755,4.98755,0,0,0-6.6816-6.4853,4.98183,4.98183,0,0,0-9.3027.1445,4.98749,4.98749,0,0,0-6.4766,6.6895,4.99186,4.99186,0,0,0,.1445,9.3134,4.98625,4.98625,0,0,0,6.6797,6.4854,4.98164,4.98164,0,0,0,9.3028-.1436,4.98879,4.98879,0,0,0,6.4785-6.6894A4.99386,4.99386,0,0,0,1445.41907,70.1865Zm-14.5742,6.6719a6.77,6.77,0,1,1,6.7617-6.7705A6.76612,6.76612,0,0,1,1430.84487,76.8584Z" style="fill:#ff3e32"/><ellipse cx="1430.84487" cy="70.08815" rx="6.7617" ry="6.77" style="fill:#ff9200"/><path d="M1235.85268,57.23631a3.32882,3.32882,0,0,0-2.1777-3.122,3.32475,3.32475,0,0,0-4.4532-4.32131,3.31963,3.31963,0,0,0-6.1992.09661,3.32341,3.32341,0,0,0-4.3164,4.4571,3.32774,3.32774,0,0,0,.0957,6.207,3.32469,3.32469,0,0,0,4.4532,4.3223,3.31961,3.31961,0,0,0,6.19921-.0967,3.32333,3.32333,0,0,0,4.31639-4.457A3.32779,3.32779,0,0,0,1235.85268,57.23631Zm-9.7129,4.4453a4.5117,4.5117,0,1,1,4.5059-4.5117A4.50858,4.50858,0,0,1,1226.13978,61.6816Z" style="fill:#ff247e"/><ellipse cx="1226.1398" cy="57.16991" rx="4.50585" ry="4.5117" style="fill:#ff9200"/><path d="M1543.48357,80.1338a6.78329,6.78329,0,0,0-4.4414-6.3643,6.77675,6.77675,0,0,0-9.0782-8.8115,6.76792,6.76792,0,0,0-12.6386.1963,6.77695,6.77695,0,0,0-8.8008,9.0889,6.783,6.783,0,0,0,.1953,12.6552,6.77617,6.77617,0,0,0,9.0762,8.8116,6.77044,6.77044,0,0,0,12.6425-.1954,6.77727,6.77727,0,0,0,8.8008-9.0888A6.787,6.787,0,0,0,1543.48357,80.1338Zm-19.8028,9.0644a9.19871,9.19871,0,1,1,9.18752-9.1992A9.193,9.193,0,0,1,1523.68077,89.1982Z" style="fill:#feebca"/><ellipse cx="1523.68078" cy="79.99925" rx="9.1875" ry="9.1987" style="fill:#ff9200"/><path d="M1011.76038,75.7549a6.78363,6.78363,0,1,1,.0005,9.5996A6.77376,6.77376,0,0,1,1011.76038,75.7549Z" style="fill:#e5d09c"/><path d="M1029.611,57.31451a6.78363,6.78363,0,1,1,0,9.5996A6.774,6.774,0,0,1,1029.611,57.31451Z" style="fill:#e5d09c"/><path d="M1021.06458,57.59861a6.78381,6.78381,0,1,1-9.5884.001A6.794,6.794,0,0,1,1021.06458,57.59861Z" style="fill:#e5d09c"/><path d="M1039.48208,75.4707a6.78363,6.78363,0,1,1-9.5879,0A6.79312,6.79312,0,0,1,1039.48208,75.4707Z" style="fill:#e5d09c"/><ellipse cx="1012.65701" cy="71.53563" rx="6.77955" ry="6.78715" style="fill:#e5d09c"/><ellipse cx="1038.302" cy="71.13355" rx="6.77955" ry="6.7876" style="fill:#e5d09c"/><ellipse cx="1025.27873" cy="58.49635" rx="6.7793" ry="6.7876" style="fill:#e5d09c"/><ellipse cx="1025.68028" cy="84.17265" rx="6.7793" ry="6.7876" style="fill:#e5d09c"/><ellipse cx="1025.27873" cy="70.99925" rx="9.188" ry="9.1987" style="fill:#ff9200"/><circle cx="1187.2073" cy="72.8506" r="2.9812" transform="translate(295.74427 860.29079) rotate(-44.96599)" style="fill:#e5d09c"/><circle cx="1195.05238" cy="64.7461" r="2.98138" transform="translate(303.76754 863.46607) rotate(-44.9661)" style="fill:#e5d09c"/><circle cx="1187.08243" cy="64.8711" r="2.9812" transform="translate(302.33537 858.9716) rotate(-45.03737)" style="fill:#e5d09c"/><circle cx="1195.17726" cy="72.7256" r="2.98138" transform="translate(299.10393 866.94867) rotate(-45.03387)" style="fill:#e5d09c"/><circle cx="1185.49453" cy="68.88645" r="2.9795" style="fill:#e5d09c"/><circle cx="1196.76565" cy="68.71" r="2.97975" style="fill:#e5d09c"/><circle cx="1191.0418" cy="63.15623" r="2.97975" style="fill:#e5d09c"/><ellipse cx="1191.21825" cy="74.4404" rx="2.97925" ry="2.9834" style="fill:#e5d09c"/><ellipse cx="1191.04178" cy="68.65138" rx="4.0383" ry="4.04295" style="fill:#ff9200"/><circle cx="878.65846" cy="48.19921" r="2.98123" transform="translate(222.93002 635.04166) rotate(-44.96671)" style="fill:#e5d09c"/><circle cx="886.50379" cy="40.09476" r="2.9812" transform="translate(230.92362 638.18438) rotate(-44.96399)" style="fill:#e5d09c"/><circle cx="878.53384" cy="40.21976" r="2.98137" transform="translate(229.21446 633.36702) rotate(-45.03261)" style="fill:#e5d09c"/><circle cx="886.62846" cy="48.07421" r="2.98137" transform="translate(226.04556 641.41339) rotate(-45.03397)" style="fill:#e5d09c"/><circle cx="876.94586" cy="44.23515" r="2.97975" style="fill:#e5d09c"/><circle cx="888.21686" cy="44.0586" r="2.97975" style="fill:#e5d09c"/><circle cx="882.49304" cy="38.50491" r="2.9795" style="fill:#e5d09c"/><ellipse cx="882.66946" cy="49.78911" rx="2.97925" ry="2.9834" style="fill:#e5d09c"/><ellipse cx="882.49294" cy="44" rx="4.0383" ry="4.043" style="fill:#ff9200"/><circle cx="1379.56852" cy="67.94725" r="2.98102" transform="translate(355.38256 994.69924) rotate(-44.96059)" style="fill:#e5d09c"/><circle cx="1387.41322" cy="59.84275" r="2.98173" transform="translate(363.62584 998.11563) rotate(-44.97418)" style="fill:#e5d09c"/><circle cx="1379.44352" cy="59.96775" r="2.98102" transform="translate(362.26809 993.67794) rotate(-45.03941)" style="fill:#e5d09c"/><circle cx="1387.53822" cy="67.82225" r="2.98173" transform="translate(358.86353 1001.46596) rotate(-45.02582)" style="fill:#e5d09c"/><circle cx="1377.85512" cy="63.98315" r="2.9795" style="fill:#e5d09c"/><circle cx="1389.1271" cy="63.8066" r="2.98045" style="fill:#e5d09c"/><circle cx="1383.40297" cy="58.25291" r="2.9795" style="fill:#e5d09c"/><ellipse cx="1383.57928" cy="69.5371" rx="2.9785" ry="2.9834" style="fill:#e5d09c"/><circle cx="1383.40347" cy="63.74803" r="4.0391" style="fill:#ff9200"/><rect x="799.18131" y="111" width="799.97998" height="146" style="fill:url(#l)"/><rect x="800.82877" y="111" width="83.41112" height="20" style="fill:#ccc"/><rect x="799.18131" y="111" width="81.05518" height="20" style="fill:#999"/><rect x="799.18131" y="111" width="83.05708" height="20" style="fill:url(#m)"/><rect x="888.34829" y="111" width="83.4111" height="20" style="fill:#ccc"/><rect x="884.34489" y="111" width="83.4111" height="20" style="fill:#999"/><rect x="886.34639" y="111" width="83.4116" height="20" style="fill:url(#n)"/><rect x="975.80438" y="111" width="83.4111" height="20" style="fill:#ccc"/><rect x="971.80048" y="111" width="83.4116" height="20" style="fill:#999"/><rect x="973.80238" y="111" width="83.4116" height="20" style="fill:url(#o)"/><rect x="1063.32388" y="111" width="83.4111" height="20" style="fill:#ccc"/><rect x="1059.32048" y="111" width="83.4111" height="20" style="fill:#999"/><rect x="1061.32188" y="111" width="83.4117" height="20" style="fill:url(#p)"/><rect x="1150.88008" y="111" width="83.4111" height="20" style="fill:#ccc"/><rect x="1146.87658" y="111" width="83.41071" height="20" style="fill:#999"/><rect x="1148.87808" y="111" width="83.4111" height="20" style="fill:url(#q)"/><rect x="1238.40057" y="111" width="83.4101" height="20" style="fill:#ccc"/><rect x="1234.39668" y="111" width="83.4101" height="20" style="fill:#999"/><rect x="1236.39857" y="111" width="83.4102" height="20" style="fill:url(#r)"/><rect x="1325.85557" y="111" width="83.4121" height="20" style="fill:#ccc"/><rect x="1321.85167" y="111" width="83.4121" height="20" style="fill:#999"/><rect x="1323.85367" y="111" width="83.4121" height="20" style="fill:url(#s)"/><rect x="1413.37517" y="111" width="83.41212" height="20" style="fill:#ccc"/><rect x="1409.37129" y="111" width="83.41208" height="20" style="fill:#999"/><rect x="1411.37317" y="111" width="83.41212" height="20" style="fill:url(#t)"/><rect x="1500.83707" y="111" width="83.4111" height="20" style="fill:#ccc"/><rect x="1496.83317" y="111" width="83.41112" height="20" style="fill:#999"/><rect x="1498.83507" y="111" width="83.41122" height="20" style="fill:url(#u)"/><rect x="1588.35757" y="111" width="10.80372" height="20" style="fill:#ccc"/><rect x="1584.35367" y="111" width="14.80762" height="20" style="fill:#999"/><rect x="1586.35557" y="111" width="12.80572" height="20" style="fill:url(#v)"/></svg>