<svg xmlns="http://www.w3.org/2000/svg" viewBox="0 0 117.59 100"><defs><style>.cls-1{fill:#795548;}.cls-2{fill:#f0c419;}</style></defs><title>horse-yellow3</title><g id="Layer_2" data-name="Layer 2"><g id="Layer_1-2" data-name="Layer 1"><path class="cls-1" d="M116.05,30a64.56,64.56,0,0,1-8-10.21A20.47,20.47,0,0,0,101,12.59a3,3,0,0,1-1.59-2.81,15.41,15.41,0,0,0-1-5c-1.7.46-1.84,1.92-2.27,3.19-.51,1.5-.87,1.65-2.05.76-.43-.33-.64-.95-1.29-1-.26.62-.4,1.66-.81,1.79-1.93.59-2.7,2.7-4.67,3.25-1.31.36-2.85.77-3.19,2.57a1.34,1.34,0,0,1-1,.83C81.1,16.23,81,19,79.06,19.19c-.3,0-.44.23-.31.44,1.15,1.8-.79,1.72-1.47,2.23a12.35,12.35,0,0,1-2.78,1.26c-.43.18-.71.18-.34.85,1,1.75-.79,1.45-1.21,1.1-1.59-1.34-3.39-.92-5.17-1.1s-3.88.28-5.39-1.21a1.66,1.66,0,0,1,1-1.45c2.28-.89,3.57-2.85,4.75-4.72A3.1,3.1,0,0,1,71.77,15c.55.11,1.09.27,1.62.4C75,12.95,75,13,75.32,10.5a3.05,3.05,0,0,1,1.16-2c.63-.6,1.82-.46,2.11-1.77a4.1,4.1,0,0,1-2-2.45A7.28,7.28,0,0,0,69.43,0c-2.6.29-4.28,1.9-5,5.23-.31,1.35-.82,2-2.24,2-.45,0-.91,0-1.37,0-6.89-.16-13.59,1.4-20.36,2.28-1.73.23-2,.83-1.44,3a1.42,1.42,0,0,1-.31,1.23,29.16,29.16,0,0,0-1.74,2.93c-1.76,3.82-.7,7,3,8.9a31.45,31.45,0,0,0,4.44,1.78c2.92,1,5.87,1.85,8.81,2.75A2.55,2.55,0,0,1,55,31.28a16.21,16.21,0,0,1-9.21-1.13c-.68-.28-1.54-1.17-2.17-.44-1,1.16-2.06.6-3.12.47-4.86-.6-9.73-1.2-14.59-1.88-5.23-.73-10.23-.24-14.88,2.49-.68.4-1.38.79-2.07,1.18H9S2.49,36.11.5,41.24h0A18.44,18.44,0,0,0,0,46.57,20.68,20.68,0,0,0,2.44,54h0A37.47,37.47,0,0,0,14.3,62.62c1.47.71,1.44,1.49.66,2.64A20.26,20.26,0,0,1,12,68.6a17.69,17.69,0,0,0-2.14,2.2c-2,2.64-1.27,4.64,1.9,5.15,2.84.46,5.45,1.64,8.23,2.29,1.18.27,2.18.79,2,2.29-.24,1.66.74,2.54,2,3.18,1.12.55,2.27,1.07,3.41,1.58,2.58,1.16,5.41,2,6,5.4a1.72,1.72,0,0,0,.33.59c1.77,2.57,2.56,2.5,4-.37.08-.15.35-.2.56-.3A11.36,11.36,0,0,1,42,93.11a5.84,5.84,0,0,0,3.29,1.7c1.58.14,3.11.1,2.3,2.47-.09.25.38.87.73,1.05,2.2,1.17,4.44,2.2,7.23,1.36-1-3.11-3.45-5.08-5.28-7.72a49.16,49.16,0,0,1,8.05.89,5.28,5.28,0,0,0,6.51-4.73c.19-4.82,1.34-9.49,1.76-14.27.19-2.15,1.35-3,3.15-2,3.23,1.75,6.79,2.68,10.06,4.3,2.47,1.22,2.75,2.2,1.15,4.5a28.29,28.29,0,0,1-2.66,3.12c-1.34,1.43-3.49,2.08-4.6,3.39-1.6,1.89-2.9,2-4.88,1.27-.27-.11-.85.31-1.15.62a34.71,34.71,0,0,0-2.51,2.79A2.17,2.17,0,0,0,64.5,94c.42.91,1.38.5,2.13.5a7.74,7.74,0,0,0,3-.63C71.31,93.19,73,92,74.7,92c2.48-.1,3.5-1.61,4.77-3.21,1.83-2.31,3.25-4.95,5.71-6.77,3.21-2.38,3.11-5.9,0-8.55-2.32-2-4.56-4.05-6.8-6.06,2.47-3.5,3.41-7.49,5.82-10.69a6.77,6.77,0,0,0,.75-2.26,23.6,23.6,0,0,1,1.29-3.49C88.48,46,91.46,41.31,93,36a15.56,15.56,0,0,1,1.37-2.75,2.1,2.1,0,0,1,2.22-1.17c4.16.16,7.46,2.62,11.13,4.07.36.14.56.68.82,1,1.22,1.68,1.81,1.88,3.62,1.09.72-.32,1.36-.83,2.09-1.1C117.88,35.8,118.67,33,116.05,30ZM21.27,73.42a1.17,1.17,0,0,1-1.17-1.34c.08-.66.36-1.55,1-1.58,1.23-.06.6,1.17,1,1.62C21.95,72.78,22.12,73.52,21.27,73.42Zm34.17,15.3c-2.36.07-5.68-1.18-9-2.25a5.81,5.81,0,0,0-2.62-.53c-1.56.2-2.62-.35-2.76-2.18a1.53,1.53,0,0,0-2.42-1.4c-1.36.67-2.15.58-2.42-1a4.1,4.1,0,0,0-3.66-3.54,2.42,2.42,0,0,1-2.15-2.92c.29-4.22.54-8.43.85-12.65a4.34,4.34,0,0,1,.55-2.3c.58-.83,1.1-1.35,2.19-.56a66.06,66.06,0,0,0,8.73,5.38A19.69,19.69,0,0,0,49.49,67c1.45.17,2.84.8,4.28,1.11,2.67.58,3.7,2.31,3.85,4.91.17,3.07-.22,6.18.52,9.22.3,1.22.48,2.46.79,3.67C59.59,88.47,59.24,89,55.43,88.72Zm8.88-59.54a.61.61,0,0,1-.26-.53c.4-.93,1.11-.79,2.07-.37C65.45,28.85,65.09,29.5,64.31,29.18Z"/><path class="cls-2" d="M64.09,28.58c-.33.53-1,1.52-1,1.52-2.67,4.3-7.51,14.69-7.51,14.69s1.29,2.51,1.6,3.41c.22.63,1.3,2.08.75,2.46-1.61,1.12-6.11-2.46-6.52-4.38-.13-.62,1.18-1.87,1.18-2.24a119.9,119.9,0,0,1,2.75-13.22l-1.55-.57c-3.41.13-6.89-.1-9.35-1.14-1.21-.48-1.82,1-1.82,1L38.46,44.82s-.8,9.24,5.34,12.5,16,.59,18.27-7.75,3.66-20.9,3.66-20.9A2.51,2.51,0,0,0,64.09,28.58Z"/></g></g></svg>