<svg xmlns="http://www.w3.org/2000/svg" xmlns:xlink="http://www.w3.org/1999/xlink" viewBox="0 0 799.97998 146"><defs><linearGradient id="a" x1="399.98999" y1="200.99995" x2="399.98999" y2="-44.99983" gradientUnits="userSpaceOnUse"><stop offset="0" stop-color="#17031a"/><stop offset="1" stop-color="#333"/></linearGradient><linearGradient id="b" x1="41.52854" y1="53" x2="41.52854" y2="-36" gradientUnits="userSpaceOnUse"><stop offset="0" stop-color="#333"/><stop offset="0.55495" stop-color="#b3b3b3"/><stop offset="1" stop-color="#333"/></linearGradient><linearGradient id="c" x1="128.87088" x2="128.87088" xlink:href="#b"/><linearGradient id="d" x1="216.32687" x2="216.32687" xlink:href="#b"/><linearGradient id="e" x1="303.84642" x2="303.84642" xlink:href="#b"/><linearGradient id="f" x1="391.40232" x2="391.40232" xlink:href="#b"/><linearGradient id="g" x1="478.92237" x2="478.92237" xlink:href="#b"/><linearGradient id="h" x1="566.37842" x2="566.37842" xlink:href="#b"/><linearGradient id="i" x1="653.89792" x2="653.89792" xlink:href="#b"/><linearGradient id="j" x1="741.35937" x2="741.35937" xlink:href="#b"/><linearGradient id="k" x1="793.57712" x2="793.57712" xlink:href="#b"/></defs><title>low-wall</title><rect width="799.97998" height="146" style="fill:url(#a)"/><rect x="1.64746" width="83.41112" height="20" style="fill:#ccc"/><rect width="81.05518" height="20" style="fill:#999"/><rect width="83.05708" height="20" style="fill:url(#b)"/><rect x="89.16698" width="83.4111" height="20" style="fill:#ccc"/><rect x="85.16358" width="83.4111" height="20" style="fill:#999"/><rect x="87.16508" width="83.4116" height="20" style="fill:url(#c)"/><rect x="176.62308" width="83.4111" height="20" style="fill:#ccc"/><rect x="172.61918" width="83.4116" height="20" style="fill:#999"/><rect x="174.62108" width="83.4116" height="20" style="fill:url(#d)"/><rect x="264.14257" width="83.4111" height="20" style="fill:#ccc"/><rect x="260.13917" width="83.4111" height="20" style="fill:#999"/><rect x="262.14057" width="83.4117" height="20" style="fill:url(#e)"/><rect x="351.69877" width="83.4111" height="20" style="fill:#ccc"/><rect x="347.69527" width="83.41071" height="20" style="fill:#999"/><rect x="349.69677" width="83.4111" height="20" style="fill:url(#f)"/><rect x="439.21927" width="83.4101" height="20" style="fill:#ccc"/><rect x="435.21537" width="83.4101" height="20" style="fill:#999"/><rect x="437.21727" width="83.4102" height="20" style="fill:url(#g)"/><rect x="526.67427" width="83.4121" height="20" style="fill:#ccc"/><rect x="522.67037" width="83.4121" height="20" style="fill:#999"/><rect x="524.67237" width="83.4121" height="20" style="fill:url(#h)"/><rect x="614.19386" width="83.41212" height="20" style="fill:#ccc"/><rect x="610.18998" width="83.41208" height="20" style="fill:#999"/><rect x="612.19186" width="83.41212" height="20" style="fill:url(#i)"/><rect x="701.65576" width="83.4111" height="20" style="fill:#ccc"/><rect x="697.65186" width="83.41112" height="20" style="fill:#999"/><rect x="699.65376" width="83.41122" height="20" style="fill:url(#j)"/><rect x="789.17626" width="10.80372" height="20" style="fill:#ccc"/><rect x="785.17236" width="14.80762" height="20" style="fill:#999"/><rect x="787.17426" width="12.80572" height="20" style="fill:url(#k)"/></svg>