<svg xmlns="http://www.w3.org/2000/svg" xmlns:xlink="http://www.w3.org/1999/xlink" viewBox="0 0 800.05955 466.41612"><defs><linearGradient id="a" x1="481.11515" y1="126.40286" x2="497.86164" y2="345.50262" gradientTransform="matrix(1, -0.0028, 0.0028, 1, 0.16782, -0.58235)" gradientUnits="userSpaceOnUse"><stop offset="0" stop-color="#fff2cf"/><stop offset="0.37912" stop-color="#feebca"/><stop offset="0.68681" stop-color="#e1beab"/><stop offset="1" stop-color="#5f6f7f"/></linearGradient><linearGradient id="b" x1="510.41131" y1="79.05329" x2="503.43352" y2="215.81909" gradientTransform="matrix(1, -0.0028, 0.0028, 1, 0.16782, -0.58235)" gradientUnits="userSpaceOnUse"><stop offset="0" stop-color="#fff2cf"/><stop offset="0.37912" stop-color="#feebca"/><stop offset="0.68681" stop-color="#e1beab"/><stop offset="1" stop-color="#c5a8a0"/></linearGradient><linearGradient id="c" x1="260.58866" y1="115.21115" x2="273.14873" y2="441.77257" xlink:href="#b"/><linearGradient id="d" x1="345.90538" y1="34.29025" x2="362.65178" y2="253.38877" xlink:href="#a"/><linearGradient id="e" x1="597.10822" y1="31.96416" x2="574.77989" y2="319.44407" xlink:href="#b"/><linearGradient id="f" x1="320.612" y1="-33.94168" x2="298.28368" y2="253.53818" xlink:href="#b"/><linearGradient id="g" x1="71.39903" y1="232.65497" x2="88.14941" y2="451.80557" xlink:href="#a"/><linearGradient id="h" x1="94.43769" y1="193.16706" x2="87.4597" y2="329.93663" xlink:href="#b"/><linearGradient id="i" x1="22.94127" y1="217.42211" x2="35.5015" y2="543.98788" xlink:href="#b"/><linearGradient id="j" x1="4.13347" y1="135.26809" x2="20.88969" y2="354.49516" xlink:href="#a"/><linearGradient id="k" x1="262.37523" y1="153.92587" x2="240.04687" y2="441.40614" xlink:href="#b"/><linearGradient id="l" x1="82.06148" y1="95.50932" x2="59.73106" y2="383.01618" xlink:href="#b"/></defs><title>sky</title><ellipse cx="401.55744" cy="99.34918" rx="76.4045" ry="76.4961" style="fill:#fcd99d"/><g style="opacity:0.53"><path d="M635.09273,300.298a16.369,16.369,0,0,0-6.8027,1.5048,16.47673,16.47673,0,0,0-14.5508-9.9672,16.4672,16.4672,0,0,0-13.55268-12.0269,16.42742,16.42742,0,0,0-21.95511-14.45851,16.44053,16.44053,0,0,0-18.2051-.02779,16.57639,16.57639,0,0,0-4.3809-2.34521,16.48706,16.48706,0,0,0-10.3105-25.67679,16.43331,16.43331,0,0,0-25.5293-7.1631,16.5548,16.5548,0,0,0-3.4863-4.25,16.46446,16.46446,0,0,0-22.3614-21.3247,16.29419,16.29419,0,0,0-4.3613-2.1128,16.42941,16.42941,0,0,0-25.7754-9.039,16.458,16.458,0,0,0-10.2812,5.9067,16.42645,16.42645,0,0,0-16.60749,2.6099A16.50034,16.50034,0,0,0,420.12,224.90979a16.55875,16.55875,0,0,0-3.1933,5.0718,16.49123,16.49123,0,0,0-12.1328,15.9477c0,.2725.0273.5391.0429.8081a16.35876,16.35876,0,0,0-13.8178,18.8609c-.4746-.0357-.9492-.0694-1.4331-.0684a18.9281,18.9281,0,0,0-18.1075,13.6401,10.24923,10.24923,0,0,0-15.23189,10.7476,18.92732,18.92732,0,0,0,7.13669,37.1655,10.36193,10.36193,0,0,0,3.4077,2.7568,13.41783,13.41783,0,0,0,21.2271,15.7627,9.05276,9.05276,0,0,0,14.24851.3497,17.7,17.7,0,0,0,33.30469-8.4268,17.98326,17.98326,0,0,0-.30469-3.1494,11.44992,11.44992,0,0,0,4.77739-1.4805,11.55971,11.55971,0,0,0,17.791,7.5274,16.46623,16.46623,0,0,0,31.3144,3.5576,16.441,16.441,0,0,0,28.5918-13.5635,10.302,10.302,0,0,0,12.3516-3.6895,10.25714,10.25714,0,0,0,14.2324-.625,13.40526,13.40526,0,0,0,23.9942,6.3653,13.37553,13.37553,0,0,0,15.6015.6142c-.0039.12109-.0156.2422-.0156.3633a13.42917,13.42917,0,0,0,25.8125,5.17679,13.395,13.395,0,0,0,19.6016-6.39649,16.49254,16.49254,0,1,0,5.7734-31.9277Z" style="fill:url(#a)"/></g><g style="opacity:0.72"><path d="M645.79583,138.37659a16.36046,16.36046,0,0,0-6.8027,1.5044,16.4746,16.4746,0,0,0-14.5488-9.9673,16.47353,16.47353,0,0,0-13.5567-12.0264,16.42247,16.42247,0,0,0-21.95108-14.4585,16.45006,16.45006,0,0,0-18.20711-.0283,16.56749,16.56749,0,0,0-4.3828-2.3442,16.48795,16.48795,0,0,0-10.3105-25.6778,16.43167,16.43167,0,0,0-25.5274-7.1626,16.46446,16.46446,0,0,0-3.4863-4.25,16.4651,16.4651,0,0,0-22.3633-21.32472,16.28658,16.28658,0,0,0-4.3574-2.11228,16.43126,16.43126,0,0,0-25.7774-9.0395,16.453,16.453,0,0,0-10.2812,5.9067,16.42991,16.42991,0,0,0-16.6094,2.6099,16.50321,16.50321,0,0,0-16.8105,22.9824,16.56841,16.56841,0,0,0-3.1934,5.0713,16.492,16.492,0,0,0-12.1328,15.9482c.002.2725.0273.5381.041.8081a16.48065,16.48065,0,0,0-14.0351,16.3448,16.18688,16.18688,0,0,0,.2207,2.5166c-.4746-.03522-.9507-.0699-1.43509-.0684a18.92693,18.92693,0,0,0-18.10691,13.6396,10.25294,10.25294,0,0,0-15.2325,10.74859,18.9277,18.9277,0,0,0,7.1373,37.16551,10.36827,10.36827,0,0,0,3.4072,2.7559,13.41813,13.41813,0,0,0,21.227,15.7631,9.05439,9.05439,0,0,0,14.2491.3492,17.68964,17.68964,0,0,0,33-11.57571,11.47939,11.47939,0,0,0,4.7773-1.48,11.56178,11.56178,0,0,0,17.791,7.52731,16.46647,16.46647,0,0,0,31.31451,3.5562,16.437,16.437,0,0,0,28.58979-13.56451,10.30266,10.30266,0,0,0,12.3535-3.68649,10.26122,10.26122,0,0,0,14.2325-.6269,13.40251,13.40251,0,0,0,23.9921,6.3647,13.3733,13.3733,0,0,0,15.6016.61669c-.002.12111-.0137.24121-.0137.36231a13.42918,13.42918,0,0,0,25.8125,5.1753,13.39457,13.39457,0,0,0,19.6016-6.395,16.49245,16.49245,0,1,0,5.7734-31.9282Z" style="fill:url(#b)"/></g><g style="opacity:0.78"><path d="M520.65334,280.76958a20.38458,20.38458,0,0,0-11.6211-11.89941,20.30361,20.30361,0,0,0-32.9844-7.09179,20.26919,20.26919,0,0,0-15.40429-.1098,20.2704,20.2704,0,0,0-25.15041-10.8658,20.30361,20.30361,0,0,0-33.6094-.5844,20.31269,20.31269,0,0,0-16.855-10.11921,20.34816,20.34816,0,0,0-19.5854-26.06439c-.02779,0-.0552.00439-.0835.00439a20.33361,20.33361,0,0,0-18.7271-18.61579,20.30195,20.30195,0,0,0-28.6865-17.7651,15.459,15.459,0,0,0-15.3159-13.1655,15.6717,15.6717,0,0,0-2.5146.229,23.58457,23.58457,0,0,0-20.1001-21.8799,23.56825,23.56825,0,0,0-10.3106-6.5269,23.94784,23.94784,0,0,0,.2783-3.5131,23.55882,23.55882,0,0,0-33.7231-21.2603,23.55008,23.55008,0,0,0-33.1455,2.8941,23.56341,23.56341,0,0,0-42.0523-13.1172,17.04919,17.04919,0,0,0-26.875,11.5195,17.10386,17.10386,0,0,0-12.499,27.9888,22.83017,22.83017,0,0,0-2.7427,19.7456,22.90069,22.90069,0,0,0-6.0073,4.0537,22.806,22.806,0,0,0-36.2886,24.4526,22.8374,22.8374,0,0,0-14.3125,14.0508,27.623,27.623,0,0,0-41.7387,15.6802,21.7991,21.7991,0,0,0-20.5391,2.9272v77.2632a14.58389,14.58389,0,0,0,16.0811-1.8745A23.56861,23.56861,0,0,0,56.975,307.94a23.54964,23.54964,0,0,0,41.4917,2.3287,23.56414,23.56414,0,0,0,40.7725-5.0591,23.41767,23.41767,0,0,0,8.3198,1.5161c.7905-.0024,1.5693-.0474,2.3399-.12551a23.55005,23.55005,0,0,0,31.3574,1.186,23.29973,23.29973,0,0,0,3.9946,2.04011,23.57089,23.57089,0,0,0,45.3975,5.1318,23.37128,23.37128,0,0,0,13.12011-1.0605,23.55184,23.55184,0,0,0,36.38129,12.497,23.57249,23.57249,0,0,0,37.36971-11.75,23.46771,23.46771,0,0,0,26.85689.7569,23.56628,23.56628,0,0,0,40.8198,3.2129,23.514,23.514,0,0,0,31.8477-3.82621,21.10623,21.10623,0,0,0,2.4004.14551,20.22079,20.22079,0,0,0,12.3398-4.2451,20.32072,20.32072,0,0,0,37.6211,8.1318,20.20757,20.20757,0,0,0,18.4941,1.8526,20.29833,20.29833,0,0,0,25.5899.1777,20.35816,20.35816,0,1,0,7.1641-40.0811Z" style="fill:url(#c)"/></g><g style="opacity:0.63"><path d="M499.624,208.56359a16.37424,16.37424,0,0,0-6.8028,1.5044,16.47094,16.47094,0,0,0-14.5469-9.9673,16.47774,16.47774,0,0,0-13.5566-12.0274,16.4243,16.4243,0,0,0-21.9531-14.458,16.44469,16.44469,0,0,0-18.20509-.0283,16.55684,16.55684,0,0,0-4.38281-2.3442,16.48747,16.48747,0,0,0-10.3106-25.6773,16.43188,16.43188,0,0,0-25.5273-7.1635,16.5319,16.5319,0,0,0-3.4868-4.2491,16.46482,16.46482,0,0,0-22.3628-21.32471,16.26622,16.26622,0,0,0-4.3584-2.11278,16.432,16.432,0,0,0-25.7774-9.0395,16.45,16.45,0,0,0-10.2793,5.9067,16.434,16.434,0,0,0-16.6098,2.6099,16.50058,16.50058,0,0,0-16.8106,22.9829,16.54888,16.54888,0,0,0-3.1933,5.07079,16.49269,16.49269,0,0,0-12.1338,15.94821c.001.2725.0288.5386.042.8081a16.35651,16.35651,0,0,0-13.8169,18.8619c-.4741-.03621-.9487-.0699-1.4331-.0684a18.92656,18.92656,0,0,0-18.107,13.6397,10.24951,10.24951,0,0,0-15.2319,10.748,18.9279,18.9279,0,0,0,7.1362,37.166,10.36059,10.36059,0,0,0,3.4073,2.7554,13.418,13.418,0,0,0,21.2275,15.7632,9.0518,9.0518,0,0,0,14.2495.3481,17.69869,17.69869,0,0,0,33.3032-8.4263,17.87936,17.87936,0,0,0-.3037-3.1484,11.46039,11.46039,0,0,0,4.7759-1.479,11.56281,11.56281,0,0,0,17.792,7.5264,16.46678,16.46678,0,0,0,31.31491,3.5556,16.46346,16.46346,0,0,0,28.82229-10.9629,16.6073,16.6073,0,0,0-.2314-2.6005,10.29978,10.29978,0,0,0,12.3515-3.68711,10.261,10.261,0,0,0,14.2334-.62689,13.40227,13.40227,0,0,0,23.99221,6.3647,13.37368,13.37368,0,0,0,15.60349.6167c-.0039.1211-.01749.2403-.01749.3623a13.43031,13.43031,0,0,0,25.81439,5.1758,13.39684,13.39684,0,0,0,19.60161-6.3945,16.49265,16.49265,0,1,0,5.77149-31.9287Z" style="fill:url(#d)"/></g><g style="opacity:0.72"><path d="M800.05955,193.34779c-.38482-.0205-.76562-.0562-1.15622-.0552-.0274,0-.0547.0044-.084.0044a20.33186,20.33186,0,0,0-18.7266-18.6157,20.303,20.303,0,0,0-28.6875-17.7652,15.45545,15.45545,0,0,0-15.3164-13.1655,15.64663,15.64663,0,0,0-2.5117.229,23.58737,23.58737,0,0,0-20.10158-21.88041,23.56721,23.56721,0,0,0-10.31252-6.52629,23.5478,23.5478,0,0,0-33.4433-24.7735,23.54925,23.54925,0,0,0-33.1446,2.8941,23.56369,23.56369,0,0,0-42.0527-13.1172,17.04651,17.04651,0,0,0-26.8731,11.519,17.10469,17.10469,0,0,0-12.5,27.9898,22.825,22.825,0,0,0-2.7421,19.74509,22.87977,22.87977,0,0,0-6.0079,4.05371,22.80515,22.80515,0,0,0-36.289,24.4526,22.83761,22.83761,0,0,0-14.3125,14.0508,27.62276,27.62276,0,0,0-41.73829,15.6802,21.88824,21.88824,0,0,0-29.25391,17.4761,18.59383,18.59383,0,0,0-12.1719,5.041,18.68929,18.68929,0,0,0-33.6123,11.0371,13.8633,13.8633,0,1,0-3.9082,25.16549,14.6261,14.6261,0,0,0,19.666,2.627,14.58012,14.58012,0,0,0,16.7217,6.938,14.62679,14.62679,0,0,0,18.6289,9.52051,14.59851,14.59851,0,0,0,19.47071.5102,23.57,23.57,0,0,0,40.836,10.8164,23.54934,23.54934,0,0,0,41.49019,2.3262,23.56383,23.56383,0,0,0,40.7734-5.0566,23.45648,23.45648,0,0,0,8.3203,1.5141c.78911-.0024,1.5684-.0473,2.3379-.1255a23.54844,23.54844,0,0,0,31.3594,1.1861,23.34889,23.34889,0,0,0,3.9941,2.042,23.57062,23.57062,0,0,0,45.3965,5.1313,23.34634,23.34634,0,0,0,13.11922-1.0615,23.55037,23.55037,0,0,0,36.38278,12.4966,23.57034,23.57034,0,0,0,37.3691-11.7486,23.47294,23.47294,0,0,0,26.8574.7559,23.58409,23.58409,0,0,0,21.3848,13.5381c.2813-.001.5586-.0181.83792-.0288Z" style="fill:url(#e)"/></g><g style="opacity:0.56"><path d="M591.49113,188.46349a20.38075,20.38075,0,0,0-11.623-11.9004,20.30453,20.30453,0,0,0-32.9863-7.0923,20.27126,20.27126,0,0,0-15.4024-.1099,20.26655,20.26655,0,0,0-25.1504-10.86471,20.30609,20.30609,0,0,0-33.6113-.58539,20.31116,20.31116,0,0,0-16.8535-10.1197,20.34505,20.34505,0,0,0-19.5859-26.06391c-.0274,0-.0547.00441-.0821.00441a20.33677,20.33677,0,0,0-18.7285-18.6163,20.30111,20.30111,0,0,0-28.6855-17.7646,15.34229,15.34229,0,0,0-17.8311-12.936,23.58487,23.58487,0,0,0-20.09959-21.8804A23.57386,23.57386,0,0,0,340.54,44.00789a23.47174,23.47174,0,0,0-23.3897-27.0791,23.45849,23.45849,0,0,0-10.0547,2.3057,23.55069,23.55069,0,0,0-33.1455,2.8935,23.56312,23.56312,0,0,0-42.0522-13.1167,17.04809,17.04809,0,0,0-26.875,11.5191,17.10473,17.10473,0,0,0-12.499,27.9887,22.826,22.826,0,0,0-2.7422,19.7457,22.91615,22.91615,0,0,0-6.0078,4.0532,22.80647,22.80647,0,0,0-36.2886,24.4536,22.83512,22.83512,0,0,0-14.3115,14.0503,27.62476,27.62476,0,0,0-41.7398,15.6806,21.88714,21.88714,0,0,0-29.2524,17.4756,18.59808,18.59808,0,0,0-12.1734,5.041,18.68933,18.68933,0,0,0-33.6123,11.03809,13.76542,13.76542,0,0,0-16.3364,1.26271v20.9712a13.66971,13.66971,0,0,0,12.4287,2.9302,14.62111,14.62111,0,0,0,19.666,2.6274,14.57481,14.57481,0,0,0,16.7217,6.93749,14.62473,14.62473,0,0,0,18.6289,9.521,14.5998,14.5998,0,0,0,19.4712.51081,23.5697,23.5697,0,0,0,40.835,10.8159,23.55106,23.55106,0,0,0,41.4917,2.3271,23.56339,23.56339,0,0,0,40.7719-5.0581,23.43224,23.43224,0,0,0,8.31991,1.5152c.791-.002,1.57029-.04791,2.34029-.126a23.54768,23.54768,0,0,0,31.3569,1.1875,23.444,23.444,0,0,0,3.9951,2.0395,23.571,23.571,0,0,0,45.3975,5.1324,23.374,23.374,0,0,0,13.1201-1.0616,23.54987,23.54987,0,0,0,36.3814,12.4966,23.57082,23.57082,0,0,0,37.3696-11.7485,23.47354,23.47354,0,0,0,26.8564.7568,23.56621,23.56621,0,0,0,40.8204,3.2119,23.50824,23.50824,0,0,0,31.8457-3.8266,21.07812,21.07812,0,0,0,2.4023.1455,20.22162,20.22162,0,0,0,12.3398-4.2441,20.31962,20.31962,0,0,0,37.6211,8.1303,20.19013,20.19013,0,0,0,18.4922,1.854,20.3007,20.3007,0,0,0,25.5899.1773,20.35776,20.35776,0,1,0,7.1679-40.0796Z" style="fill:url(#f)"/></g><g style="opacity:0.6900000000000001"><path d="M443.60834,68.45709s-.9492-.18992-1.3281.0948a1.72261,1.72261,0,0,0,1.0742.5859s2.1973,1.0293,1.66211,1.8521c0,0-.50581.934-3.09961,1.4409a9.69,9.69,0,0,0-3.1465.7758c-.9492.5855-1.3593,3.37158-1.3593,4.9073a34.2309,34.2309,0,0,0,1.2011,8.48528s.6172,1.40872,1.0586,1.66212c0,0,.6504-.4589.2383-1.7255l.459.5703a3.20216,3.20216,0,0,0,.2988-2.35892l.3809.459a3.59631,3.59631,0,0,0,.2676-2.628l.41211.44342a2.81474,2.81474,0,0,0,.44139-2.2798c-.4102-1.0605-1.2637-1.7412-.7422-2.5015a23.42538,23.42538,0,0,1,4.4746-3.2924c.7754-.3955,1.8027-1.2984,2.1504-1.2505a16.451,16.451,0,0,0,2.2441.728c1.3614.269,1.7559.5225,2.38871.665.63279.1421,1.23239.7911,1.56639.9654,0,0,.1719.4277.5527.396.37891-.0318.37891-.1582.6485,0a.59491.59491,0,0,0,.8379-.1739c.1738-.3169.332-.3481.64651-.396a.39543.39543,0,0,0,.22259-.6333,11.54578,11.54578,0,0,0-1.3105-.8706,8.40088,8.40088,0,0,1-1.6934-1.2666c-.2852-.42722-.1582-.42722-.3945-.8071-.2383-.3804-.61719-.9185-.5371-1.0928a55.879,55.879,0,0,1,5.4062-4.7334c.34771,0,3.209,1.6148,4.6016,2.05808,0,0,4.5859,1.91562,5.3437,1.89992,0,0,.6328-.0947-.1738-.5068-.8066-.4116-7.0039-3.2925-7.0039-3.2925s-8.2695-4.3535-8.58589-2.4062a10.91163,10.91163,0,0,1-1.58211,2.4692c-.6328.688-2.2441,2.1846-3.5254,2.02638a4.8555,4.8555,0,0,1-2.0879-.82278A1.797,1.797,0,0,0,443.60834,68.45709Z" style="fill:#4f5f6d"/><path d="M464.80955,92.92489s-1.05471-1.0088-1.55271-1.4722a4.15536,4.15536,0,0,0-1.2227-.8071c-.5449-.2851-1.1992-.6235-1.6367-.831-.4492-.2139-1.207-.3526-1.0801.0351a5.842,5.842,0,0,0,.6543.52248,11.296,11.296,0,0,1,1.7656,1.55562,2.21122,2.21122,0,0,1,.5586,1.9947,4.90483,4.90483,0,0,0-1.1875.0591c-.248.1069-.3906.4155-.5429.3681a1.84957,1.84957,0,0,0-1.0938.2373c-.248.1875.2266.2857.7012.2735a1.43881,1.43881,0,0,1,.6738.3086,7.40622,7.40622,0,0,0,2.5625,1.9589,9.22842,9.22842,0,0,0,3.3926.3321c1.0547.0122,2.8457.167,3.2832.1548.4394-.0118.80661-.0708.7012-.3204,0,0,.02341-.226-.4512-.2968,0,0-.4277-.1304-1.1016-.4038-.6777-.273-1.09179-.4273-1.2812-.78372a2.1067,2.1067,0,0,1-.0117-1.377c.11711-.30858,1.1367-1.95948,1.5058-2.60008a24.32821,24.32821,0,0,1,1.5528-2.6128,1.419,1.419,0,0,1,1.18751-.4277,8.269,8.269,0,0,0,2.53709-.0108c.6523-.226.8418-.6772,1.1484-.6889a1.69709,1.69709,0,0,0,.998-.5225.72762.72762,0,0,1,.4961-.2846c.168-.0484.4043-.49862.0489-.5108a47.38213,47.38213,0,0,0-7.7559.4985,10.87589,10.87589,0,0,0-3.5469,1.4722s-.1523.1309-.1054.9258C466.00684,89.67149,465.98334,91.89217,464.80955,92.92489Z" style="fill:#4f5f6d"/><path d="M399.65334,71.78717s-1.544-1.47648-2.2725-2.15478a6.0499,6.0499,0,0,0-1.7871-1.1811c-.7979-.417-1.7559-.9126-2.3965-1.2163-.65869-.313-1.7656-.5152-1.5781.05218a8.4792,8.4792,0,0,0,.9555.76422,16.51887,16.51887,0,0,1,2.585,2.27678,3.23912,3.23912,0,0,1,.8154,2.918,7.12173,7.12173,0,0,0-1.7353.08742c-.3648.1563-.5723.6079-.7979.5381a2.69379,2.69379,0,0,0-1.5976.3476c-.3638.2735.3296.417,1.0244.39988a2.12051,2.12051,0,0,1,.9888.45122c.5034.3994,1.788,2.189,3.7495,2.8667a13.47708,13.47708,0,0,0,4.9624.4863c1.5429.0176,4.164.2437,4.8066.2256.64061-.0175,1.1797-.104,1.0234-.4677,0,0,.03521-.3316-.6582-.4356,0,0-.6269-.1904-1.6152-.5903-.9883-.3994-1.5957-.6255-1.873-1.1465a3.08675,3.08675,0,0,1-.0176-2.0151c.1738-.4517,1.666-2.8672,2.2031-3.8052a35.22111,35.22111,0,0,1,2.2734-3.8228,2.06928,2.06928,0,0,1,1.7344-.625,12.12613,12.12613,0,0,0,3.7149-.0171c.955-.33,1.23041-.9902,1.6836-1.0078a2.48712,2.48712,0,0,0,1.457-.7641,1.06343,1.06343,0,0,1,.7285-.4175c.2422-.0694.5898-.7295.07031-.74712-.52151-.01708-8.40041-.01708-11.34961.73a15.89294,15.89294,0,0,0-5.18939,2.15432s-.22471.1904-.15631,1.355C401.40524,67.02649,401.372,70.27549,399.65334,71.78717Z" style="fill:#4f5f6d"/><path d="M484.01464,58.64949s-2.7403-3.5854-4.7129-4.8476a.7909.7909,0,0,1,.4551-.8052s.2031-.1646-.0899-.3472c-.2929-.1836-.2011-.1836-.2011-.1836s.1093-.603-.2735-.7495c0,0,.127-.3291-.166-.3657,0,0,.2207-.2378-.2734-.3291,0,0-.0547-.1826-.4922-.0737,0,0-1.6817.6591-1.4981,2.1401.1817,1.4819,2.2285,2.4155,2.7207,2.90918.49421.49362,2.0293,1.77392,1.7364,2.63382a1.92086,1.92086,0,0,0-1.7715.6948s-.8965.019-1.1875.4946a5.64746,5.64746,0,0,0,1.2226.1641,1.91717,1.91717,0,0,1,.8965.53068c.4746.45762,2.0098,2.08552,3.5625,2.32282,1.5527.2378,1.791.2017,2.11921.293a7.25081,7.25081,0,0,0,1.29679.2011c.2578,0,.4004-.0547.6387.0918a2.07658,2.07658,0,0,0,.7676.4571,2.85013,2.85013,0,0,0,.8965.0918s.6757-.1099.7851-.1099.4942-.34772.2735-.4575a11.92559,11.92559,0,0,1-2.1563-1.1519c-.7676-.5859-1.2226-.98832-1.2226-.98832s.455-.71328.6562-1.09758,2.98051-4.2251,3.252-4.5366a10.8543,10.8543,0,0,1,2.3398-2.5606c.9863-.5493,1.6074-.95122,1.6621-.9878s-.5117-.311-.6035-.311c-.08989,0,1.207-.2197,2.0117-.4761a3.84065,3.84065,0,0,0,1.752-1.2436c.6953-.6773,1.3906-1.5181,1.3906-1.5181l-.4024-.01862s.8399-.23778.8946-.47548a1.794,1.794,0,0,0-.9492.0732c-.49419.1831-5.99219,2.03028-8.1504,3.0366-2.1543,1.0059-3.3243,1.7012-3.6895,2.2315C487.13964,53.91169,485.98724,57.22279,484.01464,58.64949Z" style="fill:#4f5f6d"/><path d="M540.18255,97.31017a22.80913,22.80913,0,0,0-4.01361-4.12448.67565.67565,0,0,1,.39061-.6851s.16989-.1406-.07811-.29542c-.25-.15628-.16989-.15628-.16989-.15628s.09179-.5136-.23441-.63772c0,0,.10941-.28018-.14059-.31148,0,0,.18549-.2026-.23251-.2803,0,0-.0468-.1557-.4199-.0625,0,0-1.4297.5606-1.2754,1.82128.1563,1.26132,1.8965,2.05522,2.3184,2.47512.4179.4204,1.7246,1.5103,1.4765,2.2417a1.63888,1.63888,0,0,0-1.5097.5913s-.7598.0157-1.0098.4204a4.83689,4.83689,0,0,0,1.043.1397,1.64053,1.64053,0,0,1,.7597.4517,6.64348,6.64348,0,0,0,3.0332,1.977c1.3204.2026,1.52351.1709,1.8028.249a6.20359,6.20359,0,0,0,1.1055.1714c.2167,0,.3398-.0464.5429.07768a1.75468,1.75468,0,0,0,.6524.38912,2.4312,2.4312,0,0,0,.7617.0781s.57621-.0937.668-.0937c.0937,0,.4199-.2954.2343-.3892a10.025,10.025,0,0,1-1.8359-.9804c-.6524-.4986-1.041-.8404-1.041-.8404s.3886-.6074.5605-.93452c.1699-.32668,2.5332-3.59528,2.7676-3.86038a9.17177,9.17177,0,0,1,1.9902-2.1787c.8379-.4673,1.3672-.8096,1.4141-.8413.0449-.0308-.43359-.2642-.5117-.2642s1.0254-.1865,1.709-.4048a3.277,3.277,0,0,0,1.49211-1.0581c.58989-.5761,1.18169-1.292,1.18169-1.292l-.3418-.0156s.7148-.2026.7617-.4048a1.53279,1.53279,0,0,0-.80859.0625c-.41991.1558-5.09961,1.7271-6.93361,2.584a9.28272,9.28272,0,0,0-3.1406,1.8985C542.84084,93.27889,541.86034,96.09579,540.18255,97.31017Z" style="fill:#4f5f6d"/></g><g style="opacity:0.53"><path d="M162.09034,412.79308a16.35415,16.35415,0,0,0-6.8028,1.5039,16.47978,16.47978,0,0,0-14.5508-9.96681,16.46937,16.46937,0,0,0-13.5542-12.02739,16.42687,16.42687,0,0,0-21.9545-14.458,16.44138,16.44138,0,0,0-18.2046-.0283,16.55065,16.55065,0,0,0-4.3819-2.3447A16.48777,16.48777,0,0,0,72.331,349.795a16.43411,16.43411,0,0,0-25.5293-7.1631,16.49709,16.49709,0,0,0-3.4859-4.25,16.46456,16.46456,0,0,0-22.3618-21.3242,16.27744,16.27744,0,0,0-4.3603-2.1133c-1.8521-7.1074-8.84279-12.3515-16.51906-12.33-.05225,0,.05176.0063,0,.00679L.05955,466.39068c.20361.0069-.20557.0264,0,.0254,6.75732-.0195,13.5576-4.1094,16.0869-9.9414a16.43814,16.43814,0,0,0,28.5903-13.56251,10.3074,10.3074,0,0,0,12.3526-3.68939,10.26034,10.26034,0,0,0,14.2329-.625,13.40418,13.40418,0,0,0,23.9927,6.3652,13.375,13.375,0,0,0,15.6025.6133c-.0039.1211-.0166.2422-.0166.3633a13.43,13.43,0,0,0,25.8135,5.1777,13.39488,13.39488,0,0,0,19.6015-6.3965,16.49232,16.49232,0,1,0,5.7745-31.9277Z" style="fill:url(#g)"/></g><g style="opacity:0.72"><path d="M172.38764,250.87117a16.36676,16.36676,0,0,0-6.8022,1.50441,16.47363,16.47363,0,0,0-14.5488-9.9673,16.4733,16.4733,0,0,0-13.5562-12.0264,16.423,16.423,0,0,0-21.9517-14.4585,16.45118,16.45118,0,0,0-18.2075-.0283,16.55448,16.55448,0,0,0-4.3818-2.3442,16.48856,16.48856,0,0,0-10.3106-25.67771,16.43238,16.43238,0,0,0-25.5283-7.16259,16.48336,16.48336,0,0,0-3.4858-4.25,16.46492,16.46492,0,0,0-22.3628-21.3248,16.28641,16.28641,0,0,0-4.3584-2.1123A16.43167,16.43167,0,0,0,1.1157,143.984c-.35791.05519-.70654.1367-1.05615.2143v155.8111a16.44092,16.44092,0,0,0,26.3853-5.4561,16.43519,16.43519,0,0,0,28.5898-13.5644,10.30314,10.30314,0,0,0,12.3535-3.6865,10.26064,10.26064,0,0,0,14.2319-.627,13.40295,13.40295,0,0,0,23.9927,6.3647,13.37373,13.37373,0,0,0,15.6021.6167c-.002.1211-.0137.2413-.0137.3623a13.42827,13.42827,0,0,0,25.811,5.1753,13.39457,13.39457,0,0,0,19.6016-6.395,16.49253,16.49253,0,1,0,5.7739-31.92821Z" style="fill:url(#h)"/></g><g style="opacity:0.78"><path d="M47.63525,393.37508a20.38182,20.38182,0,0,0-11.6206-11.8984,20.337,20.337,0,0,0-18.9365-12.8028c-5.4327.0147-13.3477,2.1719-17.0186,5.65629v1.65231h0v57.4326a22.42067,22.42067,0,0,0,7.43555,1.29009,20.25806,20.25806,0,0,0,7.38575-1.42579,20.302,20.302,0,0,0,25.5903.1777,20.3586,20.3586,0,1,0,7.1641-40.082Z" style="fill:url(#i)"/></g><g style="opacity:0.63"><path d="M26.60595,321.05768a16.3785,16.3785,0,0,0-6.8023,1.5049,16.47458,16.47458,0,0,0-14.5483-9.9678,17.1917,17.1917,0,0,0-5.1958-7.8842V359.381a17.70167,17.70167,0,0,0,8.34375,2.0664,13.42253,13.42253,0,0,0,12.43115-8.461,16.49258,16.49258,0,1,0,5.7715-31.9287Z" style="fill:url(#j)"/></g><g style="opacity:0.72"><path d="M480.70994,372.52348a20.39207,20.39207,0,0,0-11.6231-11.90031,20.30486,20.30486,0,0,0-32.98629-7.09279,20.27922,20.27922,0,0,0-15.40431-.1104,20.26645,20.26645,0,0,0-25.1518-10.8642,20.30249,20.30249,0,0,0-33.60789-.586,20.31594,20.31594,0,0,0-16.855-10.1181,20.34859,20.34859,0,0,0-19.586-26.06451c-.02731,0-.05471.00491-.08391.00491a20.33028,20.33028,0,0,0-18.7256-18.6162,20.30365,20.30365,0,0,0-28.68849-17.7651,15.45455,15.45455,0,0,0-15.31541-13.16561,15.68463,15.68463,0,0,0-2.5127.229,23.58868,23.58868,0,0,0-20.1011-21.88029,23.57164,23.57164,0,0,0-10.3115-6.5264,24.04482,24.04482,0,0,0,.2788-3.5132,23.55892,23.55892,0,0,0-33.7232-21.2602,23.55079,23.55079,0,0,0-33.146,2.894,23.56269,23.56269,0,0,0-42.0512-13.1172,17.04768,17.04768,0,0,0-26.8745,11.519,17.10425,17.10425,0,0,0-12.4986,27.9898,22.81686,22.81686,0,0,0-2.7431,19.7451,22.8811,22.8811,0,0,0-6.0074,4.0537,22.80449,22.80449,0,0,0-36.2885,24.45269,22.84039,22.84039,0,0,0-14.313,14.05071,27.55551,27.55551,0,0,0-22.3306-3.5522v76.104H.122l-.0625,8.43749h0v31.85251a23.51345,23.51345,0,0,0,16.9688-8.0302,23.54891,23.54891,0,0,0,41.4907,2.3261,23.56383,23.56383,0,0,0,40.7734-5.0566,23.41456,23.41456,0,0,0,8.3198,1.5146c.7901-.0029,1.5684-.0478,2.3394-.1259a23.54511,23.54511,0,0,0,31.3584,1.18649,23.32073,23.32073,0,0,0,3.9951,2.042,23.56937,23.56937,0,0,0,45.395,5.13081,23.34737,23.34737,0,0,0,13.1206-1.0605,23.54826,23.54826,0,0,0,36.3804,12.4961,23.57158,23.57158,0,0,0,37.3711-11.7481,23.47444,23.47444,0,0,0,26.8569.7559,23.56637,23.56637,0,0,0,40.8199,3.2129,23.51431,23.51431,0,0,0,31.8466-3.8272,21.35347,21.35347,0,0,0,2.3994.1456,20.233,20.233,0,0,0,12.3409-4.2432,20.32007,20.32007,0,0,0,37.622,8.1299,20.21633,20.21633,0,0,0,18.4961,1.8535,20.29527,20.29527,0,0,0,25.5879.1758,20.35708,20.35708,0,1,0,7.168-40.0782Z" style="fill:url(#k)"/></g><g style="opacity:0.56"><path d="M118.08395,300.95808a20.38637,20.38637,0,0,0-11.6235-11.9004,20.30415,20.30415,0,0,0-32.9859-7.0923,20.27278,20.27278,0,0,0-15.4033-.1098,20.26623,20.26623,0,0,0-25.1499-10.8648,20.30072,20.30072,0,0,0-32.8618-1.5771v73.6382a23.57,23.57,0,0,0,14.4116-8.0772,21.16837,21.16837,0,0,0,2.4014.14549,20.22718,20.22718,0,0,0,12.3408-4.24409,20.31879,20.31879,0,0,0,37.6196,8.1308,20.19537,20.19537,0,0,0,18.4937,1.8536,20.30057,20.30057,0,0,0,25.5893.17769,20.358,20.358,0,1,0,7.168-40.08009Z" style="fill:url(#l)"/></g></svg>