<svg xmlns="http://www.w3.org/2000/svg" viewBox="0 0 1001.03125 75.27307"><title>wave1-c</title><rect x="0.5" y="24.77307" width="500" height="50" style="fill:#abc677;stroke:#abc677;stroke-miterlimit:10"/><path d="M484.71271,11.66534C475.38214,5.92511,466.5697.49884,455.42926.501c-11.1427,0-19.9541,5.42291-29.28583,11.16431-9.81207,6.036-19.96094,12.2793-33.23523,12.28278-13.27441-.00128-23.42212-6.24573-33.23419-12.28174C350.3446,5.92291,341.53094.5,330.3894.50116,319.25018.5,310.4375,5.92163,301.10693,11.66418c-9.81543,6.037-19.962,12.28265-33.23975,12.28265-13.27325.00012-23.42084-6.24445-33.23419-12.28149C225.30475,5.92279,216.49109.49988,205.34955.501,194.21033.49988,185.39545,5.924,176.0672,11.66418,166.25269,17.70239,156.1051,23.947,142.832,23.947c-13.27454-.00116-23.42212-6.24573-33.23547-12.28278C100.265,5.92279,91.45123.5,80.31317.5,69.17163.50116,60.35895,5.92279,51.0285,11.66522,41.21515,17.7002,31.06757,23.94476,17.792,23.947A44.53006,44.53006,0,0,1,.5,20.32141v4.45166h500V20.259A114.69408,114.69408,0,0,1,484.71271,11.66534Z" style="fill:#abc677;stroke:#abc677;stroke-miterlimit:10"/><rect x="500.53125" y="24.77307" width="500" height="50" style="fill:#abc677;stroke:#abc677;stroke-miterlimit:10"/><path d="M984.744,11.66534C975.41339,5.92511,966.601.49884,955.46051.501c-11.1427,0-19.9541,5.42291-29.28583,11.16431-9.81207,6.036-19.96094,12.2793-33.23523,12.28278-13.27441-.00128-23.42212-6.24573-33.23419-12.28174C850.37585,5.92291,841.56219.5,830.42065.50116,819.28143.5,810.46875,5.92163,801.13818,11.66418c-9.81543,6.037-19.962,12.28265-33.23975,12.28265-13.27325.00012-23.42084-6.24445-33.23419-12.28149C725.336,5.92279,716.52234.49988,705.3808.501,694.24158.49988,685.4267,5.924,676.09845,11.66418c-9.81451,6.03821-19.9621,12.28278-33.23523,12.28278-13.27454-.00116-23.42212-6.24573-33.23547-12.28278C600.29626,5.92279,591.48248.5,580.34442.5c-11.14154.00116-19.95422,5.42279-29.28467,11.16522-9.81335,6.035-19.96094,12.27954-33.23651,12.28174a44.53006,44.53006,0,0,1-17.292-3.62555v4.45166h500V20.259A114.69408,114.69408,0,0,1,984.744,11.66534Z" style="fill:#abc677;stroke:#abc677;stroke-miterlimit:10"/></svg>