<svg xmlns="http://www.w3.org/2000/svg" xmlns:xlink="http://www.w3.org/1999/xlink" viewBox="0 0 1001.44546 125.48018"><defs><clipPath id="a" transform="translate(0 -25.22693)"><rect x="0.72273" width="1000" height="150" style="fill:none"/></clipPath></defs><title>wave1d</title><g style="clip-path:url(#a)"><rect x="0.70711" y="24.77307" width="500" height="100" style="fill:#abc677;stroke:#abc677;stroke-miterlimit:10;stroke-width:1.4142135623730951px"/><path d="M484.91981,36.89227c-9.33057-5.74023-18.143-11.1665-29.28345-11.16431-11.1427,0-19.9541,5.42291-29.28583,11.16431-9.81207,6.036-19.96094,12.2793-33.23523,12.28278-13.27441-.00128-23.42212-6.24573-33.23419-12.28174-9.32941-5.74347-18.14307-11.16638-29.28461-11.16522-11.13922-.00116-19.9519,5.42047-29.28247,11.163-9.81543,6.037-19.962,12.28265-33.23975,12.28265-13.27325.00012-23.42084-6.24445-33.23419-12.28149-9.32825-5.74255-18.14191-11.16547-29.28345-11.16431-11.13922-.00116-19.9541,5.42291-29.28235,11.16315-9.81451,6.03821-19.9621,12.28278-33.23523,12.28278-13.27454-.00116-23.42212-6.24573-33.23547-12.28278-9.33148-5.74139-18.14526-11.16418-29.28333-11.16418-11.14154.00116-19.95422,5.42279-29.28467,11.16522-9.81335,6.035-19.96094,12.27954-33.23651,12.28174a44.53006,44.53006,0,0,1-17.292-3.62555V50h500V45.4859A114.69408,114.69408,0,0,1,484.91981,36.89227Z" transform="translate(0 -25.22693)" style="fill:#abc677;stroke:#abc677;stroke-miterlimit:10"/><rect x="500.73836" y="24.77307" width="500" height="100" style="fill:#abc677;stroke:#abc677;stroke-miterlimit:10;stroke-width:1.4142135623730951px"/><path d="M984.95106,36.89227c-9.33057-5.74023-18.143-11.1665-29.28345-11.16431-11.1427,0-19.9541,5.42291-29.28583,11.16431-9.81207,6.036-19.96094,12.2793-33.23523,12.28278-13.27441-.00128-23.42212-6.24573-33.23419-12.28174-9.32941-5.74347-18.14307-11.16638-29.28461-11.16522-11.13922-.00116-19.9519,5.42047-29.28247,11.163-9.81543,6.037-19.962,12.28265-33.23975,12.28265-13.27325.00012-23.42084-6.24445-33.23419-12.28149-9.32825-5.74255-18.14191-11.16547-29.28345-11.16431-11.13922-.00116-19.9541,5.42291-29.28235,11.16315-9.81451,6.03821-19.9621,12.28278-33.23523,12.28278-13.27454-.00116-23.42212-6.24573-33.23547-12.28278-9.33148-5.74139-18.14526-11.16418-29.28333-11.16418-11.14154.00116-19.95422,5.42279-29.28467,11.16522-9.81335,6.035-19.96094,12.27954-33.23651,12.28174a44.53006,44.53006,0,0,1-17.292-3.62555V50h500V45.4859A114.69407,114.69407,0,0,1,984.95106,36.89227Z" transform="translate(0 -25.22693)" style="fill:#abc677;stroke:#abc677;stroke-miterlimit:10"/></g></svg>