<svg xmlns="http://www.w3.org/2000/svg" xmlns:xlink="http://www.w3.org/1999/xlink" viewBox="0 0 1001.58525 124.78499"><defs><clipPath id="a" transform="translate(0 -25.92212)"><rect x="0.79262" width="1000" height="150" style="fill:none"/></clipPath></defs><title>wave2d</title><g style="clip-path:url(#a)"><rect x="0.70711" y="24.07788" width="500" height="100" style="fill:#47a1c4;stroke:#47a1c4;stroke-miterlimit:10;stroke-width:1.4142135623730951px"/><path d="M473.94539,37.58746c-9.81207,6.036-19.96094,12.2793-33.23523,12.28278C427.43574,49.869,417.288,43.62451,407.476,37.5885c-9.32941-5.74341-18.14313-11.16638-29.28467-11.16522-11.13922-.00116-19.95184,5.42053-29.28241,11.163-9.81543,6.037-19.962,12.28265-33.23975,12.28265-13.27325.00012-23.42084-6.24445-33.23419-12.28149C273.1067,31.845,264.293,26.422,253.15144,26.42316c-11.13922-.00116-19.954,5.423-29.28229,11.16315-9.81451,6.03821-19.9621,12.28278-33.23523,12.28278-13.27454-.00116-23.42212-6.24573-33.23547-12.28278C148.067,31.845,139.25313,26.42212,128.11513,26.42212c-11.1416.00116-19.95422,5.42285-29.28467,11.16522-9.81335,6.035-19.96094,12.27954-33.23651,12.28174-13.27429-.00116-23.422-6.24561-33.23523-12.28278C23.027,31.845,14.21443,26.42316,3.07631,26.42328c-.80249,0-1.58978.03571-2.3692.09V50h500V26.52716C490.73573,27.26862,482.56013,32.28723,473.94539,37.58746Z" transform="translate(0 -25.92212)" style="fill:#47a1c4;stroke:#47a1c4;stroke-miterlimit:10"/><rect x="500.87814" y="24.07788" width="500" height="100" style="fill:#47a1c4;stroke:#47a1c4;stroke-miterlimit:10;stroke-width:1.4142135623730951px"/><path d="M974.11642,37.58746c-9.81207,6.036-19.96094,12.2793-33.23523,12.28278C927.60678,49.869,917.45907,43.62451,907.647,37.5885c-9.32941-5.74341-18.14313-11.16638-29.28467-11.16522-11.13922-.00116-19.95184,5.42053-29.28241,11.163-9.81543,6.037-19.962,12.28265-33.23975,12.28265-13.27325.00012-23.42084-6.24445-33.23419-12.28149C773.27774,31.845,764.464,26.422,753.32247,26.42316c-11.13922-.00116-19.954,5.423-29.28229,11.16315-9.81451,6.03821-19.9621,12.28278-33.23523,12.28278-13.27454-.00116-23.42212-6.24573-33.23547-12.28278C648.238,31.845,639.42416,26.42212,628.28616,26.42212c-11.1416.00116-19.95422,5.42285-29.28467,11.16522-9.81335,6.035-19.96094,12.27954-33.23651,12.28174-13.27429-.00116-23.422-6.24561-33.23523-12.28278-9.33173-5.74133-18.14429-11.16315-29.28241-11.163-.80249,0-1.58978.03571-2.3692.09V50h500V26.52716C990.90676,27.26862,982.73117,32.28723,974.11642,37.58746Z" transform="translate(0 -25.92212)" style="fill:#47a1c4;stroke:#47a1c4;stroke-miterlimit:10"/></g></svg>